<svg xmlns="http://www.w3.org/2000/svg" xmlns:xlink="http://www.w3.org/1999/xlink" viewBox="0 0 530 290"><defs><style>.cls-1{isolation:isolate;}.cls-2{fill:url(#linear-gradient);}.cls-17,.cls-3{opacity:0.88;}.cls-4{fill:url(#linear-gradient-2);}.cls-10,.cls-11,.cls-17,.cls-19,.cls-20,.cls-21,.cls-23,.cls-28,.cls-29,.cls-30,.cls-37,.cls-39,.cls-40,.cls-41,.cls-42,.cls-44,.cls-45,.cls-5,.cls-6,.cls-66,.cls-67,.cls-70,.cls-71,.cls-75,.cls-77,.cls-78,.cls-8,.cls-84,.cls-85,.cls-87,.cls-88,.cls-89,.cls-9,.cls-90,.cls-91,.cls-92{mix-blend-mode:multiply;}.cls-5{fill:url(#linear-gradient-3);}.cls-6{fill:url(#linear-gradient-4);}.cls-7{fill:url(#linear-gradient-5);}.cls-8{fill:url(#linear-gradient-6);}.cls-9{fill:url(#linear-gradient-7);}.cls-10{fill:url(#linear-gradient-8);}.cls-11{fill:url(#linear-gradient-9);}.cls-12{opacity:0.21;fill:url(#linear-gradient-10);}.cls-13{fill:#5ebaff;opacity:0.86;}.cls-14{fill:#4799e0;}.cls-15{fill:url(#linear-gradient-11);}.cls-16{fill:#4a5c63;}.cls-17{fill:url(#linear-gradient-12);}.cls-18{fill:url(#linear-gradient-13);}.cls-19{opacity:0.24;}.cls-20,.cls-21,.cls-22{fill:#bd80a3;}.cls-20{opacity:0.41;}.cls-21{opacity:0.16;}.cls-23{fill:#9484ff;opacity:0.15;}.cls-24,.cls-25,.cls-26{opacity:0.18;}.cls-24{fill:url(#linear-gradient-14);}.cls-25{fill:url(#linear-gradient-15);}.cls-26{fill:url(#linear-gradient-16);}.cls-27,.cls-28,.cls-29,.cls-30{opacity:0.92;}.cls-27{fill:url(#linear-gradient-17);}.cls-28{fill:url(#linear-gradient-18);}.cls-29{fill:url(#linear-gradient-19);}.cls-30{fill:url(#linear-gradient-20);}.cls-31,.cls-32,.cls-33,.cls-34{fill:#ffd4b5;}.cls-31{opacity:0.25;}.cls-32{opacity:0.57;}.cls-33{opacity:0.44;}.cls-34{opacity:0.67;}.cls-35{fill:url(#linear-gradient-21);}.cls-36{fill:url(#linear-gradient-22);}.cls-37{fill:url(#linear-gradient-23);}.cls-38{fill:#d49473;}.cls-38,.cls-43{opacity:0.55;}.cls-39{fill:url(#linear-gradient-24);}.cls-40{fill:url(#linear-gradient-25);}.cls-41{fill:url(#linear-gradient-26);}.cls-42{fill:url(#linear-gradient-27);}.cls-43{fill:#d4949e;}.cls-44{fill:url(#linear-gradient-28);}.cls-45{fill:url(#linear-gradient-29);}.cls-46{fill:#ba7073;}.cls-47{fill:#b0a66b;}.cls-48{fill:#bf9e4f;}.cls-49{fill:#c7965c;}.cls-50{fill:#63544d;}.cls-51{fill:#636b75;}.cls-52{fill:#e5bf9e;}.cls-53{fill:#f1d4b3;}.cls-54{fill:#545669;}.cls-55{fill:#e6e7e8;}.cls-56{fill:url(#linear-gradient-30);}.cls-57{fill:url(#linear-gradient-31);}.cls-58{fill:#00a3e0;}.cls-59{fill:#0099d4;}.cls-60{fill:url(#linear-gradient-32);}.cls-61{fill:#775642;}.cls-62{fill:#dcbd6b;}.cls-63{fill:#f7d479;}.cls-64{fill:#de9659;}.cls-65{fill:#876455;}.cls-66{fill:#edccc1;}.cls-67{fill:url(#linear-gradient-33);}.cls-68{fill:#b98858;}.cls-69{fill:#5b7e9d;}.cls-70{fill:#e1d6dc;}.cls-71{fill:url(#linear-gradient-34);}.cls-72{fill:#956c54;}.cls-73{fill:#708db4;}.cls-74{fill:#8d6f52;}.cls-75,.cls-81,.cls-88{fill:#edd9d4;}.cls-76{fill:#c49e70;opacity:0.2;}.cls-77{fill:url(#linear-gradient-35);}.cls-78{fill:url(#linear-gradient-36);}.cls-79{fill:#6a9bc1;}.cls-80{fill:#5884b1;}.cls-82{fill:#edd4b5;}.cls-83{fill:#e3cca6;}.cls-84{fill:url(#linear-gradient-37);}.cls-85{fill:url(#linear-gradient-38);}.cls-86{fill:#726658;}.cls-87{fill:url(#linear-gradient-39);}.cls-88{opacity:0.56;}.cls-89{fill:url(#linear-gradient-40);}.cls-90{fill:url(#linear-gradient-41);}.cls-91{fill:url(#linear-gradient-42);}.cls-92{fill:url(#linear-gradient-43);}.cls-93{fill:#e4c099;}.cls-94{opacity:0.8;fill:url(#linear-gradient-44);}.cls-95{fill:url(#linear-gradient-45);}</style><linearGradient id="linear-gradient" x1="265" y1="290" x2="265" gradientTransform="matrix(-1, 0, 0, 1, 530, 0)" gradientUnits="userSpaceOnUse"><stop offset="0.15" stop-color="#70e3ff"/><stop offset="0.31" stop-color="#67d8ff"/><stop offset="0.6" stop-color="#51baff"/><stop offset="0.97" stop-color="#2c8bff"/><stop offset="1" stop-color="#2987ff"/></linearGradient><linearGradient id="linear-gradient-2" x1="159.5" y1="126.62" x2="330.06" y2="126.62" gradientTransform="matrix(-1, 0, 0, 1, 530, 0)" gradientUnits="userSpaceOnUse"><stop offset="0" stop-color="#f5e6e3"/><stop offset="0.57" stop-color="#fcf7f7"/><stop offset="0.99" stop-color="#fff"/></linearGradient><linearGradient id="linear-gradient-3" x1="173" y1="136.27" x2="329.45" y2="136.27" gradientTransform="matrix(-1, 0, 0, 1, 530, 0)" gradientUnits="userSpaceOnUse"><stop offset="0" stop-color="#bde6ff"/><stop offset="0.44" stop-color="#c3ebf7"/><stop offset="1" stop-color="#cff5e5"/></linearGradient><linearGradient id="linear-gradient-4" x1="183.41" y1="143.51" x2="330.06" y2="143.51" xlink:href="#linear-gradient-3"/><linearGradient id="linear-gradient-5" y1="67.39" x2="185.78" y2="67.39" gradientTransform="matrix(-1, 0, 0, 1, 530, 0)" gradientUnits="userSpaceOnUse"><stop offset="0.04" stop-color="#f5e6d6"/><stop offset="0.1" stop-color="#f6e8d9"/><stop offset="0.99" stop-color="#fff"/></linearGradient><linearGradient id="linear-gradient-6" x1="51.68" y1="42.31" x2="61.26" y2="42.31" xlink:href="#linear-gradient-3"/><linearGradient id="linear-gradient-7" x1="76.01" y1="41.52" x2="82.84" y2="41.52" xlink:href="#linear-gradient-3"/><linearGradient id="linear-gradient-8" y1="76.16" x2="185.77" y2="76.16" gradientTransform="matrix(-1, 0, 0, 1, 530, 0)" gradientUnits="userSpaceOnUse"><stop offset="0" stop-color="#d1f0ff"/><stop offset="0.44" stop-color="#d0f2f7"/><stop offset="1" stop-color="#cff5e5"/></linearGradient><linearGradient id="linear-gradient-9" x1="0" y1="83.52" x2="185.78" y2="83.52" xlink:href="#linear-gradient-3"/><linearGradient id="linear-gradient-10" x1="265" y1="288.84" x2="265" y2="152.91" xlink:href="#linear-gradient-2"/><linearGradient id="linear-gradient-11" x1="265" y1="290" x2="265" y2="82.41" gradientTransform="matrix(-1, 0, 0, 1, 530, 0)" gradientUnits="userSpaceOnUse"><stop offset="0" stop-color="#634561"/><stop offset="0.12" stop-color="#6a4b65"/><stop offset="0.3" stop-color="#7e5b70"/><stop offset="0.52" stop-color="#9e7482"/><stop offset="0.76" stop-color="#cb989b"/><stop offset="1" stop-color="#ffc2b8"/></linearGradient><linearGradient id="linear-gradient-12" x1="265" y1="290" x2="265" y2="85.17" gradientTransform="matrix(-1, 0, 0, 1, 530, 0)" gradientUnits="userSpaceOnUse"><stop offset="0.01" stop-color="#8f5cad"/><stop offset="0.17" stop-color="#a572b5"/><stop offset="0.54" stop-color="#d19ec6"/><stop offset="0.83" stop-color="#edbad0"/><stop offset="1" stop-color="#f7c4d4"/></linearGradient><linearGradient id="linear-gradient-13" x1="33.47" y1="282.04" x2="530" y2="282.04" gradientTransform="matrix(-1, 0, 0, 1, 530, 0)" gradientUnits="userSpaceOnUse"><stop offset="0" stop-color="#59ab9e"/><stop offset="0.18" stop-color="#5db3a9"/><stop offset="0.51" stop-color="#69c8c7"/><stop offset="0.93" stop-color="#7deaf6"/><stop offset="1" stop-color="#80f0ff"/></linearGradient><linearGradient id="linear-gradient-14" x1="20.67" y1="257.14" x2="200.67" y2="257.14" gradientTransform="matrix(-1, 0, 0, 1, 530, 0)" gradientUnits="userSpaceOnUse"><stop offset="0" stop-color="#8c9c94"/><stop offset="1" stop-color="#c4b8a1"/></linearGradient><linearGradient id="linear-gradient-15" x1="187" y1="244.82" x2="266.75" y2="244.82" xlink:href="#linear-gradient-14"/><linearGradient id="linear-gradient-16" x1="292.63" y1="263.78" x2="348" y2="263.78" xlink:href="#linear-gradient-14"/><linearGradient id="linear-gradient-17" x1="338.15" y1="80.93" x2="530" y2="80.93" gradientTransform="matrix(-1, 0, 0, 1, 530, 0)" gradientUnits="userSpaceOnUse"><stop offset="0.01" stop-color="#fff"/><stop offset="0.9" stop-color="#f6e8d9"/><stop offset="0.96" stop-color="#f5e6d6"/></linearGradient><linearGradient id="linear-gradient-18" x1="340.29" y1="90.79" x2="530" y2="90.79" gradientTransform="matrix(-1, 0, 0, 1, 530, 0)" gradientUnits="userSpaceOnUse"><stop offset="0" stop-color="#cff5e5"/><stop offset="0.56" stop-color="#d4ebf7"/><stop offset="1" stop-color="#d6e6ff"/></linearGradient><linearGradient id="linear-gradient-19" x1="443.95" y1="51.39" x2="460.68" y2="51.39" gradientTransform="matrix(-1, 0, 0, 1, 530, 0)" gradientUnits="userSpaceOnUse"><stop offset="0" stop-color="#cff5e5"/><stop offset="0.56" stop-color="#c3ebf7"/><stop offset="1" stop-color="#bde6ff"/></linearGradient><linearGradient id="linear-gradient-20" x1="355.73" y1="99" x2="530" y2="99" gradientTransform="matrix(-1, 0, 0, 1, 530, 0)" gradientUnits="userSpaceOnUse"><stop offset="0" stop-color="#cff5e5"/><stop offset="0.56" stop-color="#d7f0f7"/><stop offset="1" stop-color="#dbedff"/></linearGradient><linearGradient id="linear-gradient-21" x1="321.5" y1="267.89" x2="530" y2="267.89" gradientTransform="matrix(-1, 0, 0, 1, 530, 0)" gradientUnits="userSpaceOnUse"><stop offset="0" stop-color="#a66a5b"/><stop offset="0.98" stop-color="#6d4b75"/></linearGradient><linearGradient id="linear-gradient-22" x1="321.5" y1="254.63" x2="530" y2="254.63" gradientTransform="matrix(-1, 0, 0, 1, 530, 0)" gradientUnits="userSpaceOnUse"><stop offset="0.02" stop-color="#e6bab8"/><stop offset="0.98" stop-color="#a9664f"/></linearGradient><linearGradient id="linear-gradient-23" x1="415.15" y1="250.59" x2="530" y2="250.59" gradientTransform="matrix(-1, 0, 0, 1, 530, 0)" gradientUnits="userSpaceOnUse"><stop offset="0.02" stop-color="#7d6b99"/><stop offset="0.25" stop-color="#8774a0"/><stop offset="0.62" stop-color="#a08bb2"/><stop offset="1" stop-color="#c2a9c9"/></linearGradient><linearGradient id="linear-gradient-24" x1="366.54" y1="290" x2="366.54" y2="248.85" gradientTransform="matrix(-1, 0, 0, 1, 530, 0)" gradientUnits="userSpaceOnUse"><stop offset="0.01" stop-color="#e1c5df"/><stop offset="0.18" stop-color="#cab6d4"/><stop offset="0.53" stop-color="#a09abf"/><stop offset="0.81" stop-color="#8788b2"/><stop offset="0.98" stop-color="#7d82ad"/></linearGradient><linearGradient id="linear-gradient-25" x1="489.88" y1="290" x2="489.88" y2="265.88" xlink:href="#linear-gradient-24"/><linearGradient id="linear-gradient-26" x1="404.27" y1="290" x2="404.27" y2="254.22" xlink:href="#linear-gradient-24"/><linearGradient id="linear-gradient-27" x1="448.43" y1="290" x2="448.43" y2="258.62" xlink:href="#linear-gradient-24"/><linearGradient id="linear-gradient-28" x1="458.23" y1="242.87" x2="527.19" y2="242.87" xlink:href="#linear-gradient-23"/><linearGradient id="linear-gradient-29" x1="499.38" y1="260.04" x2="530" y2="260.04" xlink:href="#linear-gradient-23"/><linearGradient id="linear-gradient-30" x1="428.41" y1="156.3" x2="428.41" y2="88.28" gradientTransform="matrix(-1, 0, 0, 1, 530, 0)" gradientUnits="userSpaceOnUse"><stop offset="0" stop-color="#7c9b4f"/><stop offset="1" stop-color="#797f63"/></linearGradient><linearGradient id="linear-gradient-31" x1="414.29" y1="118.87" x2="414.29" y2="104.18" gradientTransform="matrix(-1, 0, 0, 1, 530, 0)" gradientUnits="userSpaceOnUse"><stop offset="0" stop-color="#738549"/><stop offset="1" stop-color="#6f755c"/></linearGradient><linearGradient id="linear-gradient-32" x1="425.54" y1="89.48" x2="446.55" y2="89.48" gradientTransform="matrix(-1, 0, 0, 1, 530, 0)" gradientUnits="userSpaceOnUse"><stop offset="0" stop-color="#819b68"/><stop offset="1" stop-color="#7c9465"/></linearGradient><linearGradient id="linear-gradient-33" x1="421.26" y1="84.85" x2="428.86" y2="84.85" gradientTransform="matrix(-1, 0, 0, 1, 530, 0)" gradientUnits="userSpaceOnUse"><stop offset="0" stop-color="#d9dbd8"/><stop offset="1" stop-color="#cbae67"/></linearGradient><linearGradient id="linear-gradient-34" x1="436.79" y1="200.53" x2="436.79" y2="171.94" gradientTransform="matrix(-1, 0, 0, 1, 530, 0)" gradientUnits="userSpaceOnUse"><stop offset="0" stop-color="#d9dbd8"/><stop offset="1" stop-color="#d0be90"/></linearGradient><linearGradient id="linear-gradient-35" x1="413.8" y1="132.87" x2="429.91" y2="132.87" xlink:href="#linear-gradient-33"/><linearGradient id="linear-gradient-36" x1="409.82" y1="120.56" x2="414.62" y2="120.56" xlink:href="#linear-gradient-33"/><linearGradient id="linear-gradient-37" x1="426.5" y1="251.49" x2="426.5" y2="236.7" gradientTransform="matrix(-1, 0, 0, 1, 530, 0)" gradientUnits="userSpaceOnUse"><stop offset="0.01" stop-color="#e1a1c4"/><stop offset="0.18" stop-color="#ca9abf"/><stop offset="0.53" stop-color="#a08db5"/><stop offset="0.81" stop-color="#8785af"/><stop offset="0.98" stop-color="#7d82ad"/></linearGradient><linearGradient id="linear-gradient-38" x1="455.09" y1="248.53" x2="455.09" y2="235.35" xlink:href="#linear-gradient-37"/><linearGradient id="linear-gradient-39" x1="430" y1="77.82" x2="433.31" y2="77.82" xlink:href="#linear-gradient-33"/><linearGradient id="linear-gradient-40" x1="422.75" y1="75.18" x2="444.6" y2="75.18" xlink:href="#linear-gradient-37"/><linearGradient id="linear-gradient-41" x1="433.72" y1="131.05" x2="433.72" y2="99.57" xlink:href="#linear-gradient-33"/><linearGradient id="linear-gradient-42" x1="431.41" y1="152.56" x2="452.78" y2="152.56" xlink:href="#linear-gradient-33"/><linearGradient id="linear-gradient-43" x1="434.52" y1="237.48" x2="434.52" y2="85.05" gradientTransform="matrix(-1, 0, 0, 1, 530, 0)" gradientUnits="userSpaceOnUse"><stop offset="0.01" stop-color="#f5a2c6"/><stop offset="0.02" stop-color="#f3a1c6"/><stop offset="0.35" stop-color="#b98cbe"/><stop offset="0.63" stop-color="#8f7db8"/><stop offset="0.85" stop-color="#7573b4"/><stop offset="0.98" stop-color="#6b70b3"/></linearGradient><linearGradient id="linear-gradient-44" x1="430.54" y1="250.65" x2="430.54" y2="58.85" gradientTransform="matrix(-1, 0, 0, 1, 530, 0)" gradientUnits="userSpaceOnUse"><stop offset="0" stop-color="#fadbff"/><stop offset="1" stop-color="#ffffd1"/></linearGradient><linearGradient id="linear-gradient-45" x1="445.95" y1="222.92" x2="445.95" y2="68.92" gradientTransform="matrix(-1, 0, 0, 1, 530, 0)" gradientUnits="userSpaceOnUse"><stop offset="0" stop-color="#66bdff"/><stop offset="0.98" stop-color="#e3c2fa"/></linearGradient></defs><title>head</title><g class="cls-1"><g id="Layer_1" data-name="Layer 1"><rect class="cls-2" width="530" height="290"/><g class="cls-3"><polygon class="cls-4" points="370.5 113.72 361.2 109.69 349.51 110.89 343.49 109.69 321.91 111.98 311.5 108.42 309.43 102.87 299.82 102.87 295.19 99.15 282.88 97.49 276.46 101.84 274.65 101.46 256.33 105.61 253.91 110.89 246.13 111.98 240.02 115.83 233.39 115.83 225.24 125.78 216.83 123.47 203.32 127.71 199.94 133.62 207.4 136.46 207.91 141.6 226.51 143.34 229.82 145.52 246.9 143.34 258.62 146.74 273.15 141.41 280.79 146.74 270.26 146.74 266.65 149.31 264.74 152.13 284.11 152.75 290.48 155.74 328.2 147.84 370.5 113.72"/><polygon class="cls-5" points="200.56 133.85 207.4 136.46 207.91 141.6 226.51 143.34 229.82 145.52 246.9 143.34 258.62 146.75 273.15 141.41 280.79 146.75 270.26 146.75 266.64 149.31 264.74 152.13 284.11 152.75 290.48 155.75 328.2 147.85 357 124.61 352.92 123.17 346.55 126.61 341.96 124.89 326.84 129.28 321.57 134.89 313.67 134.89 293.79 137.95 307.55 130.56 300.67 128.52 303.73 124.44 297.87 118.07 293.79 116.8 290.48 116.8 281.81 122.66 280.28 121.64 268.56 124.7 265.25 123.42 248.68 128.52 245.63 127.38 251.23 122.91 249.19 120.87 239.76 121.13 237.47 126.61 232.88 126.61 218.35 132.85 216.32 130.56 210.71 130.56 200.56 133.85"/><path class="cls-6" d="M200,133.61h0l7.45,2.84.51,5.14,18.6,1.74,3.31,2.18,17.08-2.18,11.72,3.4,14.53-5.33,7.63,5.33H270.26l-3.07,2.19-.55.38-1.9,2.82,19.37.62,2.55,1.2,3.82,1.79,37.72-7.9,14.08-11.35L346.6,133l-12.8,1.7-12.49,4.86h-4.46l-8.15,4.32-8.54-1.77-7.64.88-7.3-4.33,9.85-4.47-9.85-2.92-8.64,2.41-.75-1.39-16.31,3.31-.64,2-6-.57-3.32-4-14.27,1.65s-1.53,3.57-1.91,3.57-7.27-.69-7.27-.69v-2.1l-12.61,2.79-1.78,1.41-2.29-4.59-8.88-1.25Z"/></g><path class="cls-7" d="M530,35.44l-9.67-1.67L512,35.44l-4,6.33h-6l-5.67,2.33h-18l-9.59-5.16L454,44.1l-6.83-5.16L424.24,43.1l-5.59,4-11.33,2.34-2.83,4.33L369,57.11l-5.17,4H352.65L344.23,66l4.08,7.09h8.07l12.6,8,11.06-2,10.63,2L398,86.19l18.26,2.63,9.5,1.21,10,8.19,8.62-2.11,28-3.66,5.08,6.09H499.2l13.46-3.39s5,.94,6,1.28,8.66,4.58,8.66,4.58L530,99.55Z"/><polygon class="cls-8" points="468.74 38.93 470.61 44.1 473.24 45.69 478.32 44.1 468.74 38.93"/><polygon class="cls-9" points="447.16 38.93 448.87 42.93 453.99 44.1 447.16 38.93"/><path class="cls-10" d="M344.23,66l4.08,7.08h8.08l12.59,8,11.07-2,10.63,2L398,86.19l18.25,2.64,9.5,1.2,10,8.2.89-.22c.07-.21.19-.25.35-.09l7.38-1.81,28-3.66,5.08,6.09H499.2l13.47-3.38s5,.93,6,1.28,8.66,4.57,8.66,4.57L530,99.55V52.33l-4.88-1-4,2.88-4.62-1.44-13.38,2.94-2.24,4.74h-8.26l-4.24,1.88L478,67.38l-5.75-.95,4-4-4-3.08-11,1.08-3-1.08-8.5,2.46-4.5,4.62-5.63-1-4.87-2.24-7.42.79-2.5,3.4s-6.16.76-6.66.76-5.5-6.5-5.5-6.5l-1.84-3.33h-5.33l-4.67,4-3.66-1.17-18,4-2.84-2-6-.33L365,66l-3.83-.84L356,67.38l-8.33.76Z"/><path class="cls-11" d="M344.23,66l4.08,7.08h8.08l12.59,8,11.06-2,10.63,2L398,86.19l2.31.33,15.95,2.3,8.45,1.07,1.05.14,7.18,5.9,2.78,2.3.89-.23h0l4-1,3.68-.9,28-3.67,5.08,6.09h21.8l13.47-3.38s1.93.36,3.64.72l1.29.28.15,0h0a7.39,7.39,0,0,1,.91.25l.27.11c1.69.76,8.39,4.45,8.39,4.45L530,99.55V80.64l-7.08,2.07-7.34-1.83-13.16,5.67s-5-1.67-4.5-2,7.16-2.67,7.16-2.67l-6.5-1.17L479.74,82.8l-5.83,2.41-8.17-.66V82.8l-18.17-1.09-5.66,2.67-4.79,2.17L425.24,82.8h-5.67l-8.16-1.75L400.73,82.8l-4.5-4.59-8-2-1.17,1.55-9-3.66h-8.83l-6.67-2-14.25-1Z"/><path class="cls-12" d="M0,164.61V288.84H530V169.34c-16.19-3.09-30-5.52-30-5.52l-13.5,2.69-11-2.69-32.5-5-15,2.5H394l-20,8.36H344l-23,3.55-24-6.72-11-3.84L257.93,160l-14.18,1.79L232.67,160,211,161.56l-3.5,4.95s-9,3.52-10.5,3.17-13.5-3.17-13.5-3.17l-10-3s-11.83,6-13.83,6.18-12.23-7-12.23-7L128,155.56l-40.5-2.65L73,158.82l-12.5-3.26L31,163.07l-8-2.38-10,5.82Z"/><polygon class="cls-13" points="468.4 158.77 440.48 152.17 427.12 157.1 417.73 153.16 387.73 160.78 365.04 160.78 338.9 174.22 303.86 174.22 274.25 166.01 257.99 166.01 230.75 172.87 220.68 172.87 201.75 177.9 188.86 183.57 177.98 181.95 171.54 183.57 150.19 175.14 142.13 166.01 130.78 164.55 72.15 170.79 69.72 177.9 47.47 189.63 196.91 215.98 306.07 206.61 468.4 158.77"/><polygon class="cls-14" points="0 138.03 0 216.56 465.33 216.56 465.33 139.26 445.23 138.16 441.26 140.01 436.88 138.16 421.15 137.02 408.64 144.14 402.56 141.15 381.81 145 377.11 148.42 370.81 168.24 364.26 170.37 361.45 169.81 350.11 174.94 336.77 171.77 324.24 171.77 317.28 173.66 311.5 173.37 290.61 184.58 283.04 184.58 270.11 189.53 255.55 196.18 240.86 198.32 211.41 202.24 193.1 195.81 175.97 195.81 158.47 191.35 146.53 192.31 129.81 184.58 123.85 183.21 114.69 174.38 107.52 164.99 100.64 162.6 93.7 162.94 83.87 151.38 69.31 150.3 49.15 147.28 37.24 147.43 22.56 144.93 2.85 138.16 0 138.03"/><polygon class="cls-15" points="0 181.53 0 290 530 290 530 116.07 513.08 105.33 495.33 103.41 473.5 95.77 466.33 89.41 455.17 88.67 444.33 92.33 439.09 90.98 438.5 90.83 434.33 85.17 427.67 82.41 411 92.74 407.33 97.07 392 93.41 383.45 100.41 366.33 112.27 357.33 112.27 351.67 114.74 341.75 116.88 325 133.2 317.33 131.5 317.1 131.76 317.09 131.78 308.5 141.74 304.75 145.74 300.75 145.74 294.5 151.24 284 165.34 274.25 168.49 265 181.24 239.25 197.24 217.33 199.07 206.63 201.36 204.67 201.78 183.83 210.24 181.33 209.41 147.44 214.24 139.64 212.5 110.48 206 94.87 207.66 65.2 198.81 57.43 199.41 42.23 191.45 36.87 190.45 11.61 180.26 3.33 184.04 0 181.53"/><polygon class="cls-16" points="530 219.5 522.75 222.5 518.5 222.5 502.5 228.5 465.33 231 439.7 240.25 432.75 240.25 421 241.5 392.33 241.5 388.67 241.5 385.58 243.33 378.67 243.33 376 243.33 370.75 243.33 364 241.04 369 237.25 384.33 233.33 388.67 228.33 396.55 216.56 395.75 214.75 387 224.38 369.25 226.5 365 225 361.5 227.5 353 226.75 327.25 231.42 323.5 231.42 318.75 233.5 286.5 238.52 284.25 241.04 276.75 241.04 257.93 250.57 254.75 249.34 249.5 250.57 240.5 248.25 222.5 250.57 219 250.57 217.5 245.78 227.5 241.04 228.5 236.17 211 238.52 205 237.25 185.25 236.17 177 233.85 164.91 238.52 162.88 237 151.75 237.63 147.44 239.59 143.88 239.88 134.25 241.99 127.98 241.04 117 242.38 114.86 238 110.13 237.13 104.12 238.52 96.13 236.17 65.75 233.84 61.88 235.03 52.92 233.84 49.25 235.03 39.5 231.5 33.5 231.63 29 229.75 22.25 225.75 18.13 218.25 10.75 214.5 7.88 210.5 6.63 210.5 0 207.25 0 290 530 290 530 219.5"/><path class="cls-17" d="M392.34,116.15v2.5l-5.5,10.5L377,142.48l-6.5,18.28L365,163.6l-2.75,7.94-9.58,6.69-8.42,8L338,187.65l-7.83,13.16L324,203.17l-11.75,15.31,4.25-8.73,2.62-6.37,7.76-8.88,8.24-12.17,3.5-11.45,2.59-9.11,11.46-5.33,6.08-6.63-4.37-5.91,14.12-20.57-.62-4.22-12.44,3.26L372,114.1,382.38,107l10-2.91,1.5-4L392,93.41l9.88,2.34,5.45,1.3-9.66,14.1ZM427.67,110l16.66-17.67-5.83-1.5-4.17-5.66-14.08,17-9.25.69-7.83,16.24L393,129.83,407.33,120l6.34-8.75ZM0,187.83V290H530V169.67l-4,7.66-6.33,3.34-20,30.37h-3.14l-19.2,7.63H447.67l-23.17-1-20,5.83,9.5-18.17,13.77-22.08,1.73-8.75-5.5,9.57-6,5.6-10.67,13.07-13.58,4.51L384,202.74,393,160l-20.25,42.74-16.34,8.43V205L343.5,216.5l-9-.52-21,7-4.25-1.08H303l-3.75-10.42L304.32,196l12.77-15.51,7.66-19.74-9.5,13.49L268.33,216l-4,.58-3.07,8.77-10-2.08-10.75-5.76,2.75-5.74-16.42.24,12.42-14.75-34.06,16.7,1.23-.11L183,216l23.63-14.62-2,.42-20.84,8.46-2.5-.83-33.89,4.83-7.8-1.74-5.39,2.25-8.92-2.25-7.55,6.5-20.1-7.67L92,210.5l-27.78-7.83,7.72,9.66-19-7L39,195.39l-13.33-4.62-6.5,2.79L7.83,186.23,2.67,188.5ZM521.33,131.5l8.67-7.42v-8l-16.92-10.73-24.33,20.49,1.75,1.4L475.17,147.5l-6.77,1-14.23,14.13L470.52,154l11.81-1.09,1,1.76L479,169l17-28.42,12.33-10.75L501.5,145l13.33-12.67Zm-67.16,47.44L429.5,194.67l19.33-5,6.34,1.21L459,180l1.5-10.83ZM461.08,105l12.42-9.23-7.17-6.36-17.5,18.09-1.21-.5,1.21-1.66-1.21-.72-14.24,17L424.69,123,412,136.17l14.33-10.92,8.5-.33,12.84-12.11,1.08.21-4.83,7Z"/><polygon class="cls-18" points="496.53 290 320.62 283.65 337.61 282.28 228.62 282.28 214.25 280.92 207.25 282.37 187 278.67 147.44 278.67 0.12 274.07 0 290 496.53 290"/><g class="cls-19"><polygon class="cls-20" points="455.44 91.38 453 93.92 475.6 106.02 454.17 97.42 480.27 113.02 485.05 110.79 483.45 105.38 459.58 94.35 473.16 98.7 455.44 91.38"/><polygon class="cls-21" points="447.63 99.88 445.13 102.25 480 119.14 447.63 99.88"/><polygon class="cls-21" points="457.83 146.5 428.33 132.5 445.83 142.5 410.83 129.83 407.33 132.17 434.17 142.5 412 136.17 452 151.33 452 147.83 457.83 146.5"/><polygon class="cls-21" points="455.17 160 404.5 137.83 451 161.79 455.17 160"/><polygon class="cls-21" points="429.83 165.33 390 146 384.67 149.81 416.25 165.33 398.67 154.83 429.83 165.33"/><polygon class="cls-20" points="414 177.5 378.5 165.33 375.5 169.67 414 180 414 177.5"/><polygon class="cls-22" points="413.5 184.42 411.58 187.67 377 173.33 413.5 184.42"/><polygon class="cls-20" points="463.33 186.21 435.71 174.33 434.33 178.33 457.19 190.69 447.56 183.81 462.44 187.67 463.33 186.21"/><polygon class="cls-21" points="462.92 198.75 440.17 190.69 432.75 183.42 431.42 187.67 437.5 195.92 460.17 205.92 446.67 197.5 462.92 198.75"/><polygon class="cls-22" points="468.75 215.08 427.17 200.83 424.5 206.67 454.42 214.17 450.25 211.75 468.75 215.08"/><polygon class="cls-21" points="346.02 119.03 343.63 122.68 372.91 127.47 378.75 129.83 361.19 121.63 346.02 119.03"/><polygon class="cls-21" points="363.83 114.75 357.69 114.75 355.75 115.38 375.5 120.88 367 120.88 384.67 125.25 388.25 122 363.83 114.75"/><polygon class="cls-20" points="388.25 113.13 373.75 108.75 370.5 111.63 389.63 116.88 388.25 113.13"/><polygon class="cls-21" points="436.81 102.63 434.44 104.94 419.19 94.81 429.44 105.33 412.56 93.13 421.06 89.13 429.63 96.25 425.81 94.88 434.88 102.19 436.81 102.63"/><polygon class="cls-22" points="425.75 86.25 424.25 87.31 440.63 99.5 427.31 85.81 425.75 86.25"/><polygon class="cls-20" points="377 147.5 374.38 154.83 348.88 156.75 344.75 158 344.25 154.83 359.63 150.38 365.25 149.81 357.69 149.13 377 147.5"/><polygon class="cls-22" points="369 160 365 163.63 339.75 165.33 342.13 163.5 369 160"/><polygon class="cls-22" points="356.13 171.13 338.63 168.5 335.5 171.13 352.25 174.63 344.25 171.47 356.41 171.56 356.13 171.13"/><polygon class="cls-22" points="351.75 140.83 352.67 143.67 327.25 156.25 326.42 153.58 320.92 154.83 307.67 147.5 323.42 151.67 331 150.42 351.75 140.83"/><polygon class="cls-22" points="344.25 140.83 317.5 133.83 314.75 137 330.67 140.5 315.67 139 338.75 143.92 344.25 140.83"/><polygon class="cls-22" points="284.5 168.5 277.88 170.38 275.13 174 312.25 180 286.25 172.38 309.25 176.25 284.5 168.5"/><polygon class="cls-22" points="289.88 161.79 287.5 164.75 307.67 170.63 314.25 171.56 319.13 176.5 315.88 169.67 308.5 168.5 295.13 162.67 309.13 166 291.13 160 289.88 161.79"/></g><polygon class="cls-23" points="407.33 97.07 397.67 111.17 392.33 116.17 392.33 118.67 386.83 129.17 372.33 137.67 364.67 142.5 363.83 134.5 372.33 123.67 371 118.5 385.58 108.33 392.5 107.03 395.92 105.04 396.33 103.33 400.38 101 401.88 95.77 407.33 97.07"/><polygon class="cls-24" points="509.33 236.7 491.33 241.04 472.94 241.04 463.67 243.83 457 243.83 415.5 255.13 403.33 256 399.63 260.88 389.63 261.13 387.5 263.38 363 267.89 360.67 268.22 350.33 270.52 340.92 275.5 329.33 277.58 341.83 277.08 352.25 273.08 355.25 272.83 358.75 271.58 360 272.33 362.17 270.83 364.67 271.67 367 269.58 375.75 268.75 377.83 267.33 383.5 268.25 385.83 266.5 389.42 266.5 390.92 263.58 396.58 262.92 400.25 262.92 403.67 260.5 407.25 257.14 416.25 257.75 417.92 256.33 422.58 256.08 436.58 251.08 456.33 245.5 447.25 250.25 460.58 245.58 466.33 245.25 472.83 242.58 491.25 242.42 509.33 236.7"/><polygon class="cls-25" points="343 235 332.75 237.48 326.75 237.48 309.83 243.83 301.75 242.75 288.25 243.83 283.5 246.56 278.67 246.56 263.25 254.63 279 248.63 283.25 248.63 289.38 244.81 300.88 244.81 303.13 245.78 304.88 244.81 310.25 245.78 327.38 239 333.88 239 343 235"/><polygon class="cls-26" points="237.38 251.57 230.75 255.38 228.88 255.38 227.13 256.75 225.75 256.75 223.13 258.13 218.75 258.13 209.75 263.13 205.88 263.13 202.88 265.38 188.78 271.88 182 276 190.13 272.75 202.25 267.89 203.63 267.89 204.88 266.25 205.5 267 208.5 264.75 213.13 263.79 219 259.38 223.83 259.38 226.17 257.67 229.25 257.17 229.46 256.29 231.83 256 237.38 251.57"/><polygon class="cls-27" points="0 56.77 0 104.69 7.78 101.99 10.9 103.04 16.73 99.36 31.14 107.37 35.02 111.44 44.7 111.44 56.44 115.4 57.88 115.89 82.64 115.89 89.4 109.52 91.25 109.45 97.55 109.22 104.68 107.37 108.18 109.22 133.48 98.08 136.98 98.08 145.15 93.41 151.77 94.56 158.34 91.67 157.7 87.19 158.19 85.76 163.2 86.22 183.68 85.19 189.59 82.55 189.71 79.29 191.85 78.53 189.13 74.6 184.75 70.37 168.5 68.5 162.28 64.27 152.16 69.44 141.65 69.91 130.84 59.58 114.75 61.46 108.57 57.23 99.65 57.7 97.55 50.2 85.58 45.97 79.82 52.54 69.32 52.54 59.92 64.74 47.48 62.87 41.19 57.7 33.47 60.52 19.89 57.23 16.34 52.54 8.17 52.54 0 56.77"/><polygon class="cls-28" points="0 65.68 0 104.68 7.78 101.99 10.9 103.04 16.73 99.36 31.14 107.37 35.02 111.44 44.7 111.44 56.44 115.4 59.73 112.23 66.94 112.23 71.61 110.84 76.66 115.89 82.64 115.89 89.4 109.52 91.25 109.45 97.55 109.22 104.68 107.37 108.18 109.22 133.48 98.08 136.98 98.08 145.15 93.41 151.77 94.56 158.34 91.67 157.7 87.19 158.19 85.76 163.2 86.22 183.68 85.19 189.59 82.55 189.71 79.29 183.29 82.38 181.34 80.83 178.23 82.38 170.06 77.45 158.97 74.63 156.63 78.5 153.71 77.22 145.54 82.38 142.82 82.38 139.71 84.25 130.95 78.15 124.33 79.44 118.89 77.22 95.92 72.05 92.42 73.93 101.76 78.15 104.88 80.93 104.1 83.08 98.84 84.25 93.79 84.25 90.28 87.3 76.86 82.11 74.52 79.68 69.46 79.68 64.44 76.48 59.01 80.93 47.83 82.7 40.64 79.29 30.16 87.3 24.71 82.38 21.6 83.08 16.34 80.93 5.45 74.4 4.47 67.37 0 65.68"/><polygon class="cls-29" points="69.32 52.55 79.56 56.81 86.05 46.14 85.58 45.98 79.82 52.55 69.32 52.55"/><path class="cls-30" d="M0,89.92V104c.07.2.14.38.2.58l5.46-1.9L7.78,102,10.9,103l5.83-3.69h0l14.39,8L35,111.44H44.7l13.18,4.45H82.64l6.75-6.37h0l1.85-.07,6.3-.23,7.13-1.85,3.5,1.85,25.3-11.14H137l5.72-3.27,2.45-1.41,6.62,1.16,1.95-.85,4.63-2-.07-.46-.57-4,.32-1,.16-.47,3.83.35,1.18.12,2.61-.14,8.37-.42.1-.12-5.58-1.26-7.4-.78-6-1.41L154,83.82,149,84.92l1.17,4-3,.81L142.49,89,136,91.8l-6.1-1.72.91-3.12-3-1.57L114.35,89H109L91,97.12l-4.41,5.79L80.49,99l-4.41.94-6.76-5L53.25,96.65l-2.33-2.81H46.5l-6-1.4L30.36,96.52,19,89.92Z"/><polygon class="cls-31" points="183 215.98 183 215.98 206.63 201.36 217.33 199.07 239.25 197.24 205.19 213.94 183 215.98"/><polygon class="cls-31" points="243.25 211.75 271.67 182.33 255.67 211.75 258.67 212.67 265 208.33 266.67 209.83 261.25 225.33 251.25 223.25 240.5 217.49 243.25 211.75"/><polygon class="cls-31" points="309.25 221.92 324 203.17 330.17 200.81 338 187.65 344.25 186.19 353.38 177.74 345.95 190.69 341 194 335.5 206.61 330.17 217.43 313.5 223 309.25 221.92"/><polygon class="cls-32" points="427.67 82.41 434.33 85.17 420.25 102.2 411 102.89 403.17 119.14 393 129.83 390.13 139.99 382.38 147.5 370.5 160.76 377 142 386.84 129.15 392.34 118.65 392.34 116.15 397.67 111.15 407.33 97.05 411 92.74 427.67 82.41"/><polygon class="cls-33" points="513.08 105.33 488.75 125.83 490.5 127.23 475.17 147.5 468.4 148.54 454.17 162.67 435.71 172.67 458.67 147.5 472 134.83 470.88 134.63 463 141.88 461.5 140.31 477.88 122.94 495.33 103.41 513.08 105.33"/><polygon class="cls-31" points="356.41 205 370.5 184.07 375.5 182.33 393 160 372.75 202.74 356.41 211.17 356.41 205"/><polygon class="cls-31" points="324.75 160.76 313.54 162.54 309.32 165.82 289.75 175.15 268.33 215.98 309.06 179.75 316.9 172.28 324.75 160.76"/><polygon class="cls-34" points="274.25 168.49 290.64 165.67 300.75 145.74 294.5 151.24 284 165.34 274.25 168.49"/><polygon class="cls-34" points="304.75 145.74 313 145.74 315.83 138.42 313.83 138.88 317.33 131.5 305.17 145.5 304.75 145.74"/><polygon class="cls-32" points="466.33 89.41 448.83 107.5 447.63 107 448.83 105.33 447.63 104.63 433.38 121.59 424.69 123.02 412 136.17 402.42 142.5 409.25 134.38 411.88 128.38 407.88 127.23 393 133.83 390.13 139.99 393 129.83 407.33 120 413.67 111.25 427.67 110 444.33 92.33 455.17 88.67 466.33 89.41"/><polygon class="cls-31" points="429.5 174.5 423.67 176.79 410.83 186.21 392.17 200.83 387.83 204.51 393.75 207.25 407.33 202.74 418.44 189.26 424.5 184.07 429.5 174.5"/><polygon class="cls-31" points="530 169.67 526 177.33 519.67 180.67 499.67 211.04 504.33 190.69 504 184.07 499.67 183.42 494.83 185.5 493.67 185.33 509.33 168 510.83 169.17 509.33 172.67 513 172.67 523.83 159.17 523.17 156.5 521.33 156.5 530 146.83 530 169.67"/><polygon class="cls-31" points="460.5 169.17 441.67 174.63 440.83 178.94 429.5 194.67 454.17 178.94 460.5 169.17"/><polygon class="cls-32" points="392 93.41 393.88 100.1 392.38 104.1 382.38 107.01 371.71 114.19 364.4 117.78 355.44 122.37 366.33 112.27 383.75 100.17 392 93.41 392 93.41"/><polygon class="cls-34" points="333.5 134.83 332.59 133.2 325 133.2 341.75 116.88 357.33 112.27 342.33 130.67 341.15 137.83 318.17 157.12 333.5 134.83"/><polygon class="cls-31" points="367.88 119.11 362.12 120.62 354.38 143.9 368.5 123.33 367.88 119.11"/><polygon class="cls-35" points="208.5 246.17 208.5 251.78 200.67 256.17 207.17 256.17 207.17 259.5 180.5 271.17 180.5 273.33 162.83 281.17 160.5 284.33 160.5 290 0 290 0 245.78 208.5 246.17"/><polygon class="cls-36" points="0 241.04 140.5 242.03 99.71 244.82 145.75 243.68 197 244.82 208.5 246.17 186 248.84 137.75 249.96 156.75 251.17 162.88 251.17 162.38 251.73 142.88 254.3 123.88 254.3 70.83 259.17 49.51 258.06 40.74 258.83 76.69 261.99 76.92 264.33 16.75 268.22 0 265.08 0 241.04"/><polygon class="cls-37" points="67.83 247 49.44 246.3 32 246.3 38.88 245.75 49.46 245.11 49.31 244.06 34.5 244.38 8.63 245.25 0 245.78 0 255.88 10.13 257.13 17.38 257 25.8 256 63.25 256.13 99.22 252.75 114.86 250.52 104.25 250.13 95.56 250.19 77.25 250.44 58.38 251.11 53.81 250.38 76.06 248.78 83.39 247 67.83 247"/><polygon class="cls-38" points="162.88 251.17 162.13 256.38 151.13 268.22 141.88 283.88 140.25 289.75 132 289.88 133.13 280.38 140.5 269.63 135.13 272.63 143.5 254.22 162.88 251.17"/><polygon class="cls-38" points="76.92 264.33 73.76 270.52 69.5 272.38 72.13 272.38 69.5 282.63 63.97 290 56.02 290 63.33 282.21 63.5 273.96 52.92 265.88 76.92 264.33"/><path class="cls-39" d="M141.88,283.88,140.22,290h15.35c.59-3.25,1.1-6,1.1-6l9.13-10.88,4.37-7.24,17.38-5.63,1.62-3.75-5.33-.75-2.17-1.12,4.11-5.78-48,1.11,19,1.21h6.13l-.75,5.21-11,11.84Z"/><polygon class="cls-40" points="30.05 278.44 24.93 279.88 36.05 285.75 42.3 283.25 38.43 287.62 36.78 290 56.02 290 63.33 282.21 63.5 273.96 52.92 265.88 16.75 268.22 30.05 275.38 30.05 278.44"/><polygon class="cls-41" points="107.97 290 132.01 290 133.13 280.38 140.5 269.62 135.13 272.62 143.5 254.22 142.88 254.3 123.88 254.3 122.87 254.39 114.86 268.88 115.93 273.12 109.43 277.17 109.43 286.12 107.97 290"/><polygon class="cls-42" points="85.17 280.88 83.43 280.88 85.55 268.22 87.05 268.22 89.17 264.33 99.17 259.5 99.17 258.62 69.97 261.4 76.69 261.99 76.92 264.33 73.76 270.52 69.5 272.38 72.13 272.38 69.5 282.62 63.97 290 85.31 290 85.17 280.88"/><polygon class="cls-43" points="140.5 242.03 140.25 243.83 99.47 244.88 118 243.45 140.5 241.74 140.5 242.03"/><polygon class="cls-44" points="9.44 242.56 20 242.56 16.31 243.55 34.56 243 34.56 243.55 43.38 243 44 243.55 48.86 243 53.94 243.9 53.94 244.65 63.97 244.65 71.77 244.18 56.25 241.55 41.25 241.33 5.69 241.08 2.81 241.94 13 241.94 9.44 242.56"/><path class="cls-45" d="M0,258.73l2.81.69L0,259.69l2.81.4L0,260.81v.69l10.25-.44-2.94,1.06,7.21-1-.71,1,3.94-1.18,1.13,1.18,2.68-.87,3.75.87.75-.93,2.51.62-.44-.69L30.62,260h-.2l-4.54-.47s-5.32.54-5.5.47-5.07-1.22-5.07-1.22H9.56L6.37,258H0Z"/><path class="cls-46" d="M14.53,226.63c.26,1,.56,2.05.87,3.06.67,2.16,1.4,4.29,1.93,6.48.1.43.2.87.27,1.3h0c.13.63.23,1.26.3,1.9a.69.69,0,0,0,.39.46s0,.1,0,.15v0h0a.84.84,0,0,0,.33-.07,1,1,0,0,0,.4,0,.31.31,0,0,0,0,.08c.14.5,1.54.77,1.86.48.14.51.26,1,.42,1.54a.58.58,0,0,0,.13.23c.36.08.68.08.77-.11A12.29,12.29,0,0,0,23,239.7c.17,0,.29-.07.34-.19a1.39,1.39,0,0,0,.06-.19l.14.27a2.67,2.67,0,0,0,1.79.57c.54.2,1.22.27,1.26,0,.51-3.37-.38-6.6-.67-10-.06-.77-.53-2.2-.54-3,0-.61-1.23-.33-1.22,0,0,1.5.19,3,.34,4.49-.41-.09-.83-.07-1,.14s-.11.18-.16.27h0a5.11,5.11,0,0,0-.27.64c-.29-1.17-.6-2.31-.77-3.37,0-.3-.79-.54-1.33-.57-.35,0-.61,0-.58.23.27,1.67.88,3.52,1.2,5.35h0q.12.65.18,1.29h0c-.2.81-.34,1.63-.5,2.44h-.06a5.82,5.82,0,0,1,0-1.56c.06-.43-.35-.76-.8-.9a26.91,26.91,0,0,0-.67-5.35c-.05-.19-.1-.38-.17-.57-.12-.34-1.89-.79-1.92-.44a11.87,11.87,0,0,0,0,1.46c-.41-1.32-1.54-2.81-1.87-4.14C15.58,226,14.35,225.9,14.53,226.63Z"/><path class="cls-46" d="M24.74,241.1c.09.13.17.25.26.36s.19.21.28.3a1.68,1.68,0,0,0,.21.18h1.74v0l.08,0h.45A3.85,3.85,0,0,0,29,240.06c1.19-3.48.67-6.48.46-10h0c-.06-1.06-.66-2.86-.75-3.93,0-.55-.89-.77-.83-.11.07.9.15,1.81.23,2.73l0,.44h0a34.24,34.24,0,0,1,.1,4.64h0a17.07,17.07,0,0,1-.36,2.77,18.77,18.77,0,0,1-.81,3,6.66,6.66,0,0,1-.57,1.28.89.89,0,0,0-.12.24C26,240.67,24.33,240.48,24.74,241.1Z"/><path class="cls-46" d="M29.78,241.24a.79.79,0,0,0,.44.7h1.44a.48.48,0,0,0,.06-.18c.18-2.34,1.29-4.41,2-6.6a11.26,11.26,0,0,0,.52-2.53c.06-.88-1-1.19-1.11-.36a12.81,12.81,0,0,1-.91,2.81h0C31.72,236.55,30,238.34,29.78,241.24Z"/><path class="cls-46" d="M66,230.15a23.53,23.53,0,0,1,5.6,14.58c0,.9-1.93.53-1.95-.21-.08-5-1.17-10.27-4.44-14.18C64.45,229.43,65.52,229.58,66,230.15Z"/><path class="cls-46" d="M57.92,234.69c.51.91,1.78,1.68,2.31,2.59a2.17,2.17,0,0,1,.78.23,11.84,11.84,0,0,1-1.72-6c0-.45,1.67.16,1.83.33,2.66,2.79,2.77,7.41,5.05,10.39a8.83,8.83,0,0,0-.24-1.82c-1.32-2.55-2.4-5.21-3.63-7.81-.14-.32,1.68-.14,1.9.34.8,1.77,2.08,3.77,3,5.84.55,0,1.52.21,1.56.62.12,1.28.25,2.53.48,3.79.06.31-.57.25-1.12.07A6.8,6.8,0,0,1,68,244c-.1.45-1.51-.1-1.71-.23a7.73,7.73,0,0,1-.76-.6,2.25,2.25,0,0,0,.08.24c.14.46-1.25.05-1.7-.17.12.62-1.53.53-1.92-.05-1.85-2.74-3.5-5.61-5.12-8.5C56.33,233.8,57.54,234,57.92,234.69Z"/><path class="cls-46" d="M49.36,241c0-.24,0-.47-.08-.7-.08-.45.55-.5.85-.48A6.24,6.24,0,0,1,53.06,241c-.3-.58-.68-1.13-1-1.71-.46-.92,1.35-.55,1.69-.23a14,14,0,0,1,1.82,2.22c-.34-1.55-1.26-3-1.19-4.66,0-.71,1.51-.16,1.75.06A7.57,7.57,0,0,1,57.25,238a1.14,1.14,0,0,1,.51.29,18.74,18.74,0,0,1,2,3.36c.13.29-.37.31-.65.29.2.51.39,1,.6,1.52.38.91-1.55.71-1.82.08-.06-.16-.13-.32-.19-.49a3.68,3.68,0,0,1-.06.58c-.13.59-1.28.3-1.57.07a5.7,5.7,0,0,1-.64-.56c-.28.37-1.18.13-1.49-.06-.83-.51-1.66-1.39-2.59-1.85,0,.17,0,.34,0,.5.08.58-.78.49-1.11.43l-.62-.13C48.63,241.83,48.67,241.1,49.36,241Z"/><path class="cls-46" d="M2.26,253.81c.51.78,1.07,1.51,1.64,2.23l1.26,1.6a1.76,1.76,0,0,0,1,.37l.62.9a2.24,2.24,0,0,0,1.6.38c.11,0,.17-.11.11-.23l-.16-.32,0,0q-.53-1-1.14-1.95c.55.18,1.23.29,1.09-.13a20.33,20.33,0,0,0-.92-2.27c.72,1.13,1.38,2.32,2,3.51.25.45,2,.74,1.78.27,0-.1-.09-.19-.13-.28.44.18,1.07.31,1.25.13.17.28.34.55.53.81s1.83.78,1.71.14c0-.16-.07-.33-.11-.5a2.81,2.81,0,0,0,1.11.37,10.87,10.87,0,0,0,.58,1.59h2.77v0a.59.59,0,0,0,.16-.07l.08.1h1.57A8.08,8.08,0,0,0,22.08,256c0-.38-.42-.65-.82-.73a.71.71,0,0,0-.2,0,.89.89,0,0,0-.41.06A3.91,3.91,0,0,0,18.87,257c0-1.35,0-2.7-.16-4a.46.46,0,0,0-.08-.24c.58,0,1.08-.35.62-.92a5.54,5.54,0,0,1-.57-.8,1.1,1.1,0,0,0-1.21-.36.54.54,0,0,0-.2.1.46.46,0,0,0-.17.14l0,0c0-.65.08-1.28.11-1.93,0,0,0,0,0-.06.27-1.86.57-3.71.69-5.51,0-.24-.32-.46-.7-.59,0,0,0-.07,0-.1-.13-.31-.26-.62-.4-.92s-.16-.41-.25-.6a1.12,1.12,0,0,0,.24.08c0-.21,0-.4,0-.6.37,0,.66-.19.56-.57-.05-.22-.13-.43-.19-.65a2,2,0,0,0,.41.13c-.25-.89-.52-1.77-.82-2.64-.12-.36-.25-.73-.38-1.09q-1-2.94-2.38-5.78c-.46-1-1.52-1.87-2-2.82-.37-.69-1.61-.75-1.14.14.74,1.39,1.44,2.81,2.07,4.25.27.6.52,1.2.76,1.81.11.25.21.5.31.75H13.6a16.4,16.4,0,0,1-1.12-2.67,6.25,6.25,0,0,1-.16-.62c-.11-.44-1.86-.71-1.78-.32a18.71,18.71,0,0,0,1.72,4.16,2.53,2.53,0,0,1,.12.23l-.07-.07c-.2-.2-.41-.39-.63-.58a1.6,1.6,0,0,0-.19-.11,2.45,2.45,0,0,0-1.1-.13h0a3.1,3.1,0,0,0-.72-.21c-.47-.1-1-.14-.85.07s.09.18.15.26c.18.33.39.66.6,1a5.07,5.07,0,0,0,.36.54c.45.67.9,1.32,1.31,2-.38-.36-.75-.73-1.16-1.07l0,0c-.3-.26-2-.5-1.62-.13l.08.09A9.64,9.64,0,0,1,11.44,241h0s0,.05,0,.07a.59.59,0,0,0,.34.28v.25c-.19-.2-.38-.4-.55-.61-.47-.52-.91-1-1.33-1.6A2,2,0,0,0,8.56,239c-.28,0-.44.13-.27.34a29.9,29.9,0,0,0,3.56,3.9c.05.78.13,1.56.22,2.34a15,15,0,0,0-2.14-4.12c-.16-.23-1.7-.8-1.71-.25A18.24,18.24,0,0,0,9,246.86c-.24-.42-.49-.83-.77-1.24-.17-.24-1.74-.78-1.73-.26a11.64,11.64,0,0,0,.24,1.88c0,.24.1.49.16.72h0c.13.51.29,1,.46,1.52-.21-.29-.41-.59-.64-.86s-1.88-.8-1.71-.15a15.12,15.12,0,0,0,.61,1.87c-.31-.2-1.7-.6-1.54,0,0,.16.09.34.14.51a.6.6,0,0,1,0,.16h0c.17.52.37,1,.59,1.51a7.67,7.67,0,0,0-1.06-1c-.17-.14-1.86-.57-1.58,0,.37.7.79,1.39,1.22,2.06C3,253.41,1.9,253.27,2.26,253.81Zm12-9.57a18,18,0,0,0-.65-3,1.09,1.09,0,0,1-.05-.17c0-.14-.29-.29-.58-.41-.07-.2-.17-.39-.26-.59.51.16,1.28.33,1.18,0a11.54,11.54,0,0,0-1.47-2.86c.11.09.23.16.34.26a21.24,21.24,0,0,1,1.33,2.26c.31.57.59,1.17.85,1.76a2.56,2.56,0,0,0,.11.24.25.25,0,0,0,0,.27l.35.58a1.14,1.14,0,0,0,.63.34,38.74,38.74,0,0,0-.75,6c-.12.82-.23,1.66-.31,2.48-.06-.46-.12-.92-.17-1.39C14.67,248.08,14.59,246.15,14.3,244.24Zm-3.44,3.35a20.43,20.43,0,0,1-.58-2.43c.28.78.52,1.58.74,2.4s.33,1.39.49,2.09C11.28,249,11.05,248.28,10.86,247.59Z"/><path class="cls-47" d="M33.17,259.66a5,5,0,0,1-.67.16,2.39,2.39,0,0,1-.13.28H30.9a1.83,1.83,0,0,1-.28-.14h-.2a1.94,1.94,0,0,1-1.29-.48c-.31-.34.27-.4.48-.4a10.49,10.49,0,0,0,1.12-.05l.12-.12c.43-.32,1.17-.11,1.63,0C32.65,258.94,33.81,259.47,33.17,259.66Z"/><path class="cls-47" d="M28.71,257.46c-.31-.14-.8-.64-.46-1a28.44,28.44,0,0,0,2-3c.53-.73,2.37,0,1.77.85a26.51,26.51,0,0,1-2,3A1.11,1.11,0,0,1,28.71,257.46Z"/><path class="cls-47" d="M7.27,256.87a2.23,2.23,0,0,1,.17.73,1.21,1.21,0,0,1,0,.19c-.29-.05-.57,0-.67.13a.44.44,0,0,0-.07.5l0,0c-.28.3.2.64.44.75.5.22,1.4.4,1.79-.15a.73.73,0,0,0,0-.09.93.93,0,0,0,.68.46c.17.22.34.44.49.67h1.55c-.26-.36-.53-.71-.81-1.06,0-.07-.1-.13-.15-.2s.07-.24.09-.35l0,0a1.76,1.76,0,0,0,.14.23,1.27,1.27,0,0,0,1.4.24,1.36,1.36,0,0,0,1.31.41,4.54,4.54,0,0,0,1,.71h1.59a1.49,1.49,0,0,0,.09-.3,1.78,1.78,0,0,0,1.15.12,1,1,0,0,0,.22.18h3.2v0a.52.52,0,0,0,.15-.07l.08.09h1.68a8.2,8.2,0,0,0,.5-.87,1.77,1.77,0,0,0,.9.25c.39.28,1.27.52,1.47.29s.13-.19.19-.28a3.68,3.68,0,0,0,.64.61h2.29a1.65,1.65,0,0,0-.39-.09,1.56,1.56,0,0,1-1.15-.85l0,0V258c.26.05.62.09.66-.09s-.64-.46-.79-.49a2.78,2.78,0,0,0-.64-.12c-.46-.11-.95-.11-.95,0v.11a1.44,1.44,0,0,0-.41.3,4.16,4.16,0,0,0-.5.61,1.69,1.69,0,0,1,.68-1.35c.31-.24-.32-.6-.47-.66l-.25-.08c.05-.1.09-.2.14-.31.4.15.88.21,1,0a27.59,27.59,0,0,1,2-2.78c.26-.24-.6-.67-1.19-.71a2.16,2.16,0,0,0-.39-.26,1.25,1.25,0,0,0-1.13,0c-.11.08-.23.14-.33.22-.32.24.32.6.46.66a2.45,2.45,0,0,0,.41.11c-.35.46-.62,1-.94,1.45-.46-.22-1.16-.27-1.33.1-.05.13-.11.25-.16.38-.16.34-.3.69-.44,1,.07-.35.15-.71.25-1.06.53-2,1.42-4.07,2-6,.17-.59-1.33-1-1.66-.56a11.32,11.32,0,0,0-1.4,2.3c.23-2.37.4-4.73.4-7.11v-.51a.48.48,0,0,1,0-.12c0-.53-1.58-.92-1.73-.34-.57,2.45-.65,5.26-1,7.95,0,.39-.1.78-.18,1.17,0-.36,0-.71,0-1.08,0-.58,0-1.16-.07-1.75-.1-2.27-.3-4.55-.39-6.82,0-.17,0-.33,0-.5s0-.38,0-.57c.35,0,.63-.18.54-.55-.05-.21-.13-.4-.19-.62a1.88,1.88,0,0,0,.4.13h.29a.69.69,0,0,0,.29-.07.93.93,0,0,0,.35,0,.25.25,0,0,0,0,.07c.13.44,1.37.68,1.65.43.13.45.23.91.38,1.36a.53.53,0,0,0,.11.21.9.9,0,0,0,.46.28,1,1,0,0,1,.92-.55h.18a1.1,1.1,0,0,0,0-.18s0-.09,0-.14a.68.68,0,0,0,.72-.34h.16a1.52,1.52,0,0,0,.78.24H26l.09.08a1.28,1.28,0,0,0,0,.19v.16h1.74v0l.07,0h5.23a.48.48,0,0,0,.12-.16c.09-.2.16-.42.25-.62a1.47,1.47,0,0,0,0,.55.58.58,0,0,0,.09.23h2.69l.59-.26a.41.41,0,0,0,0,.08c-.11.39,1.6.85,1.71.47a2.76,2.76,0,0,1,.62-1.17c.26-.27-1.32-.89-1.62-.58-.09.1-.15.22-.23.32a1.16,1.16,0,0,0-1.23-.4l-.24.12a2.8,2.8,0,0,1,.66-1.46c.25-.27-1.34-.88-1.63-.57a3,3,0,0,0-.66,1.25.54.54,0,0,0-.31.2c.38-1.13.71-2.29,1.2-3.38.29-.65-1.05-1.11-1.57-.64a.49.49,0,0,0-.15.19c-.05.11-.09.24-.14.36a1.46,1.46,0,0,0-1-.28.84.84,0,0,0-.46-.47h0a1.26,1.26,0,0,0-.5-.15,13.05,13.05,0,0,0-.92-4.69h0a2.77,2.77,0,0,0-.1-.26c-.14-.35-1.25-.52-1.6-.42-.07,0-.1,0-.09.1s.08.2.12.29h0a12.87,12.87,0,0,1,.85,3.69c-.26,0-.48,0-.58.17a1.51,1.51,0,0,0-.18.26h0a5.29,5.29,0,0,0-.51,1h0a1.54,1.54,0,0,0-.53-.26v-3.41c0-.28-.38-.5-.78-.61s-.93-.09-.93.15v2.84l-.16,0c0-.11,0-.2,0-.3,0-.43-.89-.72-1.39-.59a1.18,1.18,0,0,0,0-.27h0c-.11-1.09-.25-2.2-.46-3.28-.16-.78-1.9-1-1.74-.13a4.21,4.21,0,0,1,.09.49,43.33,43.33,0,0,1,.56,4.95h0c0,.42.05.83.07,1.25-.32-1.45-.63-2.88-1-4.31a.85.85,0,0,0-.72-.54c-.52-.08-1.1.16-.94.78.54,2,.95,4,1.4,5.94-.23-.79-.46-1.59-.71-2.39-.12-.38-1.11-.62-1.52-.5a35.39,35.39,0,0,0-1.64-4.1.87.87,0,0,0-.45-.35c-.42-.16-1-.17-1.15.06a.31.31,0,0,0,0,.37,30.47,30.47,0,0,1,1.46,3.67c-.42-.1-.85-.06-.85.16v.23a.56.56,0,0,0,0,.12,1.24,1.24,0,0,0-.69-.16c0-.14-.07-.29-.11-.43s-.1-.48-.16-.72c-.09-.45-.18-.9-.24-1.35,0-.17-.23-.3-.48-.38a1.64,1.64,0,0,0-.38-.1c-.44-.08-.88-.07-.87,0a24.13,24.13,0,0,0,.66,3.06.88.88,0,0,0,0,.15c.09.4.22.8.33,1.2a4,4,0,0,0-1-1.32,5.07,5.07,0,0,0-.09-.54,11.21,11.21,0,0,0-.31-1.42c-.15-.53-1.86-.79-1.71-.25a10.07,10.07,0,0,1,.27,1.35c0,.07,0,.15,0,.23a3.68,3.68,0,0,0-.64.07h-.07c-.31.09-.34.4-.1.63A1.37,1.37,0,0,0,12,236l.27,0c0,.16.05.32.07.49s.09.6.14.89a8.71,8.71,0,0,0,.6,2,5.79,5.79,0,0,0-2.1-2.07l-.2-.11c-.16-.08-1.36-.32-1.18.2A8,8,0,0,0,11,239.58l.18.23a1.34,1.34,0,0,0,.89.44c.17.26.35.53.55.79a1.51,1.51,0,0,0,1,.44h.19c.24,0,.68-.12.43-.45s-.29-.39-.42-.6a2.34,2.34,0,0,0,.4.37,1.35,1.35,0,0,0,.54.18c0,.06,0,.13.05.17a1.49,1.49,0,0,0,1.1.6c.35.05.64,0,.62-.4a5.21,5.21,0,0,0-.15-1.05,3.39,3.39,0,0,0,.77.15c0,.51,0,1,0,1.54,0,.93.09,1.87.15,2.8a2.8,2.8,0,0,0-.81-.18c-.27,0-.48,0-.49.08-.18,2.59.47,5.22.51,7.81a39.46,39.46,0,0,1-.79-4.18c-.07-.62-1.34-.89-1.65-.45a1.51,1.51,0,0,0-.72-.09.37.37,0,0,0-.15,0,.43.43,0,0,0-.32.45c.05.7.13,1.4.24,2.08-.1-.22-.19-.44-.29-.67s-.86-.54-1.33-.52a9.93,9.93,0,0,0-.86-1.32,2,2,0,0,0-1.42-.36c-.19,0-.26.12-.14.28s.2.27.3.41h0a14.86,14.86,0,0,1,1.62,3.3.38.38,0,0,0-.23.47c.1.46.23.91.35,1.37-.11-.21-.21-.42-.33-.63a1.48,1.48,0,0,0-1.43-.46,10.47,10.47,0,0,0-.94-1.06c-.26-.27-1.5-.43-1.6-.23,0,0,0,.09,0,.15v0a12.17,12.17,0,0,1,1.81,2.29,1.18,1.18,0,0,0-.92.11c-.54.3-.14.77.4,1h0c.37.14.77.93,1,1.41,0,.43,0,.86,0,1.29L8.92,257a1.82,1.82,0,0,0-2.21-1.09.59.59,0,0,0-.14.06.34.34,0,0,0,0,.6,1.34,1.34,0,0,0,.73.34Zm11.08.88a.4.4,0,0,0,.13-.24c.05-.32.08-.64.12-1h.12a7.31,7.31,0,0,0,0,1.48.32.32,0,0,0-.14.51.93.93,0,0,0,.28.28h0a8.34,8.34,0,0,1-.16.87h-.12C18.54,259.05,18.43,258.4,18.35,257.75Zm-.76-23.1a14.07,14.07,0,0,0-1.17-1.79,2.33,2.33,0,0,0,1,.27v0a.88.88,0,0,0,.51.47,2.16,2.16,0,0,0,.66.18,1.34,1.34,0,0,0,.55-.05c.24.78.47,1.55.7,2.33l-.12,0a3.49,3.49,0,0,0-.39.19,1,1,0,0,0,0-.1c-.12-.31-.21-.62-.32-.93a.31.31,0,0,0-.1-.15h0a1.07,1.07,0,0,0-.52-.31A2.21,2.21,0,0,0,17.59,234.65Z"/><path class="cls-48" d="M28.69,238l-.12,0a.55.55,0,0,1,0,.18A.71.71,0,0,1,28.69,238Z"/><path class="cls-48" d="M28.65,238.4l-.06-.05v0h.06Z"/><path class="cls-48" d="M16.83,237.39c-.08-.26-.15-.51-.24-.75Z"/><path class="cls-47" d="M2.88,256.82a1.1,1.1,0,0,1,1.32-.18c.33.16.78.68.44,1.06a2.59,2.59,0,0,0-.54,1.19c-.24,1-2.17.44-1.93-.51A3.43,3.43,0,0,1,2.88,256.82Z"/><path class="cls-49" d="M53.91,242.86c.15.19.31.38.48.56a1.13,1.13,0,0,0,1.17.3.49.49,0,0,0,.22-.82c-.13-.13-.24-.26-.36-.39h0l.33-.06a1.1,1.1,0,0,0,.26.15.84.84,0,0,0,.2.18,2.44,2.44,0,0,0,.5.21,1.32,1.32,0,0,0,.58.79.94.94,0,0,0,.22.12h1c.24-.15.17-.38,0-.56a.53.53,0,0,0-.15-.15h0a1.67,1.67,0,0,0,.38,0l.32.1a5.08,5.08,0,0,1,1.19.59h2.17a.19.19,0,0,0,.07-.17l0-.15c.47.18,1.1.33,1.1,0a5.63,5.63,0,0,0,0-.58,1.8,1.8,0,0,0,0-.22,2.81,2.81,0,0,0,.62.05.59.59,0,0,1,0,.13.43.43,0,0,0,0,.12h0a1.38,1.38,0,0,0,1.37.43,1,1,0,0,0,.47.37H67a1.1,1.1,0,0,0,.14-.09.18.18,0,0,0,0,.09H70.3q0-.51-.12-1a.92.92,0,0,0,.65-.09.85.85,0,0,0,.42,0,.42.42,0,0,0,.37-.36,25.25,25.25,0,0,0-.2-6.67c-.11-.74-1.79-1-1.68-.14a.06.06,0,0,0,0,0h0c.09.62.15,1.22.21,1.83a1.58,1.58,0,0,0-.7-.24,17.4,17.4,0,0,0-2-4.72,1.36,1.36,0,0,0-1.12-.41c-.38,0-.64.17-.44.51a16.34,16.34,0,0,1,1.88,4.54c-.3,0-.51.17-.44.47s.22.83.35,1.25c.17.61.35,1.21.51,1.81a.7.7,0,0,0-.25.17,2,2,0,0,0-.4.71,14.93,14.93,0,0,0-.75-4.49h0s0,0,0,0c-.1-.46-.2-.91-.26-1.35,0-.19-.35-.36-.71-.44s-1-.09-.92.17a20,20,0,0,0,.51,2.34v0c.13.51.26,1,.35,1.55a.9.9,0,0,0-.37-.25h0a1.81,1.81,0,0,0-.31-.09,22.34,22.34,0,0,0-1.65-4.8,1.59,1.59,0,0,0-.15-.29.46.46,0,0,0-.16-.18,0,0,0,0,0,0,0c-.51-.38-1.74-.38-1.39.29a22.74,22.74,0,0,1,1.93,5.8,17.15,17.15,0,0,0-.86-2.19,1.39,1.39,0,0,0-.68-.39h0a2,2,0,0,0-.66-.14c-.17,0-.29.05-.3.18a4.85,4.85,0,0,0,0,.66,12.11,12.11,0,0,0-.83-1.91,2.09,2.09,0,0,0-1.44-.5c-.14,0-.23.1-.2.23.22.9.53,1.77.84,2.65.4,1.05.81,2.1,1.11,3.17,0-.1-.13-.17-.28-.24a10.16,10.16,0,0,1-.66-2.27c-.09-.67-1.77-.93-1.66-.16a7.16,7.16,0,0,0,.34,1.4,1.62,1.62,0,0,0-.58-.18h-.29a.75.75,0,0,0-.34.1.21.21,0,0,0-.09.26.19.19,0,0,1,0,.07,1.55,1.55,0,0,0-.23-.06,7.48,7.48,0,0,0-.42-1,1,1,0,0,0-1.06-.52.66.66,0,0,0-.56.42h0a.47.47,0,0,0,0,.3,8,8,0,0,1,.34.8h0c0,.09.06.16.09.26-.32,0-.58,0-.57.1a1.93,1.93,0,0,1,0,.48h0a1,1,0,0,0-.61-.23h0a1,1,0,0,0-.58.12,2.24,2.24,0,0,0-.61.45,1,1,0,0,0-.15.2C52.21,242.58,53.33,243.14,53.91,242.86Zm11.75-.58a1.18,1.18,0,0,0,.36.24,1.72,1.72,0,0,1-.23.32C65.74,242.65,65.7,242.47,65.66,242.28Zm0-2s0,0,0,0v0A4.88,4.88,0,0,1,65.6,242l-.3-1.35A.52.52,0,0,0,65.71,240.24Zm-5.2,1.41c.11.39.2.78.28,1.18l-.31-.15A1.42,1.42,0,0,0,60.51,241.65Z"/><path class="cls-47" d="M8.6,239.14c-.25.57-2.14,0-1.93-.52,0,0,.12-.21.08-.26-.28-.35.24-.45.49-.44a1.81,1.81,0,0,1,1.28.49A.6.6,0,0,1,8.6,239.14Z"/><polygon class="cls-50" points="107.04 72.09 107.69 74.46 109.11 76.08 110.53 75.23 111.14 72.89 111.42 72.31 111.22 71.31 108.25 71.31 107.04 72.09"/><polygon class="cls-51" points="106.18 72.39 106.86 74.4 108.36 75.77 109.87 75.06 110.51 73.07 110.81 72.58 110.59 71.72 107.53 71.94 106.18 72.39"/><polygon class="cls-52" points="108.87 78.5 109.82 77.96 109.95 77.49 108.83 75.11 108.87 78.5"/><polygon class="cls-53" points="85.9 71.12 86.42 75.88 86.5 76.66 87.44 78.78 90.7 82.78 90.99 84.17 90.17 88.4 89.33 89.92 90.82 91.93 93.39 93.42 98.25 94.79 104.68 95.61 102.93 91.27 102.95 89.47 103.22 88.28 104.46 87.75 107.04 88.02 108.43 85.73 109.47 79.56 109.25 75.47 108.28 73.42 108.78 71.82 106.56 66.31 106.35 65.78 106.37 65.75 106.95 65.01 106.87 64.94 104.03 62.66 99.67 61.25 95.9 61.44 92.03 62.93 90.6 63.48 86.87 67.34 85.9 71.12"/><polygon class="cls-54" points="72.57 235.19 74.8 236.65 77.23 236.7 80.42 236.28 84 222.13 86.12 215.59 87.91 209.87 89.02 203.69 90.6 200.53 93.95 191.94 97.76 181.72 98.89 185.68 100.92 193.21 100.92 195.61 100.06 200.15 98.42 207.85 98.42 214.18 99.36 222.97 99.58 236.6 104.06 237.48 107.47 237.48 109.36 237.06 114.85 203.69 115.78 199.46 116.28 194.01 117.51 170.03 117.12 161.72 115.81 154.33 115.21 153.45 112.99 155.4 105.7 156.04 98.99 156.31 79.45 153.3 77.6 160.27 77.15 167.74 78.5 180.17 77.76 193.15 74.1 203.77 73.37 209.62 73.44 215.68 73.23 222.33 72.57 235.19"/><polygon class="cls-55" points="100.42 242.42 100.09 246.09 102.19 250.78 106.17 250.96 115.38 250.96 118.22 250.23 120.05 248.35 120.05 247.07 116.09 245.82 111.12 243.08 109.28 241.88 108.74 239.79 108.8 237.18 107.47 237.48 104.06 237.48 100.09 236.7 100.42 242.42"/><polygon class="cls-55" points="71.35 246.63 74.08 247.75 79.23 246.47 86.15 247.44 89.07 247.13 88.64 246.58 87.31 244.85 88.49 243.76 83.66 241.58 80.95 240.14 80.25 238.39 80.25 236.31 77.02 236.65 74.8 236.65 72.84 235.35 72.53 239 71.42 243.45 71.35 246.63"/><polygon class="cls-53" points="118.31 117.06 120.19 115.89 123 115.59 126.39 118.07 127.74 120.43 128.03 118.6 127.28 115.59 125.22 113.87 122.39 113.02 119.57 113.41 119.43 113.6 118.44 114.84 119.11 115.89 118.31 117.06"/><polygon class="cls-56" points="76.19 108.34 75.73 112.13 76.99 123.32 78.36 129.84 78.97 134.91 79.17 136.61 79.39 138.42 79.39 142.32 78.13 150.09 78.59 151.35 79.45 153.3 98.99 156.31 105.7 156.04 112.99 155.4 115.21 153.45 115.81 152.92 115.38 150.31 115.38 142.66 116.2 134.06 118.2 132.36 126.15 125.65 127.18 124.71 128.03 120.92 127.74 120.43 126.39 118.07 123 115.59 120.19 115.89 118.31 117.06 118.3 117.07 115.38 118.87 114.97 117.55 114.45 112.73 113.94 110.1 113.71 109.41 112 104.18 111.58 102.93 111.53 102.82 109.94 97.13 108.45 95.71 106.41 95.09 104.95 94.22 103.86 93.58 103.85 93.57 102.8 92.95 99.35 90.9 96.09 88.99 92.78 88.28 91.86 88.35 89.96 88.52 87.14 89.7 83.83 90.18 81.56 90.51 79.39 92.45 76.19 99.64 75.16 106.49 76.19 108.34"/><polygon class="cls-57" points="112 104.18 113.71 109.41 113.94 110.1 114.45 112.73 114.97 117.55 115.38 118.87 118.3 117.07 118.31 117.06 119.11 115.89 118.44 114.84 119.43 113.6 117.74 112.13 116.63 112.13 115.84 112.35 114.89 109.72 112.72 105.88 112.2 104.51 112 104.18"/><polygon class="cls-58" points="99.85 244.52 99.59 250.1 101.47 251.24 106.67 251.38 115.49 251.11 120.44 250.11 121.61 248.57 121.61 247.19 116.89 245.76 112.39 243.46 109.69 241.74 109.16 242.65 108.45 244.19 106.27 245.05 104.02 244.86 101.8 243.88 99.85 243.7 99.85 244.52"/><polygon class="cls-59" points="70.95 246.67 73.05 247.75 79.56 248.22 87.14 247.99 91.64 247.14 91.95 246.2 90.98 244.34 89.57 243.75 84.29 241.86 81.65 240.14 81.65 240.14 80.98 239.92 80.76 240.15 79.76 240.59 76.67 241.18 74.05 240.15 73.47 239.94 72.6 239.63 71.88 240.15 71.13 243.42 70.95 246.67"/><polygon class="cls-60" points="104.46 93.92 103.76 91.99 100.4 88.62 95.94 86.34 91.06 85.35 86.18 85.04 85.11 86.34 85.65 87.44 83.45 88.62 83.45 90.13 87.13 91.58 89.38 91.45 94.42 92.28 100.69 92.89 104.46 93.92"/><polygon class="cls-61" points="86.6 90.42 86.37 87.24 85.79 86.34 82.61 84.95 79.19 84.69 76.97 85.31 75.85 86.53 75.16 89.14 76.54 89.06 77.18 87.24 77.94 86.64 79.7 86.41 82.36 86.76 84.07 87.47 84.55 87.89 84.8 89.88 86.6 90.42"/><polygon class="cls-62" points="104.44 106.49 105.48 110.97 110.11 109.4 113.71 109.4 113.48 108.72 112.27 105.01 111.99 104.17 104.74 105.41 104.44 106.49"/><polygon class="cls-63" points="105.36 106.65 106.31 109.82 110.58 108.72 113.48 108.72 112.27 105.01 105.64 105.88 105.36 106.65"/><polygon class="cls-64" points="102.26 67.39 101.59 72.08 102.26 75.77 101.14 76.15 100.92 75.77 99.93 74.09 98.04 73.97 97.13 75.12 97.13 76.49 97.39 79.41 96.64 81.26 94.9 82.44 91.82 83.84 90.97 83.43 90.42 82.44 87.44 78.78 86.5 76.66 86.15 73.17 102.26 67.39"/><polygon class="cls-65" points="85.4 71.86 85.9 74.64 86.42 75.88 87.72 76.87 90.43 74.94 93.18 72.29 97.98 70.94 98.07 70.87 98.08 70.86 103.08 66.71 106.11 66.02 106.35 65.78 106.37 65.75 107.25 64.85 107.25 62.82 106.42 60.84 104.42 59.37 102.62 58.91 99.91 58.91 98.31 59.37 98.79 59.83 98.6 60.33 95.43 61.06 91.58 62.36 88.09 64.88 86.21 67.85 85.4 71.86"/><polygon class="cls-66" points="100.53 75.11 107.53 73.53 107.53 72.89 108.78 71.83 108.27 73.42 109.24 75.48 109.32 77.2 108.64 75.54 107.95 74.9 107.04 74.5 100.92 75.77 100.53 75.11"/><polygon class="cls-50" points="111.3 71.31 100 74.19 100.18 74.51 100.41 74.9 111.42 72.46 111.3 71.31"/><polygon class="cls-64" points="102.26 75.77 101.14 76.15 101.14 80.21 101.59 82.09 102.67 84.38 103.16 87.24 103.22 88.28 103.05 89.02 104.05 88.5 104.46 88.84 104.85 88.61 105.53 89.02 105.99 88.81 105.99 89.48 106.76 88.93 106.65 89.48 107.82 88.01 107.53 88.73 108.59 87.01 108.99 84.44 109.25 82.92 109.46 82.98 109.46 82.65 109.67 82.67 109.84 79.84 109.4 78.42 108.75 79.84 108.16 80.21 107.25 80 105.71 80.55 103.45 78.43 102.26 75.77"/><polygon class="cls-67" points="103.13 87.24 103.19 88.28 103.03 89.02 104.02 88.5 104.44 88.84 104.82 88.61 105.51 89.02 105.97 88.82 105.97 89.48 106.73 88.93 106.63 89.48 107.8 88.01 107.5 88.72 108.56 87.01 108.75 85.85 108.4 86.38 108.13 86.65 108.13 85.85 107.5 86.38 107.01 86.38 107.22 85.59 106.53 86.04 106.8 85.24 105.97 85.5 104.97 86.04 104.78 85.35 104.1 86.04 104.1 84.71 103.45 83.33 101.14 80.21 101.59 82.09 103.13 87.24"/><polygon class="cls-68" points="95.53 99.57 98.64 95.39 101.59 94.47 104.1 94.5 106.34 95.05 105.25 93.92 103.91 93.21 100.73 92.39 98.19 92.39 95.15 93.16 92.7 95.61 95.53 99.57"/><polygon class="cls-68" points="101.47 122.59 99.2 127.48 97.38 130.38 96.12 131.29 96.3 140.63 99.59 135.38 101.34 132.87 103.14 129.79 102.85 129.36 101.47 122.59"/><polygon class="cls-69" points="65.64 104.95 68.36 110.17 68.15 118.43 69.28 131.61 69.79 136.48 70.36 142.2 73.05 146.71 83.5 149.06 92.81 149.2 95.91 145.07 96.25 141.43 96.5 136.82 96.56 132.21 95.87 125.23 95.01 111.49 96.21 98.42 94.78 96.72 89.15 91.55 85.06 89.24 75.32 89.48 71.58 89.28 66.42 96.72 65.64 104.95"/><polygon class="cls-70" points="95.35 100.12 95.01 99.57 90.43 103.08 88.44 106.91 86.32 113.93 85.28 119.4 84.89 124.49 84.89 132.3 85.42 138.02 87.29 144.07 88.61 145.81 93.52 147.15 95.04 145 95.7 140.63 95.7 130.02 95.01 120.07 94.07 110.97 92.7 109.72 94.07 110.06 95.07 102.65 95.35 100.12"/><polygon class="cls-71" points="89.81 174.28 92.32 177.31 92.21 181.6 91.3 189.55 90.84 196.98 90.6 200.53 93.95 191.94 94.47 190.55 97.76 181.72 95.98 177.71 93.92 174.68 89.75 172.85 88.66 171.94 89.81 174.28"/><polygon class="cls-72" points="93.07 92.71 86.6 98.47 82.55 110.06 76.2 113.02 72.54 112.52 69.4 111.29 67.1 108.42 65.64 104.95 66.04 96.52 71.01 88.9 74.72 88.75 79.35 88.75 85.06 89.24 92.44 91.47 93.07 92.71"/><polygon class="cls-53" points="102.98 66.79 98.07 70.87 102.98 68.11 102.98 66.79"/><polygon class="cls-73" points="82.14 121.09 82.31 132.87 80.38 136.04 79.35 136.19 72.57 135.53 68.76 134 67.56 130.87 67.75 121.63 82.14 121.09"/><polygon class="cls-74" points="82.33 119.91 77.38 119.59 72.65 118.98 69.11 118.29 67.39 117.86 67.55 121.36 68.08 123.78 70.32 124.52 72.68 125.13 77.29 125.55 80.88 125.07 81.83 122.99 82.33 119.91"/><polygon class="cls-75" points="68.36 110.17 68.34 110.91 68.96 111.84 71.28 113.01 74.37 113.6 77.69 113.25 83.72 109.82 88.07 98.96 91.78 95.6 91.72 93.91 87.16 97.96 86.6 98.47 82.54 110.06 76.2 113.01 72.54 112.51 69.4 111.29 68.09 109.65 68.36 110.17"/><polygon class="cls-68" points="79.26 104.92 76.12 104.94 74.72 117.93 74.72 130.76 75.22 131.75 76.53 131.75 77.31 130.69 77.23 122.41 78.18 111.94 79.26 104.92"/><polygon class="cls-68" points="68.64 104.42 67.19 104.28 67.02 111.51 67.13 119.71 67.39 124.62 68.11 130 68.56 129.95 68.76 127.55 68.45 120.05 68.36 111.54 68.64 104.42"/><path class="cls-76" d="M99.55,59.69l1.41.21,1.14.38.46.52v.51l-1.72-.41L97.9,62.16l-3,.88L92.72,64.3a8.23,8.23,0,0,0-2.88,3.91C89.3,70.43,89.1,66.1,91,64.4a18.59,18.59,0,0,1,3.53-2.55l-.84,1,4.76-2.12,1-.23.14-.44Z"/><polygon class="cls-69" points="94.14 123.09 94.38 128.92 93.9 133.6 92.83 135.48 88.72 135.48 87.69 134.97 86.18 131.1 86.45 127.44 86.47 122.37 94.14 123.09"/><polygon class="cls-74" points="94.42 121.02 94.69 124.5 88.1 124.58 85.9 124.26 86.22 120.69 94.42 121.02"/><path class="cls-77" d="M100.81,123.89l-.1,9,2.75,5.82,4.33,1.4-.56.54-2.44-.17-.23.95,1.86,1.69.71.65-.74,1.23-2.86,2.17h1.37l3.52-2.24.9.83,2.61,1,.18-.08.5-2.15-2.75,1,3-4.13,0,0a.42.42,0,0,1,.07-.13,1.36,1.36,0,0,1,.61-.44,4,4,0,0,0,1-.63c.38-.26.82-.42,1.22-.64l.51-5.4L113.93,136l-.18,0-3.64.57-3.7-1.6-3.53-5.61-1.41-6.78-1.38-4Z"/><polygon class="cls-78" points="115.38 118.87 115.71 120.16 116.36 122.07 116.51 125.23 117.73 121.65 117.73 120.43 118.31 120.85 118.84 122.59 119.18 120.12 118.95 118.33 120.19 115.89 115.38 118.87"/><polygon class="cls-79" points="89.83 158.57 79.29 155.03 70.73 153.95 68.53 152.52 67.06 150.65 66.7 147.09 67.35 143.94 69.02 142.72 72.75 143.13 92.43 145.06 89.83 158.57"/><polygon class="cls-80" points="97.3 148.53 95.75 146.55 92.18 145.1 88.69 145.92 86.69 148.8 86.01 153.47 87.68 156.79 89.94 158.6 94.23 158.49 97.46 154.93 97.92 150.62 97.3 148.53"/><polygon class="cls-74" points="83.48 144.19 81.53 145.68 80.92 147.11 80.23 150.23 80.56 152.83 81.71 155.04 83.53 156.46 84.1 156.65 83.68 156.8 81.09 156.25 79.61 155.14 78.38 152.85 77.87 150 78.06 148.18 78.68 146.16 79.53 144.85 80.75 143.92 81.34 143.64 82.99 143.5 84.61 143.85 85.05 144.34 83.48 144.19"/><polygon class="cls-74" points="73.79 143.24 71.99 144.48 71.41 145.75 70.72 148.54 70.97 150.88 71.95 152.89 73.56 154.19 74.06 154.38 73.68 154.5 71.36 153.96 70.07 152.93 69 150.85 68.61 148.28 68.82 146.65 69.41 144.85 70.21 143.69 71.32 142.88 71.86 142.65 73.34 142.56 74.78 142.91 75.17 143.35 73.79 143.24"/><polygon class="cls-75" points="96.41 150.82 95.89 149.03 94.89 147.48 92.12 146.44 89.22 147.19 87.89 149.66 87.48 153.64 88.53 155.97 90.5 157.61 93.11 157.54 94.67 155.97 95.84 153.74 95.44 151.47 94.3 149.58 93.17 148.94 91.39 148.47 90.28 148.78 89.26 150.18 89 153.05 89.27 154.38 89.94 155.42 91.82 155.89 93.71 154.27 93.87 152.46 93.01 150.79 91.9 150.33 90.4 152.05 92.24 151.24 92.67 151.99 93.04 153.1 91.94 154.59 90.45 154.13 89.81 153.07 90.03 150.79 91.01 149.47 91.81 149.29 93.19 149.6 94.01 150.28 94.81 151.94 94.81 153.45 93.91 155.52 92.52 156.58 90.65 156.62 88.98 155.13 88.3 153.46 88.58 150.02 89.58 147.97 92.14 147.16 94.61 148.05 95.48 149.08 96.41 150.82"/><path class="cls-81" d="M74.37,117.9v1l1.56.46h2l.38-3.12-3.71-.46Zm.39.07L75,116.3l1.08.15-.07.76.21.22.3-.18.12-.72,1.13.15-.25,2.26H76l-1.24-.36Z"/><path class="cls-81" d="M66.71,115.56l0,2.08.09,1,.9.38,1-.13,0-2.86Zm.31,2,0-1.44.49.12v.45l.16.27.17-.19v-.45l.56.13,0,2.11h-.69l-.63-.27Z"/><polygon class="cls-82" points="99.66 248.53 99.22 250.12 99.59 250.61 101.28 251.38 106.66 251.57 111.97 251.38 115.71 251.29 120.7 250.17 121.85 248.43 121.73 247.67 121.61 247.48 121.45 247.98 120.59 248.76 119.31 249.12 115.65 249.52 112.45 249.88 108.83 249.88 107.29 249.39 106.69 249.27 105.98 249.72 104.23 249.86 101.63 249.52 100.23 249.08 99.66 248.53"/><polygon class="cls-83" points="71.02 245.48 70.6 246.96 70.6 247.41 72.14 248.22 73.97 248.53 77.04 248.53 81.29 248.53 85.57 248.38 89.07 247.94 92.03 247.24 92.31 246.31 91.66 245.65 91.64 246.11 89.19 246.52 86.34 246.74 82.72 246.85 78.97 246.81 77.8 246.28 77.24 246.2 75.73 246.79 74.45 246.76 71.85 246.22 71.18 245.79 71.02 245.48"/><polygon class="cls-72" points="93.07 92.71 92.88 94.97 91.79 95.61 91.72 93.91 93.07 92.71"/><path class="cls-84" d="M99.22,250.12l.36.48,1.7.77,3.32.12v-3.38l.72-1.49,2.46-2.17a8.4,8.4,0,0,1-1.67-3.87,4.5,4.5,0,0,1,1-3.11h-3.09l-4-.77.33,5.72-.12,1.32-.44,0v.82l-.19,4Z"/><path class="cls-85" d="M70.6,247v.44l1.54.82,1.83.31h.56l.07-.67,0-.25.1-.85s.55-.24,1.56-1.82.91-1.85.38-3.77a4.41,4.41,0,0,1,.93-3.63l1.63-1.13-2.22.24H74.8l-2-1.3L72.53,239l-.2.82-.45.33-.75,3.26L71,245.47Z"/><polygon class="cls-86" points="97.13 75.54 96.69 76.56 96.98 77.93 97.26 78 97.09 76.42 97.13 75.54"/><polygon class="cls-87" points="100 80.21 98.79 80.21 97.39 79.41 97.26 77.66 97.14 76.49 97.13 75.12 96.69 76.43 96.69 77.89 96.98 79.52 98.62 80.52 100 80.21"/><polygon class="cls-88" points="100.3 76.16 99.61 74.97 98.48 74.74 97.94 75.37 97.76 77.2 97.85 78.15 98.66 78.86 99.38 78.55 99.18 78.09 98.78 77.5 99.03 76.78 99.68 76.78 99.84 76.19 100.3 76.16"/><polygon class="cls-89" points="86.2 67.85 88.08 64.88 91.57 62.36 93.38 61.75 91.92 62.56 88.83 65.14 87.45 68.2 86.92 71.21 87.44 72.7 87.54 72.83 87.82 71.51 88.02 72.77 89.47 73.11 92.26 70.66 98.07 67.65 97.68 69.49 100 67.66 102.32 66.02 106.87 64.94 107.25 64.85 106.37 65.75 106.35 65.78 106.56 66.31 105.55 66.52 103.39 67.68 101.71 68.28 101.71 68.28 98.07 71.31 96.98 73.11 95.67 74.51 95.49 75.18 95.49 76.33 95.17 78.5 96.29 81.5 95.49 82.09 96.98 86.06 96.97 86.06 100.4 88.62 95.94 86.34 92.58 85.65 92.58 85.66 91.17 85.37 90.77 85.33 91 84.17 90.75 83.04 90.42 82.44 87.44 78.78 86.49 76.66 86.42 75.88 86.41 75.88 85.9 74.64 85.4 71.86 86.2 67.85"/><polygon class="cls-90" points="96.11 99.57 95.01 111.49 95.82 125.01 96.45 131.04 97.56 130.22 96.76 124.81 95.7 112.03 96.29 113.6 96.56 113.43 95.99 108.48 96.11 99.57"/><polygon class="cls-91" points="77.23 166.42 78.44 162.13 80.75 160.96 83.01 160.65 88.07 161.33 93.74 160.58 95.93 158.72 97.47 156.07 98.07 155.03 98.59 150.65 98.31 148.69 96.85 145.83 97.08 144.92 97.25 141.91 97.51 138.69 96.3 140.63 96.25 141.43 95.9 145.07 95.03 146.25 95.75 146.54 97.3 148.53 97.92 150.63 97.46 154.93 96.55 155.93 94.23 158.49 89.94 158.6 89.84 158.52 89.83 158.57 84.1 156.65 83.68 156.8 81.09 156.25 79.62 155.15 79.29 155.03 78.99 155 77.6 160.27 77.23 166.42"/><path class="cls-92" d="M67.64,126.57v0l-.08,4.29,1.2,3.12.8.32.23,2.16.57,5.72.42.72L69,142.73,67.35,144l-.65,3.14.36,3.55,1.47,1.88,2.2,1.43,1.3.17h0l1.63.38.39-.12L79,155l-1.39,5.27-.46,7.47,1.34,12.43-.74,13-3.66,10.61-.72,5.86.08,6.05-.22,6.65-.66,12.86,2.14,1.41h2.08l.53,0-.52-1.94a20.68,20.68,0,0,1,2.64-8.81C82,221.46,83,213.91,83,213.91v-2l2.4-4.82,4.5-5.07.72-1.44L94,192l.52-1.4,3.29-8.82,1.13,4,2,7.53v2.4l-.86,4.53-1.64,7.71v6.33l.94,8.78.22,13.64,4.48.88h3.4l.76-.16-.34-3.85a82.73,82.73,0,0,0-1-9.68,28.17,28.17,0,0,0-3.36-9.83l.8-2.67,1.87-.85,1.22-6.05,2.83-5.91,2.59-.74,1.21-4.29-1.14-5.11-1.14-6.79.22-5.5v-3.2l1.6,1.9v-2.82l-.91-6.4-1.53-3.13-.37-3.83L112,155.5l.62-5.35h-2.06l1.44-3,.12-.52.5-2.15-2.75,1,3-4.13,0,0,.07-.09V139.3l.84-3.28.18,0,2.27-1.93,2-1.7,7.13-6-4.55,2.58-4.58,2.83-.49-1-.88,1.77h-1.6l.25-1.83-2.08,1.83-.8-.78-2.45-.71-1-3.48.11-2.33-.74-3.9,1.26-.24-1.37-1.87-1.76-5.35,1.07-.27L104.46,111l-2.38-6.52.18-6.58-.67-1.65-2-1.14-1,.31-1,1.29-2.11,1-1,.5-1.48.68-1.27-1.49V95.6l-1-1h0L90,93,85.4,91.46l-4.82-.79L78,90.25l-6.61-.63-.44-.14v-.43L66,96.52,65.64,105l1.45,3.42L67,111.52l.08,4.13-.39-.09,0,2.08.09,1,.28.12v.91l.26,4.91Zm15.81-38v.5l1.27.11L84.56,88Zm1.83-2.48.51.22.58.89.17,2.45.22.07,3.15.95,2.53.76.27.53,1.71.28,2.26.22L94,91.7l-.57-1.55.57-.9,4.11.9-2.26-1.22-1.85-1-.48-2.09-.9-.18-1.4-.29-.12,0-.29,0-4.59-.28Z"/><polygon class="cls-62" points="112.49 107.11 109.47 107.27 109.08 105.75 111.92 105.37 112.49 107.11"/><polygon class="cls-93" points="115.84 112.35 115.55 114.26 115.7 115.18 116.1 118.43 118.31 117.06 119.11 115.89 118.44 114.84 119.43 113.6 117.74 112.13 116.63 112.13 115.84 112.35"/><path class="cls-94" d="M106.34,65.71l.21.54,2,5,.21.52,0,0-.16.15-.15,0a1.19,1.19,0,0,1-.44-.13.77.77,0,0,1-.34-.22,3.07,3.07,0,0,1-.61-2.36,9.69,9.69,0,0,0-.78-3c0-.15-.11-.28-.14-.36ZM80.41,240.23h0c2.69,2.85,5.64,3.71,7,4.45.64.35.93.67.69,1.14a2.71,2.71,0,0,1-.66.76,1.59,1.59,0,0,0-.52.71.54.54,0,0,0,.26.62,1.12,1.12,0,0,0,.31.15l1.57-.2,3-.69.29-.93-.64-.66h0L91,244.28l-1.42-.59-5.27-1.89-2.64-1.72-.67-.22-.08.08-.65-1.61v-2.09l-.36.06C79.61,237.35,79,238.78,80.41,240.23Zm40.12-124.44c1.85-.18,2.87.1,2.79,1.18s0,1.94,2.43,2.57c2.16.56,1.6,4.14,1.46,4.94l.81-3.62-.29-.49L126.37,118,123,115.53ZM98.3,59.31l1.65-.16,2.29.34,1.81.44,1.6,1.11-.39-.57.79.39,1,1.86.2.84v-.8l-.83-2-2-1.47-1.8-.46H99.9Zm10.49,26.25.19-1.19.26-1.51.21.06v-.33h.2l.18-2.82-.43-1.38v0l.17,1.29-.12,2.39-.23-.08v.26l-.22-.07Zm-24,4.37,1.3.22,2.58.83,2.87.92,1,1,0,.2.33,1.79.2-2.26-.37-.71-.26-.53-2.53-.76h0l-2.41-.73-.71-.21-.24-.08h0ZM74.67,89l.49,0,.49,0h0l2.35.1,3.15.12,2.26-.07h.7l.56,0-1.26-.11h0l-4.1-.35H76.49l-1.3.24Zm-3.76,0,1.29.12,3-.41h-.54L71,88.84Zm30.61,2.24-1.7-.69L103,92.45l.63.5h0l.22.17.47.35.63.47.57.55.39.38.78.59-1.19-.26-.91.1.09.23-.51-.06,1.78.37L108,96.92s1.68,2.23,1.06,4.06-.36,2.52.92,3.47a3.09,3.09,0,0,1,.68.71c.06.09.13.18.19.28a9.3,9.3,0,0,1,.77,1.65,11.13,11.13,0,0,1,.44,1.57,5.72,5.72,0,0,1,.12.68,5.81,5.81,0,0,1,.07.9c0,1.76,1.18,2.29,1.22,4.77a15.17,15.17,0,0,0,1.9,6.67,10.84,10.84,0,0,1,1.12,3.35l-.14-3-.66-1.91-.32-1.29-.41-1.33-.53-4.81-.5-2.63-.23-.69h0l-.23-.68L112.25,105l-.27-.84-.41-1.25-.06-.11-1.58-5.68-1.49-1.42-2-.62-.08,0-1.08-1.13-1-.52-.52-1.42-.83-.83-2.53-2.54-4.46-2.28,4.2,2.58L103.07,92ZM113,155.34l-.24,1.15.42.93a3.77,3.77,0,0,1,1.67,2.87c0,1.65,1.13,3.59,1.55,5.39s.91,5.91.3,8.23-.57,13.54-.57,13.54l-.14,9.72.29-3.22,1.24-24-.39-8.32-1.32-7.38-.6-.88.61-.53-.43-2.61v-7.66l.31-3.19-.83,3.27-.19,3.45-1.18,2.51,1.1-.84V150l-.64,2.32.91-.33ZM80.41,236.23,84,222.07l2.11-6.54,1.8-5.72,1-5.45-1.51,5.39-2.25,6.36-2.07,8.39Zm28.82,6.22a10.38,10.38,0,0,0,3.75,2.07s6.73,1.92,4.52,4.73a.69.69,0,0,0,.13,1.07,2.05,2.05,0,0,0,.36.22,1.4,1.4,0,0,0,.26.11l2.44-.54,1.14-1.74-.11-.76-.11-.19v-.3l-4.73-1.42-4.51-2.3-2.69-1.72-.17.29-.24-.15-.55-2.09.07-2.61-.33.08C108,239.05,107.65,241,109.23,242.45Z"/><path class="cls-95" d="M67.24,143.94h0L67,147.17l.38,3.26,1.22,1.88,2.09,1.47.49.13,0,.05.63.15L70.61,154l-2.18-1.44L67,150.64l-.35-3.56ZM85.17,86.11h0l.14.06.87-.94,4.3.08-.2,0L86.07,85ZM67.45,130.87l1.2,3.12.8.32.23,2.16.42,4.29-.39-6.35,0-.22-.29-.32-.24-.28-1.48-2.89-.15-4Zm5.79,88,.4-9,.83-6.27L78.38,193,79,180l-1.62-9.54,1,9.72-.74,13-.93,2.72-.92,2.63L74,203.76l-.72,5.86.07,6.06Zm25.06-11v6.34l.94,8.74,0-.26-.72-8.7,0-6.06,1.38-6,1.56-6.21-.26-2.41-.27-1-2.45-7.5.24.83,2,7.53v2.41l-.85,4.53L99.12,204l-.27,1.28-.16.74Zm-13-136,.5,2.78.51,1.23h0l.08.78-.09-.78.08.78.94,2.12,3,3.66h0l.13.45.18.13.24,1.12-.23,1.17h.12l.31-1.23-.14-.63-.07-.31-.6-1.1L87.61,78.6l-1-1.89v-.65l-.42-1.19v-.06L86,74.39l-.45-2.57.29-2.9Z"/></g></g></svg>