<svg xmlns="http://www.w3.org/2000/svg" xmlns:xlink="http://www.w3.org/1999/xlink" viewBox="0 0 513.42 204.63"><defs><style>.cls-1{isolation:isolate;}.cls-2{opacity:0.88;}.cls-3{fill:url(#linear-gradient);}.cls-10,.cls-4,.cls-5,.cls-7,.cls-8,.cls-9{mix-blend-mode:multiply;}.cls-4{fill:url(#linear-gradient-2);}.cls-5{fill:url(#linear-gradient-3);}.cls-6{fill:url(#linear-gradient-4);}.cls-7{fill:url(#linear-gradient-5);}.cls-8{fill:url(#linear-gradient-6);}.cls-9{fill:url(#linear-gradient-7);}.cls-10{fill:url(#linear-gradient-8);}.cls-11{fill:#bf9e4f;}</style><linearGradient id="linear-gradient" x1="159.5" y1="126.62" x2="330.06" y2="126.62" gradientTransform="matrix(-1, 0, 0, 1, 513.42, -33.77)" gradientUnits="userSpaceOnUse"><stop offset="0" stop-color="#f5e6e3"/><stop offset="0.57" stop-color="#fcf7f7"/><stop offset="0.99" stop-color="#fff"/></linearGradient><linearGradient id="linear-gradient-2" x1="177.09" y1="136.27" x2="329.45" y2="136.27" gradientTransform="matrix(-1, 0, 0, 1, 513.42, -33.77)" gradientUnits="userSpaceOnUse"><stop offset="0" stop-color="#bde6ff"/><stop offset="0.44" stop-color="#c3ebf7"/><stop offset="1" stop-color="#cff5e5"/></linearGradient><linearGradient id="linear-gradient-3" x1="183.41" y1="143.51" x2="330.06" y2="143.51" gradientTransform="matrix(-1, 0, 0, 1, 530, 0)" xlink:href="#linear-gradient-2"/><linearGradient id="linear-gradient-4" y1="67.39" x2="185.78" y2="67.39" gradientTransform="matrix(-1, 0, 0, 1, 530, 0)" gradientUnits="userSpaceOnUse"><stop offset="0.04" stop-color="#f5e6d6"/><stop offset="0.1" stop-color="#f6e8d9"/><stop offset="0.99" stop-color="#fff"/></linearGradient><linearGradient id="linear-gradient-5" x1="51.68" y1="42.31" x2="61.26" y2="42.31" xlink:href="#linear-gradient-2"/><linearGradient id="linear-gradient-6" x1="76.01" y1="41.52" x2="82.84" y2="41.52" xlink:href="#linear-gradient-2"/><linearGradient id="linear-gradient-7" y1="76.16" x2="185.77" y2="76.16" gradientTransform="matrix(-1, 0, 0, 1, 530, 0)" gradientUnits="userSpaceOnUse"><stop offset="0" stop-color="#d1f0ff"/><stop offset="0.44" stop-color="#d0f2f7"/><stop offset="1" stop-color="#cff5e5"/></linearGradient><linearGradient id="linear-gradient-8" x1="0" y1="83.52" x2="185.78" y2="83.52" gradientTransform="matrix(-1, 0, 0, 1, 530, 0)" xlink:href="#linear-gradient-2"/></defs><title>right_clouds</title><g class="cls-1"><g id="Layer_1" data-name="Layer 1"><g class="cls-2"><polygon class="cls-3" points="353.91 79.95 344.61 75.92 332.92 77.12 326.9 75.92 305.32 78.22 294.92 74.65 292.84 69.1 283.24 69.1 278.61 65.38 266.29 63.72 259.88 68.07 258.06 67.69 239.74 71.84 237.32 77.12 229.55 78.22 223.43 82.06 216.81 82.06 208.65 92.01 200.24 89.7 186.73 93.94 183.36 99.85 190.81 102.69 191.32 107.83 209.93 109.57 213.24 111.75 230.31 109.57 242.03 112.97 256.56 107.64 264.21 112.97 253.68 112.97 250.06 115.54 248.15 118.36 267.52 118.98 273.89 121.97 311.61 114.07 353.91 79.95"/><polyline class="cls-4" points="336.33 89.4 329.96 92.84 325.37 91.12 310.25 95.51 304.98 101.12 297.08 101.12 277.2 104.18 290.97 96.79 284.09 94.75 287.14 90.67 281.28 84.3 277.2 83.03 273.89 83.03 265.23 88.89 263.7 87.87 251.98 90.93 248.66 89.65 232.1 94.75 229.04 93.61 234.65 89.14 232.61 87.1 223.18 87.36 220.88 92.84 216.3 92.84 201.77 99.08 199.73 96.79 194.13 96.79 183.97 100.08 190.81 102.69 191.32 107.83 209.93 109.57 213.24 111.75 230.31 109.57 242.03 112.98 256.56 107.64 264.21 112.98 253.68 112.98 250.06 115.55 248.15 118.36 267.52 118.98 273.89 121.98 311.61 114.08"/><path class="cls-5" d="M200,133.61h0l7.45,2.84.51,5.14,18.6,1.74,3.31,2.18,17.08-2.18,11.72,3.4,14.53-5.33,7.63,5.33H270.26l-3.07,2.19-.55.38-1.9,2.82,19.37.62,2.55,1.2,3.82,1.79,37.72-7.9,14.08-11.35L346.6,133l-12.8,1.7-12.49,4.86h-4.46l-8.15,4.32-8.54-1.77-7.64.88-7.3-4.33,9.85-4.47-9.85-2.92-8.64,2.41-.75-1.39-16.31,3.31-.64,2-6-.57-3.32-4-14.27,1.65s-1.53,3.57-1.91,3.57-7.27-.69-7.27-.69v-2.1l-12.61,2.79-1.78,1.41-2.29-4.59-8.88-1.25Z" transform="translate(-16.59 -33.77)"/></g><path class="cls-6" d="M530,35.44l-9.67-1.67L512,35.44l-4,6.33h-6l-5.67,2.33h-18l-9.59-5.16L454,44.1l-6.83-5.16L424.24,43.1l-5.59,4-11.33,2.34-2.83,4.33L369,57.11l-5.17,4H352.65L344.23,66l4.08,7.09h8.07l12.6,8,11.06-2,10.63,2L398,86.19l18.26,2.63,9.5,1.21,10,8.19,8.62-2.11,28-3.66,5.08,6.09H499.2l13.46-3.39s5,.94,6,1.28,8.66,4.58,8.66,4.58L530,99.55Z" transform="translate(-16.59 -33.77)"/><polygon class="cls-7" points="452.16 5.16 454.03 10.33 456.66 11.92 461.74 10.33 452.16 5.16"/><polygon class="cls-8" points="430.57 5.16 432.28 9.16 437.4 10.33 430.57 5.16"/><path class="cls-9" d="M344.23,66l4.08,7.08h8.08l12.59,8,11.07-2,10.63,2L398,86.19l18.25,2.64,9.5,1.2,10,8.2.89-.22c.07-.21.19-.25.35-.09l7.38-1.81,28-3.66,5.08,6.09H499.2l13.47-3.38s5,.93,6,1.28,8.66,4.57,8.66,4.57L530,99.55V52.33l-4.88-1-4,2.88-4.62-1.44-13.38,2.94-2.24,4.74h-8.26l-4.24,1.88L478,67.38l-5.75-.95,4-4-4-3.08-11,1.08-3-1.08-8.5,2.46-4.5,4.62-5.63-1-4.87-2.24-7.42.79-2.5,3.4s-6.16.76-6.66.76-5.5-6.5-5.5-6.5l-1.84-3.33h-5.33l-4.67,4-3.66-1.17-18,4-2.84-2-6-.33L365,66l-3.83-.84L356,67.38l-8.33.76Z" transform="translate(-16.59 -33.77)"/><path class="cls-10" d="M344.23,66l4.08,7.08h8.08l12.59,8,11.06-2,10.63,2L398,86.19l2.31.33,15.95,2.3,8.45,1.07,1.05.14,7.18,5.9,2.78,2.3.89-.23h0l4-1,3.68-.9,28-3.67,5.08,6.09h21.8l13.47-3.38s1.93.36,3.64.72l1.29.28.15,0h0a7.39,7.39,0,0,1,.91.25l.27.11c1.69.76,8.39,4.45,8.39,4.45L530,99.55V80.64l-7.08,2.07-7.34-1.83-13.16,5.67s-5-1.67-4.5-2,7.16-2.67,7.16-2.67l-6.5-1.17L479.74,82.8l-5.83,2.41-8.17-.66V82.8l-18.17-1.09-5.66,2.67-4.79,2.17L425.24,82.8h-5.67l-8.16-1.75L400.73,82.8l-4.5-4.59-8-2-1.17,1.55-9-3.66h-8.83l-6.67-2-14.25-1Z" transform="translate(-16.59 -33.77)"/><path class="cls-11" d="M28.69,238l-.12,0a.55.55,0,0,1,0,.18A.71.71,0,0,1,28.69,238Z" transform="translate(-16.59 -33.77)"/><path class="cls-11" d="M28.65,238.4l-.06-.05v0h.06Z" transform="translate(-16.59 -33.77)"/><path class="cls-11" d="M16.83,237.39c-.08-.26-.15-.51-.24-.75Z" transform="translate(-16.59 -33.77)"/></g></g></svg>