<svg xmlns="http://www.w3.org/2000/svg" xmlns:xlink="http://www.w3.org/1999/xlink" viewBox="0 0 62.39 192.72"><defs><style>.cls-1{isolation:isolate;}.cls-2{fill:#63544d;}.cls-3{fill:#636b75;}.cls-4{fill:#e5bf9e;}.cls-5{fill:#f1d4b3;}.cls-6{fill:#545669;}.cls-7{fill:#e6e7e8;}.cls-8{fill:url(#linear-gradient);}.cls-9{fill:url(#linear-gradient-2);}.cls-10{fill:#00a3e0;}.cls-11{fill:#0099d4;}.cls-12{fill:url(#linear-gradient-3);}.cls-13{fill:#775642;}.cls-14{fill:#dcbd6b;}.cls-15{fill:#f7d479;}.cls-16{fill:#de9659;}.cls-17{fill:#876455;}.cls-18{fill:#edccc1;}.cls-18,.cls-19,.cls-22,.cls-23,.cls-27,.cls-29,.cls-30,.cls-36,.cls-37,.cls-39,.cls-40,.cls-41,.cls-42,.cls-43,.cls-44{mix-blend-mode:multiply;}.cls-19{fill:url(#linear-gradient-4);}.cls-20{fill:#b98858;}.cls-21{fill:#5b7e9d;}.cls-22{fill:#e1d6dc;}.cls-23{fill:url(#linear-gradient-5);}.cls-24{fill:#956c54;}.cls-25{fill:#708db4;}.cls-26{fill:#8d6f52;}.cls-27,.cls-33,.cls-40{fill:#edd9d4;}.cls-28{fill:#c49e70;opacity:0.2;}.cls-29{fill:url(#linear-gradient-6);}.cls-30{fill:url(#linear-gradient-7);}.cls-31{fill:#6a9bc1;}.cls-32{fill:#5884b1;}.cls-34{fill:#edd4b5;}.cls-35{fill:#e3cca6;}.cls-36{fill:url(#linear-gradient-8);}.cls-37{fill:url(#linear-gradient-9);}.cls-38{fill:#726658;}.cls-39{fill:url(#linear-gradient-10);}.cls-40{opacity:0.56;}.cls-41{fill:url(#linear-gradient-11);}.cls-42{fill:url(#linear-gradient-12);}.cls-43{fill:url(#linear-gradient-13);}.cls-44{fill:url(#linear-gradient-14);}.cls-45{fill:#e4c099;}.cls-46{opacity:0.8;fill:url(#linear-gradient-15);}.cls-47{fill:url(#linear-gradient-16);}</style><linearGradient id="linear-gradient" x1="428.41" y1="156.3" x2="428.41" y2="88.28" gradientTransform="matrix(-1, 0, 0, 1, 464.37, -58.85)" gradientUnits="userSpaceOnUse"><stop offset="0" stop-color="#7c9b4f"/><stop offset="1" stop-color="#797f63"/></linearGradient><linearGradient id="linear-gradient-2" x1="414.29" y1="118.87" x2="414.29" y2="104.18" gradientTransform="matrix(-1, 0, 0, 1, 464.37, -58.85)" gradientUnits="userSpaceOnUse"><stop offset="0" stop-color="#738549"/><stop offset="1" stop-color="#6f755c"/></linearGradient><linearGradient id="linear-gradient-3" x1="425.54" y1="89.48" x2="446.55" y2="89.48" gradientTransform="matrix(-1, 0, 0, 1, 464.37, -58.85)" gradientUnits="userSpaceOnUse"><stop offset="0" stop-color="#819b68"/><stop offset="1" stop-color="#7c9465"/></linearGradient><linearGradient id="linear-gradient-4" x1="421.26" y1="84.85" x2="428.86" y2="84.85" gradientTransform="matrix(-1, 0, 0, 1, 464.37, -58.85)" gradientUnits="userSpaceOnUse"><stop offset="0" stop-color="#d9dbd8"/><stop offset="1" stop-color="#cbae67"/></linearGradient><linearGradient id="linear-gradient-5" x1="436.79" y1="200.53" x2="436.79" y2="171.94" gradientTransform="matrix(-1, 0, 0, 1, 464.37, -58.85)" gradientUnits="userSpaceOnUse"><stop offset="0" stop-color="#d9dbd8"/><stop offset="1" stop-color="#d0be90"/></linearGradient><linearGradient id="linear-gradient-6" x1="413.8" y1="132.87" x2="429.91" y2="132.87" gradientTransform="matrix(-1, 0, 0, 1, 530, 0)" xlink:href="#linear-gradient-4"/><linearGradient id="linear-gradient-7" x1="409.82" y1="120.56" x2="414.62" y2="120.56" xlink:href="#linear-gradient-4"/><linearGradient id="linear-gradient-8" x1="426.5" y1="251.49" x2="426.5" y2="236.7" gradientTransform="matrix(-1, 0, 0, 1, 530, 0)" gradientUnits="userSpaceOnUse"><stop offset="0.01" stop-color="#e1a1c4"/><stop offset="0.18" stop-color="#ca9abf"/><stop offset="0.53" stop-color="#a08db5"/><stop offset="0.81" stop-color="#8785af"/><stop offset="0.98" stop-color="#7d82ad"/></linearGradient><linearGradient id="linear-gradient-9" x1="455.09" y1="248.53" x2="455.09" y2="235.35" xlink:href="#linear-gradient-8"/><linearGradient id="linear-gradient-10" x1="430" y1="77.82" x2="433.31" y2="77.82" xlink:href="#linear-gradient-4"/><linearGradient id="linear-gradient-11" x1="422.75" y1="75.18" x2="444.6" y2="75.18" gradientTransform="matrix(-1, 0, 0, 1, 464.37, -58.85)" xlink:href="#linear-gradient-8"/><linearGradient id="linear-gradient-12" x1="433.72" y1="131.05" x2="433.72" y2="99.57" xlink:href="#linear-gradient-4"/><linearGradient id="linear-gradient-13" x1="431.41" y1="152.56" x2="452.78" y2="152.56" xlink:href="#linear-gradient-4"/><linearGradient id="linear-gradient-14" x1="434.52" y1="237.48" x2="434.52" y2="85.05" gradientTransform="matrix(-1, 0, 0, 1, 530, 0)" gradientUnits="userSpaceOnUse"><stop offset="0.01" stop-color="#f5a2c6"/><stop offset="0.02" stop-color="#f3a1c6"/><stop offset="0.35" stop-color="#b98cbe"/><stop offset="0.63" stop-color="#8f7db8"/><stop offset="0.85" stop-color="#7573b4"/><stop offset="0.98" stop-color="#6b70b3"/></linearGradient><linearGradient id="linear-gradient-15" x1="430.54" y1="250.65" x2="430.54" y2="58.85" gradientTransform="matrix(-1, 0, 0, 1, 530, 0)" gradientUnits="userSpaceOnUse"><stop offset="0" stop-color="#fadbff"/><stop offset="1" stop-color="#ffffd1"/></linearGradient><linearGradient id="linear-gradient-16" x1="445.95" y1="222.92" x2="445.95" y2="68.92" gradientTransform="matrix(-1, 0, 0, 1, 530, 0)" gradientUnits="userSpaceOnUse"><stop offset="0" stop-color="#66bdff"/><stop offset="0.98" stop-color="#e3c2fa"/></linearGradient></defs><title>layer4</title><g class="cls-1"><g id="Layer_1" data-name="Layer 1"><polygon class="cls-2" points="41.4 13.24 42.05 15.61 43.47 17.22 44.9 16.38 45.5 14.04 45.78 13.46 45.58 12.46 42.62 12.46 41.4 13.24"/><polygon class="cls-3" points="40.54 13.54 41.23 15.55 42.73 16.92 44.23 16.2 44.87 14.21 45.17 13.72 44.96 12.87 41.89 13.09 40.54 13.54"/><polygon class="cls-4" points="43.23 19.65 44.18 19.11 44.31 18.64 43.2 16.26 43.23 19.65"/><polygon class="cls-5" points="20.27 12.27 20.78 17.03 20.86 17.8 21.8 19.93 25.06 23.93 25.36 25.32 24.53 29.55 23.69 31.07 25.18 33.08 27.75 34.57 32.61 35.94 39.04 36.75 37.3 32.42 37.31 30.61 37.59 29.42 38.82 28.9 41.4 29.17 42.8 26.88 43.83 20.7 43.61 16.62 42.64 14.56 43.14 12.97 40.93 7.46 40.72 6.92 40.74 6.9 41.31 6.16 41.23 6.09 38.39 3.8 34.03 2.4 30.27 2.59 26.39 4.08 24.96 4.63 21.24 8.49 20.27 12.27"/><polygon class="cls-6" points="6.93 176.34 9.17 177.79 11.6 177.85 14.79 177.43 18.37 163.28 20.48 156.74 22.27 151.02 23.38 144.84 24.97 141.68 28.32 133.09 32.12 122.86 33.26 126.83 35.28 134.36 35.28 136.76 34.43 141.29 32.78 149 32.78 155.33 33.72 164.11 33.94 177.75 38.42 178.63 41.83 178.63 43.72 178.21 49.21 144.84 50.15 140.61 50.64 135.16 51.87 111.18 51.49 102.87 50.17 95.48 49.57 94.6 47.35 96.55 40.07 97.19 33.35 97.45 13.81 94.44 11.97 101.42 11.51 108.89 12.86 121.32 12.12 134.3 8.46 144.92 7.74 150.77 7.81 156.83 7.6 163.48 6.93 176.34"/><polygon class="cls-7" points="34.78 183.57 34.45 187.24 36.55 191.93 40.53 192.1 49.74 192.1 52.58 191.38 54.41 189.5 54.41 188.22 50.45 186.97 45.48 184.23 43.64 183.02 43.1 180.94 43.16 178.33 41.83 178.63 38.42 178.63 34.45 177.85 34.78 183.57"/><polygon class="cls-7" points="5.71 187.78 8.44 188.9 13.6 187.62 20.52 188.59 23.43 188.28 23 187.73 21.67 186 22.86 184.91 18.02 182.73 15.31 181.29 14.62 179.54 14.62 177.45 11.38 177.79 9.17 177.79 7.21 176.5 6.89 180.15 5.79 184.6 5.71 187.78"/><polygon class="cls-5" points="52.67 58.21 54.55 57.04 57.37 56.74 60.75 59.22 62.1 61.58 62.39 59.75 61.64 56.74 59.58 55.02 56.75 54.17 53.94 54.56 53.79 54.75 52.8 55.99 53.47 57.04 52.67 58.21"/><polygon class="cls-8" points="10.55 49.49 10.1 53.28 11.35 64.47 12.72 70.99 13.34 76.06 13.54 77.76 13.76 79.57 13.76 83.47 12.49 91.24 12.95 92.5 13.81 94.44 33.35 97.45 40.07 97.19 47.35 96.55 49.57 94.6 50.17 94.07 49.74 91.46 49.74 83.8 50.57 75.21 52.56 73.51 60.51 66.8 61.54 65.86 62.39 62.07 62.1 61.58 60.75 59.22 57.37 56.74 54.55 57.04 52.67 58.21 52.66 58.22 49.74 60.02 49.33 58.7 48.81 53.88 48.3 51.25 48.07 50.56 46.36 45.33 45.95 44.07 45.89 43.96 44.3 38.28 42.81 36.86 40.78 36.24 39.31 35.37 38.23 34.73 38.22 34.72 37.16 34.1 33.71 32.05 30.45 30.14 27.14 29.43 26.23 29.5 24.32 29.66 21.5 30.85 18.2 31.33 15.92 31.66 13.76 33.6 10.55 40.79 9.52 47.64 10.55 49.49"/><polygon class="cls-9" points="46.36 45.33 48.07 50.56 48.3 51.25 48.81 53.88 49.33 58.7 49.74 60.02 52.66 58.22 52.67 58.21 53.47 57.04 52.8 55.99 53.79 54.75 52.1 53.28 51 53.28 50.2 53.5 49.25 50.86 47.08 47.03 46.57 45.66 46.36 45.33"/><polygon class="cls-10" points="34.22 185.67 33.95 191.24 35.83 192.38 41.03 192.52 49.85 192.26 54.8 191.26 55.98 189.72 55.98 188.34 51.26 186.91 46.75 184.61 44.06 182.89 43.52 183.79 42.82 185.33 40.63 186.19 38.38 186.01 36.17 185.03 34.22 184.85 34.22 185.67"/><polygon class="cls-11" points="5.32 187.82 7.41 188.9 13.92 189.37 21.51 189.14 26 188.28 26.31 187.35 25.35 185.49 23.93 184.9 18.65 183.01 16.01 181.28 16.01 181.28 15.34 181.07 15.13 181.3 14.13 181.74 11.04 182.33 8.41 181.3 7.83 181.09 6.97 180.77 6.25 181.3 5.49 184.57 5.32 187.82"/><polygon class="cls-12" points="38.82 35.07 38.13 33.13 34.76 29.77 30.3 27.49 25.42 26.5 20.55 26.19 19.48 27.49 20.01 28.59 17.82 29.77 17.82 31.28 21.5 32.73 23.74 32.59 28.78 33.43 35.05 34.04 38.82 35.07"/><polygon class="cls-13" points="20.96 31.57 20.73 28.39 20.15 27.49 16.98 26.09 13.55 25.84 11.33 26.46 10.21 27.68 9.52 30.29 10.9 30.21 11.54 28.39 12.3 27.78 14.06 27.56 16.72 27.91 18.44 28.62 18.91 29.04 19.16 31.03 20.96 31.57"/><polygon class="cls-14" points="38.8 47.64 39.84 52.12 44.48 50.55 48.07 50.55 47.85 49.87 46.63 46.16 46.35 45.32 39.11 46.55 38.8 47.64"/><polygon class="cls-15" points="39.72 47.8 40.67 50.97 44.95 49.87 47.85 49.87 46.63 46.16 40 47.03 39.72 47.8"/><polygon class="cls-16" points="36.62 8.54 35.95 13.23 36.62 16.91 35.51 17.29 35.28 16.91 34.29 15.24 32.41 15.12 31.49 16.27 31.49 17.64 31.75 20.55 31 22.41 29.26 23.58 26.18 24.98 25.33 24.57 24.79 23.58 21.8 19.93 20.86 17.8 20.51 14.32 36.62 8.54"/><polygon class="cls-17" points="19.76 13.01 20.27 15.79 20.78 17.03 22.09 18.02 24.8 16.09 27.54 13.44 32.35 12.09 32.44 12.02 32.45 12.01 37.44 7.86 40.47 7.17 40.72 6.92 40.74 6.9 41.62 6 41.62 3.97 40.78 1.99 38.79 0.52 36.98 0.06 34.27 0.06 32.67 0.52 33.15 0.98 32.97 1.48 29.79 2.21 25.94 3.51 22.45 6.03 20.57 9 19.76 13.01"/><polygon class="cls-18" points="34.9 16.26 41.9 14.68 41.9 14.04 43.14 12.97 42.64 14.56 43.61 16.62 43.68 18.35 43 16.69 42.32 16.05 41.4 15.65 35.28 16.91 34.9 16.26"/><polygon class="cls-2" points="45.66 12.46 34.36 15.34 34.55 15.66 34.77 16.05 45.78 13.61 45.66 12.46"/><polygon class="cls-16" points="36.62 16.91 35.51 17.29 35.51 21.35 35.95 23.24 37.03 25.53 37.52 28.39 37.59 29.43 37.42 30.16 38.41 29.65 38.82 29.99 39.21 29.76 39.9 30.16 40.35 29.96 40.35 30.63 41.13 30.08 41.01 30.63 42.19 29.16 41.9 29.88 42.96 28.16 43.36 25.59 43.62 24.07 43.83 24.13 43.83 23.8 44.03 23.81 44.2 20.99 43.77 19.57 43.11 20.99 42.52 21.35 41.62 21.14 40.07 21.7 37.81 19.57 36.62 16.91"/><polygon class="cls-19" points="37.49 28.39 37.56 29.43 37.39 30.17 38.38 29.64 38.8 29.99 39.18 29.76 39.87 30.17 40.33 29.96 40.33 30.63 41.1 30.07 40.99 30.63 42.16 29.16 41.87 29.87 42.93 28.16 43.11 27 42.76 27.53 42.5 27.8 42.5 27 41.87 27.53 41.37 27.53 41.58 26.73 40.9 27.19 41.16 26.39 40.33 26.65 39.33 27.19 39.15 26.5 38.46 27.19 38.46 25.86 37.81 24.48 35.51 21.35 35.95 23.24 37.49 28.39"/><polygon class="cls-20" points="29.89 40.72 33.01 36.54 35.95 35.62 38.47 35.65 40.7 36.2 39.61 35.07 38.27 34.35 35.09 33.54 32.55 33.54 29.52 34.31 27.07 36.75 29.89 40.72"/><polygon class="cls-20" points="35.83 63.74 33.57 68.63 31.74 71.53 30.48 72.44 30.66 81.78 33.95 76.53 35.7 74.02 37.5 70.94 37.21 70.51 35.83 63.74"/><polygon class="cls-21" points="0 46.1 2.73 51.32 2.52 59.58 3.64 72.76 4.15 77.63 4.72 83.35 7.41 87.86 17.86 90.21 27.18 90.35 30.27 86.22 30.61 82.58 30.86 77.97 30.93 73.36 30.23 66.38 29.38 52.64 30.58 39.57 29.14 37.87 23.52 32.7 19.42 30.39 9.68 30.63 5.94 30.43 0.79 37.87 0 46.1"/><polygon class="cls-22" points="29.72 41.27 29.38 40.72 24.79 44.23 22.8 48.06 20.68 55.08 19.65 60.54 19.25 65.64 19.25 73.45 19.79 79.17 21.65 85.22 22.97 86.96 27.88 88.29 29.4 86.15 30.06 81.78 30.06 71.17 29.38 61.21 28.43 52.12 27.07 50.86 28.43 51.21 29.43 43.8 29.72 41.27"/><polygon class="cls-23" points="24.17 115.43 26.69 118.45 26.58 122.75 25.66 130.7 25.2 138.13 24.97 141.68 28.32 133.09 28.84 131.69 32.12 122.86 30.35 118.86 28.29 115.83 24.11 114 23.02 113.08 24.17 115.43"/><polygon class="cls-24" points="27.43 33.86 20.96 39.62 16.91 51.21 10.56 54.17 6.9 53.67 3.76 52.44 1.47 49.57 0 46.1 0.4 37.67 5.37 30.05 9.09 29.89 13.71 29.9 19.42 30.39 26.8 32.62 27.43 33.86"/><polygon class="cls-5" points="37.35 7.93 32.43 12.02 37.35 9.26 37.35 7.93"/><polygon class="cls-25" points="16.5 62.24 16.67 74.02 14.74 77.19 13.71 77.34 6.93 76.67 3.13 75.14 1.92 72.02 2.11 62.78 16.5 62.24"/><polygon class="cls-26" points="16.7 61.06 11.75 60.73 7.02 60.13 3.48 59.44 1.75 59.01 1.91 62.51 2.45 64.93 4.69 65.67 7.04 66.28 11.65 66.7 15.24 66.22 16.2 64.14 16.7 61.06"/><polygon class="cls-27" points="2.73 51.32 2.71 52.06 3.32 52.99 5.64 54.16 8.74 54.75 12.05 54.4 18.09 50.97 22.43 40.11 26.15 36.75 26.08 35.06 21.53 39.11 20.96 39.61 16.91 51.21 10.57 54.16 6.91 53.66 3.76 52.44 2.45 50.8 2.73 51.32"/><polygon class="cls-20" points="13.63 46.06 10.49 46.08 9.09 59.08 9.09 71.91 9.59 72.9 10.89 72.9 11.68 71.84 11.6 63.55 12.54 53.09 13.63 46.06"/><polygon class="cls-20" points="3.01 45.57 1.55 45.43 1.38 52.66 1.5 60.86 1.75 65.77 2.47 71.14 2.93 71.1 3.13 68.69 2.81 61.19 2.73 52.69 3.01 45.57"/><path class="cls-28" d="M99.55,59.69l1.41.21,1.14.38.46.52v.51l-1.72-.41L97.9,62.16l-3,.88L92.72,64.3a8.23,8.23,0,0,0-2.88,3.91C89.3,70.43,89.1,66.1,91,64.4a18.59,18.59,0,0,1,3.53-2.55l-.84,1,4.76-2.12,1-.23.14-.44Z" transform="translate(-65.64 -58.85)"/><polygon class="cls-21" points="28.5 64.24 28.74 70.07 28.26 74.75 27.2 76.63 23.09 76.63 22.06 76.12 20.55 72.25 20.81 68.59 20.83 63.52 28.5 64.24"/><polygon class="cls-26" points="28.79 62.17 29.05 65.65 22.46 65.73 20.27 65.41 20.59 61.84 28.79 62.17"/><path class="cls-29" d="M100.81,123.89l-.1,9,2.75,5.82,4.33,1.4-.56.54-2.44-.17-.23.95,1.86,1.69.71.65-.74,1.23-2.86,2.17h1.37l3.52-2.24.9.83,2.61,1,.18-.08.5-2.15-2.75,1,3-4.13,0,0a.42.42,0,0,1,.07-.13,1.36,1.36,0,0,1,.61-.44,4,4,0,0,0,1-.63c.38-.26.82-.42,1.22-.64l.51-5.4L113.93,136l-.18,0-3.64.57-3.7-1.6-3.53-5.61-1.41-6.78-1.38-4Z" transform="translate(-65.64 -58.85)"/><polygon class="cls-30" points="49.74 60.02 50.07 61.31 50.73 63.22 50.88 66.38 52.1 62.8 52.1 61.58 52.67 62 53.2 63.74 53.55 61.27 53.32 59.48 54.55 57.04 49.74 60.02"/><polygon class="cls-31" points="24.19 99.72 13.65 96.18 5.09 95.1 2.9 93.66 1.43 91.8 1.07 88.24 1.71 85.09 3.39 83.87 7.11 84.28 26.79 86.21 24.19 99.72"/><polygon class="cls-32" points="31.66 89.68 30.11 87.69 26.55 86.25 23.05 87.06 21.06 89.95 20.38 94.62 22.05 97.94 24.3 99.75 28.59 99.64 31.82 96.07 32.28 91.77 31.66 89.68"/><polygon class="cls-26" points="17.85 85.33 15.89 86.83 15.28 88.26 14.6 91.38 14.93 93.98 16.07 96.19 17.9 97.61 18.46 97.8 18.04 97.95 15.46 97.4 13.98 96.29 12.74 94 12.23 91.14 12.42 89.33 13.04 87.31 13.9 85.99 15.11 85.06 15.7 84.79 17.35 84.65 18.97 85 19.41 85.49 17.85 85.33"/><polygon class="cls-26" points="8.15 84.38 6.35 85.63 5.77 86.9 5.09 89.69 5.33 92.03 6.31 94.04 7.92 95.34 8.42 95.53 8.04 95.65 5.73 95.11 4.43 94.08 3.36 92 2.97 89.42 3.18 87.8 3.78 86 4.58 84.84 5.68 84.03 6.22 83.8 7.7 83.71 9.15 84.06 9.53 84.5 8.15 84.38"/><polygon class="cls-27" points="30.77 91.97 30.25 90.17 29.26 88.63 26.48 87.59 23.59 88.34 22.26 90.81 21.85 94.79 22.89 97.12 24.87 98.76 27.48 98.69 29.03 97.12 30.2 94.89 29.8 92.62 28.67 90.73 27.53 90.09 25.76 89.62 24.64 89.92 23.63 91.33 23.36 94.2 23.63 95.53 24.3 96.57 26.18 97.03 28.07 95.41 28.23 93.6 27.37 91.94 26.26 91.48 24.76 93.2 26.6 92.39 27.03 93.14 27.4 94.25 26.3 95.73 24.81 95.28 24.17 94.22 24.39 91.93 25.37 90.61 26.17 90.44 27.55 90.75 28.37 91.42 29.17 93.08 29.17 94.6 28.28 96.67 26.88 97.72 25.01 97.77 23.35 96.28 22.66 94.61 22.94 91.17 23.94 89.12 26.5 88.31 28.97 89.2 29.84 90.23 30.77 91.97"/><path class="cls-33" d="M74.37,117.9v1l1.56.46h2l.38-3.12-3.71-.46Zm.39.07L75,116.3l1.08.15-.07.76.21.22.3-.18.12-.72,1.13.15-.25,2.26H76l-1.24-.36Z" transform="translate(-65.64 -58.85)"/><path class="cls-33" d="M66.71,115.56l0,2.08.09,1,.9.38,1-.13,0-2.86Zm.31,2,0-1.44.49.12v.45l.16.27.17-.19v-.45l.56.13,0,2.11h-.69l-.63-.27Z" transform="translate(-65.64 -58.85)"/><polygon class="cls-34" points="34.02 189.68 33.58 191.27 33.95 191.75 35.64 192.52 41.02 192.72 46.34 192.52 50.07 192.44 55.07 191.32 56.21 189.58 56.1 188.82 55.98 188.63 55.81 189.12 54.95 189.91 53.68 190.27 50.02 190.67 46.81 191.03 43.19 191.03 41.66 190.53 41.05 190.42 40.35 190.87 38.6 191.01 35.99 190.67 34.6 190.23 34.02 189.68"/><polygon class="cls-35" points="5.38 186.62 4.96 188.11 4.96 188.55 6.5 189.37 8.33 189.68 11.4 189.68 15.65 189.68 19.94 189.53 23.43 189.09 26.39 188.39 26.67 187.46 26.02 186.79 26.01 187.25 23.56 187.67 20.7 187.88 17.08 188 13.34 187.96 12.16 187.43 11.61 187.35 10.09 187.94 8.81 187.9 6.21 187.37 5.54 186.94 5.38 186.62"/><polygon class="cls-24" points="27.43 33.86 27.24 36.12 26.15 36.75 26.08 35.06 27.43 33.86"/><path class="cls-36" d="M99.22,250.12l.36.48,1.7.77,3.32.12v-3.38l.72-1.49,2.46-2.17a8.4,8.4,0,0,1-1.67-3.87,4.5,4.5,0,0,1,1-3.11h-3.09l-4-.77.33,5.72-.12,1.32-.44,0v.82l-.19,4Z" transform="translate(-65.64 -58.85)"/><path class="cls-37" d="M70.6,247v.44l1.54.82,1.83.31h.56l.07-.67,0-.25.1-.85s.55-.24,1.56-1.82.91-1.85.38-3.77a4.41,4.41,0,0,1,.93-3.63l1.63-1.13-2.22.24H74.8l-2-1.3L72.53,239l-.2.82-.45.33-.75,3.26L71,245.47Z" transform="translate(-65.64 -58.85)"/><polygon class="cls-38" points="31.49 16.69 31.05 17.71 31.34 19.08 31.63 19.15 31.45 17.57 31.49 16.69"/><polygon class="cls-39" points="34.36 21.35 33.16 21.35 31.75 20.55 31.63 18.81 31.5 17.64 31.49 16.27 31.05 17.58 31.05 19.04 31.34 20.67 32.98 21.67 34.36 21.35"/><polygon class="cls-40" points="34.66 17.31 33.97 16.12 32.84 15.89 32.3 16.52 32.13 18.35 32.21 19.3 33.03 20.01 33.74 19.7 33.54 19.24 33.14 18.65 33.39 17.92 34.04 17.92 34.2 17.34 34.66 17.31"/><polygon class="cls-41" points="20.56 9 22.45 6.03 25.93 3.51 27.75 2.9 26.28 3.7 23.19 6.29 21.82 9.35 21.29 12.36 21.81 13.85 21.9 13.98 22.19 12.66 22.38 13.92 23.83 14.25 26.62 11.8 32.43 8.8 32.05 10.64 34.36 8.81 36.68 7.17 41.23 6.09 41.62 6 40.74 6.9 40.72 6.92 40.93 7.46 39.91 7.67 37.75 8.83 36.07 9.43 36.07 9.43 32.43 12.46 31.34 14.25 30.03 15.66 29.85 16.33 29.85 17.48 29.53 19.65 30.65 22.65 29.85 23.24 31.34 27.21 31.34 27.21 34.76 29.77 30.3 27.49 26.94 26.8 26.94 26.8 25.53 26.52 25.13 26.48 25.36 25.32 25.11 24.18 24.78 23.59 21.8 19.93 20.86 17.8 20.78 17.03 20.77 17.03 20.26 15.79 19.77 13.01 20.56 9"/><polygon class="cls-42" points="30.47 40.72 29.38 52.64 30.18 66.16 30.81 72.19 31.93 71.36 31.13 65.96 30.06 53.18 30.65 54.75 30.93 54.58 30.35 49.63 30.47 40.72"/><polygon class="cls-43" points="11.59 107.57 12.8 103.28 15.12 102.1 17.38 101.79 22.44 102.48 28.1 101.73 30.3 99.87 31.83 97.22 32.44 96.18 32.96 91.8 32.67 89.83 31.21 86.98 31.44 86.06 31.61 83.06 31.88 79.84 30.66 81.78 30.61 82.58 30.27 86.22 29.39 87.4 30.11 87.69 31.66 89.68 32.28 91.77 31.82 96.07 30.91 97.08 28.59 99.64 24.3 99.75 24.2 99.67 24.19 99.72 18.46 97.79 18.04 97.95 15.45 97.4 13.98 96.29 13.65 96.18 13.36 96.15 11.97 101.42 11.59 107.57"/><path class="cls-44" d="M67.64,126.57v0l-.08,4.29,1.2,3.12.8.32.23,2.16.57,5.72.42.72L69,142.73,67.35,144l-.65,3.14.36,3.55,1.47,1.88,2.2,1.43,1.3.17h0l1.63.38.39-.12L79,155l-1.39,5.27-.46,7.47,1.34,12.43-.74,13-3.66,10.61-.72,5.86.08,6.05-.22,6.65-.66,12.86,2.14,1.41h2.08l.53,0-.52-1.94a20.68,20.68,0,0,1,2.64-8.81C82,221.46,83,213.91,83,213.91v-2l2.4-4.82,4.5-5.07.72-1.44L94,192l.52-1.4,3.29-8.82,1.13,4,2,7.53v2.4l-.86,4.53-1.64,7.71v6.33l.94,8.78.22,13.64,4.48.88h3.4l.76-.16-.34-3.85a82.73,82.73,0,0,0-1-9.68,28.17,28.17,0,0,0-3.36-9.83l.8-2.67,1.87-.85,1.22-6.05,2.83-5.91,2.59-.74,1.21-4.29-1.14-5.11-1.14-6.79.22-5.5v-3.2l1.6,1.9v-2.82l-.91-6.4-1.53-3.13-.37-3.83L112,155.5l.62-5.35h-2.06l1.44-3,.12-.52.5-2.15-2.75,1,3-4.13,0,0,.07-.09V139.3l.84-3.28.18,0,2.27-1.93,2-1.7,7.13-6-4.55,2.58-4.58,2.83-.49-1-.88,1.77h-1.6l.25-1.83-2.08,1.83-.8-.78-2.45-.71-1-3.48.11-2.33-.74-3.9,1.26-.24-1.37-1.87-1.76-5.35,1.07-.27L104.46,111l-2.38-6.52.18-6.58-.67-1.65-2-1.14-1,.31-1,1.29-2.11,1-1,.5-1.48.68-1.27-1.49V95.6l-1-1h0L90,93,85.4,91.46l-4.82-.79L78,90.25l-6.61-.63-.44-.14v-.43L66,96.52,65.64,105l1.45,3.42L67,111.52l.08,4.13-.39-.09,0,2.08.09,1,.28.12v.91l.26,4.91Zm15.81-38v.5l1.27.11L84.56,88Zm1.83-2.48.51.22.58.89.17,2.45.22.07,3.15.95,2.53.76.27.53,1.71.28,2.26.22L94,91.7l-.57-1.55.57-.9,4.11.9-2.26-1.22-1.85-1-.48-2.09-.9-.18-1.4-.29-.12,0-.29,0-4.59-.28Z" transform="translate(-65.64 -58.85)"/><polygon class="cls-14" points="46.85 48.26 43.84 48.42 43.44 46.9 46.28 46.52 46.85 48.26"/><polygon class="cls-45" points="50.2 53.5 49.92 55.41 50.06 56.32 50.46 59.58 52.67 58.2 53.47 57.04 52.8 55.99 53.79 54.75 52.1 53.28 51 53.28 50.2 53.5"/><path class="cls-46" d="M106.34,65.71l.21.54,2,5,.21.52,0,0-.16.15-.15,0a1.19,1.19,0,0,1-.44-.13.77.77,0,0,1-.34-.22,3.07,3.07,0,0,1-.61-2.36,9.69,9.69,0,0,0-.78-3c0-.15-.11-.28-.14-.36ZM80.41,240.23h0c2.69,2.85,5.64,3.71,7,4.45.64.35.93.67.69,1.14a2.71,2.71,0,0,1-.66.76,1.59,1.59,0,0,0-.52.71.54.54,0,0,0,.26.62,1.12,1.12,0,0,0,.31.15l1.57-.2,3-.69.29-.93-.64-.66h0L91,244.28l-1.42-.59-5.27-1.89-2.64-1.72-.67-.22-.08.08-.65-1.61v-2.09l-.36.06C79.61,237.35,79,238.78,80.41,240.23Zm40.12-124.44c1.85-.18,2.87.1,2.79,1.18s0,1.94,2.43,2.57c2.16.56,1.6,4.14,1.46,4.94l.81-3.62-.29-.49L126.37,118,123,115.53ZM98.3,59.31l1.65-.16,2.29.34,1.81.44,1.6,1.11-.39-.57.79.39,1,1.86.2.84v-.8l-.83-2-2-1.47-1.8-.46H99.9Zm10.49,26.25.19-1.19.26-1.51.21.06v-.33h.2l.18-2.82-.43-1.38v0l.17,1.29-.12,2.39-.23-.08v.26l-.22-.07Zm-24,4.37,1.3.22,2.58.83,2.87.92,1,1,0,.2.33,1.79.2-2.26-.37-.71-.26-.53-2.53-.76h0l-2.41-.73-.71-.21-.24-.08h0ZM74.67,89l.49,0,.49,0h0l2.35.1,3.15.12,2.26-.07h.7l.56,0-1.26-.11h0l-4.1-.35H76.49l-1.3.24Zm-3.76,0,1.29.12,3-.41h-.54L71,88.84Zm30.61,2.24-1.7-.69L103,92.45l.63.5h0l.22.17.47.35.63.47.57.55.39.38.78.59-1.19-.26-.91.1.09.23-.51-.06,1.78.37L108,96.92s1.68,2.23,1.06,4.06-.36,2.52.92,3.47a3.09,3.09,0,0,1,.68.71c.06.09.13.18.19.28a9.3,9.3,0,0,1,.77,1.65,11.13,11.13,0,0,1,.44,1.57,5.72,5.72,0,0,1,.12.68,5.81,5.81,0,0,1,.07.9c0,1.76,1.18,2.29,1.22,4.77a15.17,15.17,0,0,0,1.9,6.67,10.84,10.84,0,0,1,1.12,3.35l-.14-3-.66-1.91-.32-1.29-.41-1.33-.53-4.81-.5-2.63-.23-.69h0l-.23-.68L112.25,105l-.27-.84-.41-1.25-.06-.11-1.58-5.68-1.49-1.42-2-.62-.08,0-1.08-1.13-1-.52-.52-1.42-.83-.83-2.53-2.54-4.46-2.28,4.2,2.58L103.07,92ZM113,155.34l-.24,1.15.42.93a3.77,3.77,0,0,1,1.67,2.87c0,1.65,1.13,3.59,1.55,5.39s.91,5.91.3,8.23-.57,13.54-.57,13.54l-.14,9.72.29-3.22,1.24-24-.39-8.32-1.32-7.38-.6-.88.61-.53-.43-2.61v-7.66l.31-3.19-.83,3.27-.19,3.45-1.18,2.51,1.1-.84V150l-.64,2.32.91-.33ZM80.41,236.23,84,222.07l2.11-6.54,1.8-5.72,1-5.45-1.51,5.39-2.25,6.36-2.07,8.39Zm28.82,6.22a10.38,10.38,0,0,0,3.75,2.07s6.73,1.92,4.52,4.73a.69.69,0,0,0,.13,1.07,2.05,2.05,0,0,0,.36.22,1.4,1.4,0,0,0,.26.11l2.44-.54,1.14-1.74-.11-.76-.11-.19v-.3l-4.73-1.42-4.51-2.3-2.69-1.72-.17.29-.24-.15-.55-2.09.07-2.61-.33.08C108,239.05,107.65,241,109.23,242.45Z" transform="translate(-65.64 -58.85)"/><path class="cls-47" d="M67.24,143.94h0L67,147.17l.38,3.26,1.22,1.88,2.09,1.47.49.13,0,.05.63.15L70.61,154l-2.18-1.44L67,150.64l-.35-3.56ZM85.17,86.11h0l.14.06.87-.94,4.3.08-.2,0L86.07,85ZM67.45,130.87l1.2,3.12.8.32.23,2.16.42,4.29-.39-6.35,0-.22-.29-.32-.24-.28-1.48-2.89-.15-4Zm5.79,88,.4-9,.83-6.27L78.38,193,79,180l-1.62-9.54,1,9.72-.74,13-.93,2.72-.92,2.63L74,203.76l-.72,5.86.07,6.06Zm25.06-11v6.34l.94,8.74,0-.26-.72-8.7,0-6.06,1.38-6,1.56-6.21-.26-2.41-.27-1-2.45-7.5.24.83,2,7.53v2.41l-.85,4.53L99.12,204l-.27,1.28-.16.74Zm-13-136,.5,2.78.51,1.23h0l.08.78-.09-.78.08.78.94,2.12,3,3.66h0l.13.45.18.13.24,1.12-.23,1.17h.12l.31-1.23-.14-.63-.07-.31-.6-1.1L87.61,78.6l-1-1.89v-.65l-.42-1.19v-.06L86,74.39l-.45-2.57.29-2.9Z" transform="translate(-65.64 -58.85)"/></g></g></svg>