<svg xmlns="http://www.w3.org/2000/svg" xmlns:xlink="http://www.w3.org/1999/xlink" viewBox="0 0 530 231.15"><defs><style>.cls-1{isolation:isolate;}.cls-2{opacity:0.21;fill:url(#linear-gradient);}.cls-3{fill:#5ebaff;opacity:0.86;}.cls-4{fill:#4799e0;}.cls-5{fill:url(#linear-gradient-2);}.cls-6{fill:#4a5c63;}.cls-7{opacity:0.88;fill:url(#linear-gradient-3);}.cls-10,.cls-11,.cls-13,.cls-23,.cls-25,.cls-26,.cls-27,.cls-28,.cls-30,.cls-31,.cls-52,.cls-53,.cls-56,.cls-57,.cls-61,.cls-63,.cls-64,.cls-7,.cls-70,.cls-71,.cls-73,.cls-74,.cls-75,.cls-76,.cls-77,.cls-78,.cls-9{mix-blend-mode:multiply;}.cls-8{fill:url(#linear-gradient-4);}.cls-9{opacity:0.24;}.cls-10,.cls-11,.cls-12{fill:#bd80a3;}.cls-10{opacity:0.41;}.cls-11{opacity:0.16;}.cls-13{fill:#9484ff;opacity:0.15;}.cls-14,.cls-15,.cls-16{opacity:0.18;}.cls-14{fill:url(#linear-gradient-5);}.cls-15{fill:url(#linear-gradient-6);}.cls-16{fill:url(#linear-gradient-7);}.cls-17,.cls-18,.cls-19,.cls-20{fill:#ffd4b5;}.cls-17{opacity:0.25;}.cls-18{opacity:0.57;}.cls-19{opacity:0.44;}.cls-20{opacity:0.67;}.cls-21{fill:url(#linear-gradient-8);}.cls-22{fill:url(#linear-gradient-9);}.cls-23{fill:url(#linear-gradient-10);}.cls-24{fill:#d49473;}.cls-24,.cls-29{opacity:0.55;}.cls-25{fill:url(#linear-gradient-11);}.cls-26{fill:url(#linear-gradient-12);}.cls-27{fill:url(#linear-gradient-13);}.cls-28{fill:url(#linear-gradient-14);}.cls-29{fill:#d4949e;}.cls-30{fill:url(#linear-gradient-15);}.cls-31{fill:url(#linear-gradient-16);}.cls-32{fill:#ba7073;}.cls-33{fill:#b0a66b;}.cls-34{fill:#bf9e4f;}.cls-35{fill:#c7965c;}.cls-36{fill:#63544d;}.cls-37{fill:#636b75;}.cls-38{fill:#e5bf9e;}.cls-39{fill:#f1d4b3;}.cls-40{fill:#545669;}.cls-41{fill:#e6e7e8;}.cls-42{fill:url(#linear-gradient-17);}.cls-43{fill:url(#linear-gradient-18);}.cls-44{fill:#00a3e0;}.cls-45{fill:#0099d4;}.cls-46{fill:url(#linear-gradient-19);}.cls-47{fill:#775642;}.cls-48{fill:#dcbd6b;}.cls-49{fill:#f7d479;}.cls-50{fill:#de9659;}.cls-51{fill:#876455;}.cls-52{fill:#edccc1;}.cls-53{fill:url(#linear-gradient-20);}.cls-54{fill:#b98858;}.cls-55{fill:#5b7e9d;}.cls-56{fill:#e1d6dc;}.cls-57{fill:url(#linear-gradient-21);}.cls-58{fill:#956c54;}.cls-59{fill:#708db4;}.cls-60{fill:#8d6f52;}.cls-61,.cls-67,.cls-74{fill:#edd9d4;}.cls-62{fill:#c49e70;opacity:0.2;}.cls-63{fill:url(#linear-gradient-22);}.cls-64{fill:url(#linear-gradient-23);}.cls-65{fill:#6a9bc1;}.cls-66{fill:#5884b1;}.cls-68{fill:#edd4b5;}.cls-69{fill:#e3cca6;}.cls-70{fill:url(#linear-gradient-24);}.cls-71{fill:url(#linear-gradient-25);}.cls-72{fill:#726658;}.cls-73{fill:url(#linear-gradient-26);}.cls-74{opacity:0.56;}.cls-75{fill:url(#linear-gradient-27);}.cls-76{fill:url(#linear-gradient-28);}.cls-77{fill:url(#linear-gradient-29);}.cls-78{fill:url(#linear-gradient-30);}.cls-79{fill:#e4c099;}.cls-80{opacity:0.8;fill:url(#linear-gradient-31);}.cls-81{fill:url(#linear-gradient-32);}</style><linearGradient id="linear-gradient" x1="265" y1="288.84" x2="265" y2="152.91" gradientTransform="matrix(-1, 0, 0, 1, 530, 0)" gradientUnits="userSpaceOnUse"><stop offset="0" stop-color="#f5e6e3"/><stop offset="0.57" stop-color="#fcf7f7"/><stop offset="0.99" stop-color="#fff"/></linearGradient><linearGradient id="linear-gradient-2" x1="265" y1="290" x2="265" y2="82.41" gradientTransform="matrix(-1, 0, 0, 1, 530, -58.85)" gradientUnits="userSpaceOnUse"><stop offset="0" stop-color="#634561"/><stop offset="0.12" stop-color="#6a4b65"/><stop offset="0.3" stop-color="#7e5b70"/><stop offset="0.52" stop-color="#9e7482"/><stop offset="0.76" stop-color="#cb989b"/><stop offset="1" stop-color="#ffc2b8"/></linearGradient><linearGradient id="linear-gradient-3" x1="265" y1="290" x2="265" y2="85.17" gradientTransform="matrix(-1, 0, 0, 1, 530, 0)" gradientUnits="userSpaceOnUse"><stop offset="0.01" stop-color="#8f5cad"/><stop offset="0.17" stop-color="#a572b5"/><stop offset="0.54" stop-color="#d19ec6"/><stop offset="0.83" stop-color="#edbad0"/><stop offset="1" stop-color="#f7c4d4"/></linearGradient><linearGradient id="linear-gradient-4" x1="33.47" y1="282.04" x2="530" y2="282.04" gradientTransform="matrix(-1, 0, 0, 1, 530, -58.85)" gradientUnits="userSpaceOnUse"><stop offset="0" stop-color="#59ab9e"/><stop offset="0.18" stop-color="#5db3a9"/><stop offset="0.51" stop-color="#69c8c7"/><stop offset="0.93" stop-color="#7deaf6"/><stop offset="1" stop-color="#80f0ff"/></linearGradient><linearGradient id="linear-gradient-5" x1="20.67" y1="257.14" x2="200.67" y2="257.14" gradientTransform="matrix(-1, 0, 0, 1, 530, -58.85)" gradientUnits="userSpaceOnUse"><stop offset="0" stop-color="#8c9c94"/><stop offset="1" stop-color="#c4b8a1"/></linearGradient><linearGradient id="linear-gradient-6" x1="187" y1="244.82" x2="266.75" y2="244.82" xlink:href="#linear-gradient-5"/><linearGradient id="linear-gradient-7" x1="292.63" y1="263.78" x2="348" y2="263.78" xlink:href="#linear-gradient-5"/><linearGradient id="linear-gradient-8" x1="321.5" y1="267.89" x2="530" y2="267.89" gradientTransform="matrix(-1, 0, 0, 1, 530, -58.85)" gradientUnits="userSpaceOnUse"><stop offset="0" stop-color="#a66a5b"/><stop offset="0.98" stop-color="#6d4b75"/></linearGradient><linearGradient id="linear-gradient-9" x1="321.5" y1="254.63" x2="530" y2="254.63" gradientTransform="matrix(-1, 0, 0, 1, 530, -58.85)" gradientUnits="userSpaceOnUse"><stop offset="0.02" stop-color="#e6bab8"/><stop offset="0.98" stop-color="#a9664f"/></linearGradient><linearGradient id="linear-gradient-10" x1="415.15" y1="250.59" x2="530" y2="250.59" gradientTransform="matrix(-1, 0, 0, 1, 530, -58.85)" gradientUnits="userSpaceOnUse"><stop offset="0.02" stop-color="#7d6b99"/><stop offset="0.25" stop-color="#8774a0"/><stop offset="0.62" stop-color="#a08bb2"/><stop offset="1" stop-color="#c2a9c9"/></linearGradient><linearGradient id="linear-gradient-11" x1="366.54" y1="290" x2="366.54" y2="248.85" gradientTransform="matrix(-1, 0, 0, 1, 530, 0)" gradientUnits="userSpaceOnUse"><stop offset="0.01" stop-color="#e1c5df"/><stop offset="0.18" stop-color="#cab6d4"/><stop offset="0.53" stop-color="#a09abf"/><stop offset="0.81" stop-color="#8788b2"/><stop offset="0.98" stop-color="#7d82ad"/></linearGradient><linearGradient id="linear-gradient-12" x1="489.88" y1="290" x2="489.88" y2="265.88" gradientTransform="matrix(-1, 0, 0, 1, 530, -58.85)" xlink:href="#linear-gradient-11"/><linearGradient id="linear-gradient-13" x1="404.27" y1="290" x2="404.27" y2="254.22" gradientTransform="matrix(-1, 0, 0, 1, 530, -58.85)" xlink:href="#linear-gradient-11"/><linearGradient id="linear-gradient-14" x1="448.43" y1="290" x2="448.43" y2="258.62" gradientTransform="matrix(-1, 0, 0, 1, 530, -58.85)" xlink:href="#linear-gradient-11"/><linearGradient id="linear-gradient-15" x1="458.23" y1="242.87" x2="527.19" y2="242.87" xlink:href="#linear-gradient-10"/><linearGradient id="linear-gradient-16" x1="499.38" y1="260.04" x2="530" y2="260.04" gradientTransform="matrix(-1, 0, 0, 1, 530, 0)" xlink:href="#linear-gradient-10"/><linearGradient id="linear-gradient-17" x1="428.41" y1="156.3" x2="428.41" y2="88.28" gradientTransform="matrix(-1, 0, 0, 1, 530, -58.85)" gradientUnits="userSpaceOnUse"><stop offset="0" stop-color="#7c9b4f"/><stop offset="1" stop-color="#797f63"/></linearGradient><linearGradient id="linear-gradient-18" x1="414.29" y1="118.87" x2="414.29" y2="104.18" gradientTransform="matrix(-1, 0, 0, 1, 530, -58.85)" gradientUnits="userSpaceOnUse"><stop offset="0" stop-color="#738549"/><stop offset="1" stop-color="#6f755c"/></linearGradient><linearGradient id="linear-gradient-19" x1="425.54" y1="89.48" x2="446.55" y2="89.48" gradientTransform="matrix(-1, 0, 0, 1, 530, -58.85)" gradientUnits="userSpaceOnUse"><stop offset="0" stop-color="#819b68"/><stop offset="1" stop-color="#7c9465"/></linearGradient><linearGradient id="linear-gradient-20" x1="421.26" y1="84.85" x2="428.86" y2="84.85" gradientTransform="matrix(-1, 0, 0, 1, 530, -58.85)" gradientUnits="userSpaceOnUse"><stop offset="0" stop-color="#d9dbd8"/><stop offset="1" stop-color="#cbae67"/></linearGradient><linearGradient id="linear-gradient-21" x1="436.79" y1="200.53" x2="436.79" y2="171.94" gradientTransform="matrix(-1, 0, 0, 1, 530, -58.85)" gradientUnits="userSpaceOnUse"><stop offset="0" stop-color="#d9dbd8"/><stop offset="1" stop-color="#d0be90"/></linearGradient><linearGradient id="linear-gradient-22" x1="413.8" y1="132.87" x2="429.91" y2="132.87" gradientTransform="matrix(-1, 0, 0, 1, 530, 0)" xlink:href="#linear-gradient-20"/><linearGradient id="linear-gradient-23" x1="409.82" y1="120.56" x2="414.62" y2="120.56" xlink:href="#linear-gradient-20"/><linearGradient id="linear-gradient-24" x1="426.5" y1="251.49" x2="426.5" y2="236.7" gradientTransform="matrix(-1, 0, 0, 1, 530, 0)" gradientUnits="userSpaceOnUse"><stop offset="0.01" stop-color="#e1a1c4"/><stop offset="0.18" stop-color="#ca9abf"/><stop offset="0.53" stop-color="#a08db5"/><stop offset="0.81" stop-color="#8785af"/><stop offset="0.98" stop-color="#7d82ad"/></linearGradient><linearGradient id="linear-gradient-25" x1="455.09" y1="248.53" x2="455.09" y2="235.35" xlink:href="#linear-gradient-24"/><linearGradient id="linear-gradient-26" x1="430" y1="77.82" x2="433.31" y2="77.82" xlink:href="#linear-gradient-20"/><linearGradient id="linear-gradient-27" x1="422.75" y1="75.18" x2="444.6" y2="75.18" gradientTransform="matrix(-1, 0, 0, 1, 530, -58.85)" xlink:href="#linear-gradient-24"/><linearGradient id="linear-gradient-28" x1="433.72" y1="131.05" x2="433.72" y2="99.57" xlink:href="#linear-gradient-20"/><linearGradient id="linear-gradient-29" x1="431.41" y1="152.56" x2="452.78" y2="152.56" xlink:href="#linear-gradient-20"/><linearGradient id="linear-gradient-30" x1="434.52" y1="237.48" x2="434.52" y2="85.05" gradientTransform="matrix(-1, 0, 0, 1, 530, 0)" gradientUnits="userSpaceOnUse"><stop offset="0.01" stop-color="#f5a2c6"/><stop offset="0.02" stop-color="#f3a1c6"/><stop offset="0.35" stop-color="#b98cbe"/><stop offset="0.63" stop-color="#8f7db8"/><stop offset="0.85" stop-color="#7573b4"/><stop offset="0.98" stop-color="#6b70b3"/></linearGradient><linearGradient id="linear-gradient-31" x1="430.54" y1="250.65" x2="430.54" y2="58.85" gradientTransform="matrix(-1, 0, 0, 1, 530, 0)" gradientUnits="userSpaceOnUse"><stop offset="0" stop-color="#fadbff"/><stop offset="1" stop-color="#ffffd1"/></linearGradient><linearGradient id="linear-gradient-32" x1="445.95" y1="222.92" x2="445.95" y2="68.92" gradientTransform="matrix(-1, 0, 0, 1, 530, 0)" gradientUnits="userSpaceOnUse"><stop offset="0" stop-color="#66bdff"/><stop offset="0.98" stop-color="#e3c2fa"/></linearGradient></defs><title>layer3</title><g class="cls-1"><g id="Layer_1" data-name="Layer 1"><path class="cls-2" d="M0,164.61V288.84H530V169.34c-16.19-3.09-30-5.52-30-5.52l-13.5,2.69-11-2.69-32.5-5-15,2.5H394l-20,8.36H344l-23,3.55-24-6.72-11-3.84L257.93,160l-14.18,1.79L232.67,160,211,161.56l-3.5,4.95s-9,3.52-10.5,3.17-13.5-3.17-13.5-3.17l-10-3s-11.83,6-13.83,6.18-12.23-7-12.23-7L128,155.56l-40.5-2.65L73,158.82l-12.5-3.26L31,163.07l-8-2.38-10,5.82Z" transform="translate(0 -58.85)"/><polygon class="cls-3" points="468.4 99.92 440.48 93.32 427.12 98.25 417.73 94.31 387.73 101.93 365.04 101.93 338.9 115.37 303.86 115.37 274.25 107.16 257.99 107.16 230.75 114.02 220.68 114.02 201.75 119.05 188.86 124.72 177.98 123.1 171.54 124.72 150.19 116.29 142.13 107.16 130.78 105.7 72.15 111.94 69.72 119.05 47.47 130.78 196.91 157.12 306.07 147.76 468.4 99.92"/><polygon class="cls-4" points="0 79.18 0 157.71 465.33 157.71 465.33 80.4 445.23 79.31 441.26 81.16 436.88 79.31 421.15 78.17 408.64 85.29 402.56 82.3 381.81 86.15 377.11 89.57 370.81 109.39 364.26 111.52 361.45 110.96 350.11 116.09 336.77 112.92 324.24 112.92 317.28 114.81 311.5 114.52 290.61 125.73 283.04 125.73 270.11 130.68 255.55 137.32 240.86 139.47 211.41 143.39 193.1 136.96 175.97 136.96 158.47 132.5 146.53 133.45 129.81 125.73 123.85 124.35 114.69 115.52 107.52 106.13 100.64 103.75 93.7 104.09 83.87 92.53 69.31 91.45 49.15 88.43 37.24 88.57 22.56 86.08 2.85 79.31 0 79.18"/><polygon class="cls-5" points="0 122.68 0 231.15 530 231.15 530 57.22 513.08 46.48 495.33 44.56 473.5 36.92 466.33 30.56 455.17 29.82 444.33 33.48 439.09 32.13 438.5 31.98 434.33 26.32 427.67 23.56 411 33.89 407.33 38.22 392 34.56 383.45 41.56 366.33 53.42 357.33 53.42 351.67 55.89 341.75 58.02 325 74.35 317.33 72.65 317.1 72.91 317.09 72.93 308.5 82.89 304.75 86.89 300.75 86.89 294.5 92.39 284 106.49 274.25 109.64 265 122.39 239.25 138.39 217.33 140.22 206.63 142.51 204.67 142.93 183.83 151.39 181.33 150.56 147.44 155.39 139.64 153.65 110.48 147.15 94.87 148.81 65.2 139.96 57.43 140.56 42.23 132.6 36.87 131.6 11.61 121.41 3.33 125.19 0 122.68"/><polygon class="cls-6" points="530 160.65 522.75 163.65 518.5 163.65 502.5 169.65 465.33 172.15 439.7 181.4 432.75 181.4 421 182.65 392.33 182.65 388.67 182.65 385.58 184.48 378.67 184.48 376 184.48 370.75 184.48 364 182.19 369 178.4 384.33 174.48 388.67 169.48 396.55 157.71 395.75 155.9 387 165.52 369.25 167.65 365 166.15 361.5 168.65 353 167.9 327.25 172.56 323.5 172.56 318.75 174.65 286.5 179.66 284.25 182.19 276.75 182.19 257.93 191.72 254.75 190.48 249.5 191.72 240.5 189.39 222.5 191.72 219 191.72 217.5 186.93 227.5 182.19 228.5 177.32 211 179.66 205 178.4 185.25 177.32 177 175 164.91 179.66 162.88 178.15 151.75 178.77 147.44 180.73 143.88 181.02 134.25 183.13 127.98 182.19 117 183.52 114.86 179.15 110.13 178.27 104.12 179.66 96.13 177.31 65.75 174.99 61.88 176.18 52.92 174.99 49.25 176.18 39.5 172.65 33.5 172.77 29 170.9 22.25 166.9 18.13 159.4 10.75 155.65 7.88 151.65 6.63 151.65 0 148.4 0 231.15 530 231.15 530 160.65"/><path class="cls-7" d="M392.34,116.15v2.5l-5.5,10.5L377,142.48l-6.5,18.28L365,163.6l-2.75,7.94-9.58,6.69-8.42,8L338,187.65l-7.83,13.16L324,203.17l-11.75,15.31,4.25-8.73,2.62-6.37,7.76-8.88,8.24-12.17,3.5-11.45,2.59-9.11,11.46-5.33,6.08-6.63-4.37-5.91,14.12-20.57-.62-4.22-12.44,3.26L372,114.1,382.38,107l10-2.91,1.5-4L392,93.41l9.88,2.34,5.45,1.3-9.66,14.1ZM427.67,110l16.66-17.67-5.83-1.5-4.17-5.66-14.08,17-9.25.69-7.83,16.24L393,129.83,407.33,120l6.34-8.75ZM0,187.83V290H530V169.67l-4,7.66-6.33,3.34-20,30.37h-3.14l-19.2,7.63H447.67l-23.17-1-20,5.83,9.5-18.17,13.77-22.08,1.73-8.75-5.5,9.57-6,5.6-10.67,13.07-13.58,4.51L384,202.74,393,160l-20.25,42.74-16.34,8.43V205L343.5,216.5l-9-.52-21,7-4.25-1.08H303l-3.75-10.42L304.32,196l12.77-15.51,7.66-19.74-9.5,13.49L268.33,216l-4,.58-3.07,8.77-10-2.08-10.75-5.76,2.75-5.74-16.42.24,12.42-14.75-34.06,16.7,1.23-.11L183,216l23.63-14.62-2,.42-20.84,8.46-2.5-.83-33.89,4.83-7.8-1.74-5.39,2.25-8.92-2.25-7.55,6.5-20.1-7.67L92,210.5l-27.78-7.83,7.72,9.66-19-7L39,195.39l-13.33-4.62-6.5,2.79L7.83,186.23,2.67,188.5ZM521.33,131.5l8.67-7.42v-8l-16.92-10.73-24.33,20.49,1.75,1.4L475.17,147.5l-6.77,1-14.23,14.13L470.52,154l11.81-1.09,1,1.76L479,169l17-28.42,12.33-10.75L501.5,145l13.33-12.67Zm-67.16,47.44L429.5,194.67l19.33-5,6.34,1.21L459,180l1.5-10.83ZM461.08,105l12.42-9.23-7.17-6.36-17.5,18.09-1.21-.5,1.21-1.66-1.21-.72-14.24,17L424.69,123,412,136.17l14.33-10.92,8.5-.33,12.84-12.11,1.08.21-4.83,7Z" transform="translate(0 -58.85)"/><polygon class="cls-8" points="496.53 231.15 320.62 224.8 337.61 223.43 228.62 223.43 214.25 222.07 207.25 223.52 187 219.82 147.44 219.82 0.12 215.22 0 231.15 496.53 231.15"/><g class="cls-9"><polygon class="cls-10" points="455.44 32.52 453 35.07 475.6 47.17 454.17 38.57 480.27 54.17 485.05 51.94 483.45 46.53 459.58 35.49 473.16 39.84 455.44 32.52"/><polygon class="cls-11" points="447.63 41.02 445.13 43.4 480 60.28 447.63 41.02"/><polygon class="cls-11" points="457.83 87.65 428.33 73.65 445.83 83.65 410.83 70.98 407.33 73.31 434.17 83.65 412 77.31 452 92.48 452 88.98 457.83 87.65"/><polygon class="cls-11" points="455.17 101.15 404.5 78.98 451 102.94 455.17 101.15"/><polygon class="cls-11" points="429.83 106.48 390 87.15 384.67 90.96 416.25 106.48 398.67 95.98 429.83 106.48"/><polygon class="cls-10" points="414 118.65 378.5 106.48 375.5 110.82 414 121.15 414 118.65"/><polygon class="cls-12" points="413.5 125.56 411.58 128.81 377 114.48 413.5 125.56"/><polygon class="cls-10" points="463.33 127.35 435.71 115.48 434.33 119.48 457.19 131.84 447.56 124.96 462.44 128.81 463.33 127.35"/><polygon class="cls-11" points="462.92 139.9 440.17 131.84 432.75 124.56 431.42 128.81 437.5 137.06 460.17 147.06 446.67 138.65 462.92 139.9"/><polygon class="cls-12" points="468.75 156.23 427.17 141.98 424.5 147.81 454.42 155.31 450.25 152.9 468.75 156.23"/><polygon class="cls-11" points="346.02 60.18 343.63 63.83 372.91 68.62 378.75 70.98 361.19 62.78 346.02 60.18"/><polygon class="cls-11" points="363.83 55.9 357.69 55.9 355.75 56.52 375.5 62.02 367 62.02 384.67 66.4 388.25 63.15 363.83 55.9"/><polygon class="cls-10" points="388.25 54.27 373.75 49.9 370.5 52.77 389.63 58.02 388.25 54.27"/><polygon class="cls-11" points="436.81 43.77 434.44 46.09 419.19 35.96 429.44 46.48 412.56 34.27 421.06 30.27 429.63 37.4 425.81 36.02 434.88 43.34 436.81 43.77"/><polygon class="cls-12" points="425.75 27.4 424.25 28.46 440.63 40.65 427.31 26.96 425.75 27.4"/><polygon class="cls-10" points="377 88.65 374.38 95.98 348.88 97.9 344.75 99.15 344.25 95.98 359.63 91.52 365.25 90.96 357.69 90.27 377 88.65"/><polygon class="cls-12" points="369 101.15 365 104.77 339.75 106.48 342.13 104.65 369 101.15"/><polygon class="cls-12" points="356.13 112.27 338.63 109.65 335.5 112.27 352.25 115.77 344.25 112.62 356.41 112.71 356.13 112.27"/><polygon class="cls-12" points="351.75 81.98 352.67 84.81 327.25 97.4 326.42 94.73 320.92 95.98 307.67 88.65 323.42 92.81 331 91.56 351.75 81.98"/><polygon class="cls-12" points="344.25 81.98 317.5 74.98 314.75 78.15 330.67 81.65 315.67 80.15 338.75 85.06 344.25 81.98"/><polygon class="cls-12" points="284.5 109.65 277.88 111.52 275.13 115.15 312.25 121.15 286.25 113.52 309.25 117.4 284.5 109.65"/><polygon class="cls-12" points="289.88 102.94 287.5 105.9 307.67 111.77 314.25 112.71 319.13 117.65 315.88 110.82 308.5 109.65 295.13 103.81 309.13 107.15 291.13 101.15 289.88 102.94"/></g><polygon class="cls-13" points="407.33 38.22 397.67 52.31 392.33 57.31 392.33 59.81 386.83 70.31 372.33 78.81 364.67 83.65 363.83 75.65 372.33 64.81 371 59.65 385.58 49.48 392.5 48.18 395.92 46.19 396.33 44.48 400.38 42.15 401.88 36.92 407.33 38.22"/><polygon class="cls-14" points="509.33 177.85 491.33 182.19 472.94 182.19 463.67 184.98 457 184.98 415.5 196.27 403.33 197.15 399.63 202.02 389.63 202.27 387.5 204.52 363 209.04 360.67 209.37 350.33 211.67 340.92 216.65 329.33 218.73 341.83 218.23 352.25 214.23 355.25 213.98 358.75 212.73 360 213.48 362.17 211.98 364.67 212.81 367 210.73 375.75 209.9 377.83 208.48 383.5 209.4 385.83 207.65 389.42 207.65 390.92 204.73 396.58 204.06 400.25 204.06 403.67 201.65 407.25 198.29 416.25 198.9 417.92 197.48 422.58 197.23 436.58 192.23 456.33 186.65 447.25 191.4 460.58 186.73 466.33 186.4 472.83 183.73 491.25 183.56 509.33 177.85"/><polygon class="cls-15" points="343 176.15 332.75 178.63 326.75 178.63 309.83 184.98 301.75 183.9 288.25 184.98 283.5 187.71 278.67 187.71 263.25 195.78 279 189.77 283.25 189.77 289.38 185.96 300.88 185.96 303.13 186.93 304.88 185.96 310.25 186.93 327.38 180.15 333.88 180.15 343 176.15"/><polygon class="cls-16" points="237.38 192.72 230.75 196.52 228.88 196.52 227.13 197.9 225.75 197.9 223.13 199.27 218.75 199.27 209.75 204.27 205.88 204.27 202.88 206.52 188.78 213.02 182 217.15 190.13 213.9 202.25 209.04 203.63 209.04 204.88 207.4 205.5 208.15 208.5 205.9 213.13 204.93 219 200.52 223.83 200.52 226.17 198.81 229.25 198.31 229.46 197.44 231.83 197.15 237.38 192.72"/><polygon class="cls-17" points="183 157.12 183 157.12 206.63 142.51 217.33 140.22 239.25 138.39 205.19 155.08 183 157.12"/><polygon class="cls-17" points="243.25 152.9 271.67 123.48 255.67 152.9 258.67 153.81 265 149.48 266.67 150.98 261.25 166.48 251.25 164.4 240.5 158.64 243.25 152.9"/><polygon class="cls-17" points="309.25 163.07 324 144.32 330.17 141.96 338 128.8 344.25 127.34 353.38 118.89 345.95 131.84 341 135.15 335.5 147.76 330.17 158.58 313.5 164.15 309.25 163.07"/><polygon class="cls-18" points="427.67 23.56 434.33 26.32 420.25 43.35 411 44.04 403.17 60.28 393 70.98 390.13 81.14 382.38 88.65 370.5 101.91 377 83.15 386.84 70.3 392.34 59.8 392.34 57.3 397.67 52.3 407.33 38.2 411 33.89 427.67 23.56"/><polygon class="cls-19" points="513.08 46.48 488.75 66.98 490.5 68.38 475.17 88.65 468.4 89.69 454.17 103.81 435.71 113.81 458.67 88.65 472 75.98 470.88 75.77 463 83.02 461.5 81.46 477.88 64.09 495.33 44.56 513.08 46.48"/><polygon class="cls-17" points="356.41 146.15 370.5 125.22 375.5 123.48 393 101.15 372.75 143.89 356.41 152.31 356.41 146.15"/><polygon class="cls-17" points="324.75 101.91 313.54 103.68 309.32 106.97 289.75 116.3 268.33 157.12 309.06 120.9 316.9 113.43 324.75 101.91"/><polygon class="cls-20" points="274.25 109.64 290.64 106.81 300.75 86.89 294.5 92.39 284 106.49 274.25 109.64"/><polygon class="cls-20" points="304.75 86.89 313 86.89 315.83 79.57 313.83 80.03 317.33 72.65 305.17 86.65 304.75 86.89"/><polygon class="cls-18" points="466.33 30.56 448.83 48.65 447.63 48.15 448.83 46.48 447.63 45.77 433.38 62.73 424.69 64.16 412 77.31 402.42 83.65 409.25 75.52 411.88 69.52 407.88 68.38 393 74.98 390.13 81.14 393 70.98 407.33 61.15 413.67 52.4 427.67 51.15 444.33 33.48 455.17 29.82 466.33 30.56"/><polygon class="cls-17" points="429.5 115.65 423.67 117.94 410.83 127.35 392.17 141.98 387.83 145.66 393.75 148.4 407.33 143.89 418.44 130.41 424.5 125.22 429.5 115.65"/><polygon class="cls-17" points="530 110.82 526 118.48 519.67 121.82 499.67 152.19 504.33 131.84 504 125.22 499.67 124.56 494.83 126.65 493.67 126.48 509.33 109.15 510.83 110.31 509.33 113.81 513 113.81 523.83 100.31 523.17 97.65 521.33 97.65 530 87.98 530 110.82"/><polygon class="cls-17" points="460.5 110.31 441.67 115.77 440.83 120.08 429.5 135.81 454.17 120.08 460.5 110.31"/><polygon class="cls-18" points="392 34.56 393.88 41.25 392.38 45.25 382.38 48.16 371.71 55.34 364.4 58.93 355.44 63.52 366.33 53.42 383.75 41.31 392 34.56 392 34.56"/><polygon class="cls-20" points="333.5 75.98 332.59 74.35 325 74.35 341.75 58.02 357.33 53.42 342.33 71.81 341.15 78.98 318.17 98.26 333.5 75.98"/><polygon class="cls-17" points="367.88 60.26 362.12 61.77 354.38 85.05 368.5 64.48 367.88 60.26"/><polygon class="cls-21" points="208.5 187.32 208.5 192.93 200.67 197.31 207.17 197.31 207.17 200.65 180.5 212.31 180.5 214.48 162.83 222.31 160.5 225.48 160.5 231.15 0 231.15 0 186.93 208.5 187.32"/><polygon class="cls-22" points="0 182.19 140.5 183.18 99.71 185.97 145.75 184.83 197 185.97 208.5 187.32 186 189.99 137.75 191.11 156.75 192.32 162.88 192.32 162.38 192.88 142.88 195.45 123.88 195.45 70.83 200.31 49.51 199.21 40.74 199.98 76.69 203.14 76.92 205.48 16.75 209.37 0 206.23 0 182.19"/><polygon class="cls-23" points="67.83 188.15 49.44 187.45 32 187.45 38.88 186.9 49.46 186.26 49.31 185.21 34.5 185.52 8.63 186.4 0 186.93 0 197.02 10.13 198.27 17.38 198.15 25.8 197.15 63.25 197.27 99.22 193.9 114.86 191.67 104.25 191.27 95.56 191.34 77.25 191.59 58.38 192.26 53.81 191.52 76.06 189.93 83.39 188.15 67.83 188.15"/><polygon class="cls-24" points="162.88 192.32 162.13 197.52 151.13 209.37 141.88 225.02 140.25 230.9 132 231.02 133.13 221.52 140.5 210.77 135.13 213.77 143.5 195.37 162.88 192.32"/><polygon class="cls-24" points="76.92 205.48 73.76 211.67 69.5 213.52 72.13 213.52 69.5 223.77 63.97 231.15 56.02 231.15 63.33 223.36 63.5 215.11 52.92 207.03 76.92 205.48"/><path class="cls-25" d="M141.88,283.88,140.22,290h15.35c.59-3.25,1.1-6,1.1-6l9.13-10.88,4.37-7.24,17.38-5.63,1.62-3.75-5.33-.75-2.17-1.12,4.11-5.78-48,1.11,19,1.21h6.13l-.75,5.21-11,11.84Z" transform="translate(0 -58.85)"/><polygon class="cls-26" points="30.05 219.59 24.93 221.03 36.05 226.9 42.3 224.4 38.43 228.77 36.78 231.15 56.02 231.15 63.33 223.36 63.5 215.11 52.92 207.03 16.75 209.37 30.05 216.53 30.05 219.59"/><polygon class="cls-27" points="107.97 231.15 132.01 231.15 133.13 221.53 140.5 210.77 135.13 213.77 143.5 195.37 142.88 195.45 123.88 195.45 122.87 195.54 114.86 210.03 115.93 214.27 109.43 218.32 109.43 227.27 107.97 231.15"/><polygon class="cls-28" points="85.17 222.03 83.43 222.03 85.55 209.37 87.05 209.37 89.17 205.48 99.17 200.65 99.17 199.77 69.97 202.55 76.69 203.14 76.92 205.48 73.76 211.67 69.5 213.53 72.13 213.53 69.5 223.77 63.97 231.15 85.31 231.15 85.17 222.03"/><polygon class="cls-29" points="140.5 183.18 140.25 184.98 99.47 186.02 118 184.6 140.5 182.89 140.5 183.18"/><polygon class="cls-30" points="9.44 183.71 20 183.71 16.31 184.7 34.56 184.15 34.56 184.7 43.38 184.15 44 184.7 48.86 184.15 53.94 185.05 53.94 185.8 63.97 185.8 71.77 185.33 56.25 182.7 41.25 182.48 5.69 182.23 2.81 183.09 13 183.09 9.44 183.71"/><path class="cls-31" d="M0,258.73l2.81.69L0,259.69l2.81.4L0,260.81v.69l10.25-.44-2.94,1.06,7.21-1-.71,1,3.94-1.18,1.13,1.18,2.68-.87,3.75.87.75-.93,2.51.62-.44-.69L30.62,260h-.2l-4.54-.47s-5.32.54-5.5.47-5.07-1.22-5.07-1.22H9.56L6.37,258H0Z" transform="translate(0 -58.85)"/><path class="cls-32" d="M14.53,226.63c.26,1,.56,2.05.87,3.06.67,2.16,1.4,4.29,1.93,6.48.1.43.2.87.27,1.3h0c.13.63.23,1.26.3,1.9a.69.69,0,0,0,.39.46s0,.1,0,.15v0h0a.84.84,0,0,0,.33-.07,1,1,0,0,0,.4,0,.31.31,0,0,0,0,.08c.14.5,1.54.77,1.86.48.14.51.26,1,.42,1.54a.58.58,0,0,0,.13.23c.36.08.68.08.77-.11A12.29,12.29,0,0,0,23,239.7c.17,0,.29-.07.34-.19a1.39,1.39,0,0,0,.06-.19l.14.27a2.67,2.67,0,0,0,1.79.57c.54.2,1.22.27,1.26,0,.51-3.37-.38-6.6-.67-10-.06-.77-.53-2.2-.54-3,0-.61-1.23-.33-1.22,0,0,1.5.19,3,.34,4.49-.41-.09-.83-.07-1,.14s-.11.18-.16.27h0a5.11,5.11,0,0,0-.27.64c-.29-1.17-.6-2.31-.77-3.37,0-.3-.79-.54-1.33-.57-.35,0-.61,0-.58.23.27,1.67.88,3.52,1.2,5.35h0q.12.65.18,1.29h0c-.2.81-.34,1.63-.5,2.44h-.06a5.82,5.82,0,0,1,0-1.56c.06-.43-.35-.76-.8-.9a26.91,26.91,0,0,0-.67-5.35c-.05-.19-.1-.38-.17-.57-.12-.34-1.89-.79-1.92-.44a11.87,11.87,0,0,0,0,1.46c-.41-1.32-1.54-2.81-1.87-4.14C15.58,226,14.35,225.9,14.53,226.63Z" transform="translate(0 -58.85)"/><path class="cls-32" d="M24.74,241.1c.09.13.17.25.26.36s.19.21.28.3a1.68,1.68,0,0,0,.21.18h1.74v0l.08,0h.45A3.85,3.85,0,0,0,29,240.06c1.19-3.48.67-6.48.46-10h0c-.06-1.06-.66-2.86-.75-3.93,0-.55-.89-.77-.83-.11.07.9.15,1.81.23,2.73l0,.44h0a34.24,34.24,0,0,1,.1,4.64h0a17.07,17.07,0,0,1-.36,2.77,18.77,18.77,0,0,1-.81,3,6.66,6.66,0,0,1-.57,1.28.89.89,0,0,0-.12.24C26,240.67,24.33,240.48,24.74,241.1Z" transform="translate(0 -58.85)"/><path class="cls-32" d="M29.78,241.24a.79.79,0,0,0,.44.7h1.44a.48.48,0,0,0,.06-.18c.18-2.34,1.29-4.41,2-6.6a11.26,11.26,0,0,0,.52-2.53c.06-.88-1-1.19-1.11-.36a12.81,12.81,0,0,1-.91,2.81h0C31.72,236.55,30,238.34,29.78,241.24Z" transform="translate(0 -58.85)"/><path class="cls-32" d="M66,230.15a23.53,23.53,0,0,1,5.6,14.58c0,.9-1.93.53-1.95-.21-.08-5-1.17-10.27-4.44-14.18C64.45,229.43,65.52,229.58,66,230.15Z" transform="translate(0 -58.85)"/><path class="cls-32" d="M57.92,234.69c.51.91,1.78,1.68,2.31,2.59a2.17,2.17,0,0,1,.78.23,11.84,11.84,0,0,1-1.72-6c0-.45,1.67.16,1.83.33,2.66,2.79,2.77,7.41,5.05,10.39a8.83,8.83,0,0,0-.24-1.82c-1.32-2.55-2.4-5.21-3.63-7.81-.14-.32,1.68-.14,1.9.34.8,1.77,2.08,3.77,3,5.84.55,0,1.52.21,1.56.62.12,1.28.25,2.53.48,3.79.06.31-.57.25-1.12.07A6.8,6.8,0,0,1,68,244c-.1.45-1.51-.1-1.71-.23a7.73,7.73,0,0,1-.76-.6,2.25,2.25,0,0,0,.08.24c.14.46-1.25.05-1.7-.17.12.62-1.53.53-1.92-.05-1.85-2.74-3.5-5.61-5.12-8.5C56.33,233.8,57.54,234,57.92,234.69Z" transform="translate(0 -58.85)"/><path class="cls-32" d="M49.36,241c0-.24,0-.47-.08-.7-.08-.45.55-.5.85-.48A6.24,6.24,0,0,1,53.06,241c-.3-.58-.68-1.13-1-1.71-.46-.92,1.35-.55,1.69-.23a14,14,0,0,1,1.82,2.22c-.34-1.55-1.26-3-1.19-4.66,0-.71,1.51-.16,1.75.06A7.57,7.57,0,0,1,57.25,238a1.14,1.14,0,0,1,.51.29,18.74,18.74,0,0,1,2,3.36c.13.29-.37.31-.65.29.2.51.39,1,.6,1.52.38.91-1.55.71-1.82.08-.06-.16-.13-.32-.19-.49a3.68,3.68,0,0,1-.06.58c-.13.59-1.28.3-1.57.07a5.7,5.7,0,0,1-.64-.56c-.28.37-1.18.13-1.49-.06-.83-.51-1.66-1.39-2.59-1.85,0,.17,0,.34,0,.5.08.58-.78.49-1.11.43l-.62-.13C48.63,241.83,48.67,241.1,49.36,241Z" transform="translate(0 -58.85)"/><path class="cls-32" d="M2.26,253.81c.51.78,1.07,1.51,1.64,2.23l1.26,1.6a1.76,1.76,0,0,0,1,.37l.62.9a2.24,2.24,0,0,0,1.6.38c.11,0,.17-.11.11-.23l-.16-.32,0,0q-.53-1-1.14-1.95c.55.18,1.23.29,1.09-.13a20.33,20.33,0,0,0-.92-2.27c.72,1.13,1.38,2.32,2,3.51.25.45,2,.74,1.78.27,0-.1-.09-.19-.13-.28.44.18,1.07.31,1.25.13.17.28.34.55.53.81s1.83.78,1.71.14c0-.16-.07-.33-.11-.5a2.81,2.81,0,0,0,1.11.37,10.87,10.87,0,0,0,.58,1.59h2.77v0a.59.59,0,0,0,.16-.07l.08.1h1.57A8.08,8.08,0,0,0,22.08,256c0-.38-.42-.65-.82-.73a.71.71,0,0,0-.2,0,.89.89,0,0,0-.41.06A3.91,3.91,0,0,0,18.87,257c0-1.35,0-2.7-.16-4a.46.46,0,0,0-.08-.24c.58,0,1.08-.35.62-.92a5.54,5.54,0,0,1-.57-.8,1.1,1.1,0,0,0-1.21-.36.54.54,0,0,0-.2.1.46.46,0,0,0-.17.14l0,0c0-.65.08-1.28.11-1.93,0,0,0,0,0-.06.27-1.86.57-3.71.69-5.51,0-.24-.32-.46-.7-.59,0,0,0-.07,0-.1-.13-.31-.26-.62-.4-.92s-.16-.41-.25-.6a1.12,1.12,0,0,0,.24.08c0-.21,0-.4,0-.6.37,0,.66-.19.56-.57-.05-.22-.13-.43-.19-.65a2,2,0,0,0,.41.13c-.25-.89-.52-1.77-.82-2.64-.12-.36-.25-.73-.38-1.09q-1-2.94-2.38-5.78c-.46-1-1.52-1.87-2-2.82-.37-.69-1.61-.75-1.14.14.74,1.39,1.44,2.81,2.07,4.25.27.6.52,1.2.76,1.81.11.25.21.5.31.75H13.6a16.4,16.4,0,0,1-1.12-2.67,6.25,6.25,0,0,1-.16-.62c-.11-.44-1.86-.71-1.78-.32a18.71,18.71,0,0,0,1.72,4.16,2.53,2.53,0,0,1,.12.23l-.07-.07c-.2-.2-.41-.39-.63-.58a1.6,1.6,0,0,0-.19-.11,2.45,2.45,0,0,0-1.1-.13h0a3.1,3.1,0,0,0-.72-.21c-.47-.1-1-.14-.85.07s.09.18.15.26c.18.33.39.66.6,1a5.07,5.07,0,0,0,.36.54c.45.67.9,1.32,1.31,2-.38-.36-.75-.73-1.16-1.07l0,0c-.3-.26-2-.5-1.62-.13l.08.09A9.64,9.64,0,0,1,11.44,241h0s0,.05,0,.07a.59.59,0,0,0,.34.28v.25c-.19-.2-.38-.4-.55-.61-.47-.52-.91-1-1.33-1.6A2,2,0,0,0,8.56,239c-.28,0-.44.13-.27.34a29.9,29.9,0,0,0,3.56,3.9c.05.78.13,1.56.22,2.34a15,15,0,0,0-2.14-4.12c-.16-.23-1.7-.8-1.71-.25A18.24,18.24,0,0,0,9,246.86c-.24-.42-.49-.83-.77-1.24-.17-.24-1.74-.78-1.73-.26a11.64,11.64,0,0,0,.24,1.88c0,.24.1.49.16.72h0c.13.51.29,1,.46,1.52-.21-.29-.41-.59-.64-.86s-1.88-.8-1.71-.15a15.12,15.12,0,0,0,.61,1.87c-.31-.2-1.7-.6-1.54,0,0,.16.09.34.14.51a.6.6,0,0,1,0,.16h0c.17.52.37,1,.59,1.51a7.67,7.67,0,0,0-1.06-1c-.17-.14-1.86-.57-1.58,0,.37.7.79,1.39,1.22,2.06C3,253.41,1.9,253.27,2.26,253.81Zm12-9.57a18,18,0,0,0-.65-3,1.09,1.09,0,0,1-.05-.17c0-.14-.29-.29-.58-.41-.07-.2-.17-.39-.26-.59.51.16,1.28.33,1.18,0a11.54,11.54,0,0,0-1.47-2.86c.11.09.23.16.34.26a21.24,21.24,0,0,1,1.33,2.26c.31.57.59,1.17.85,1.76a2.56,2.56,0,0,0,.11.24.25.25,0,0,0,0,.27l.35.58a1.14,1.14,0,0,0,.63.34,38.74,38.74,0,0,0-.75,6c-.12.82-.23,1.66-.31,2.48-.06-.46-.12-.92-.17-1.39C14.67,248.08,14.59,246.15,14.3,244.24Zm-3.44,3.35a20.43,20.43,0,0,1-.58-2.43c.28.78.52,1.58.74,2.4s.33,1.39.49,2.09C11.28,249,11.05,248.28,10.86,247.59Z" transform="translate(0 -58.85)"/><path class="cls-33" d="M33.17,259.66a5,5,0,0,1-.67.16,2.39,2.39,0,0,1-.13.28H30.9a1.83,1.83,0,0,1-.28-.14h-.2a1.94,1.94,0,0,1-1.29-.48c-.31-.34.27-.4.48-.4a10.49,10.49,0,0,0,1.12-.05l.12-.12c.43-.32,1.17-.11,1.63,0C32.65,258.94,33.81,259.47,33.17,259.66Z" transform="translate(0 -58.85)"/><path class="cls-33" d="M28.71,257.46c-.31-.14-.8-.64-.46-1a28.44,28.44,0,0,0,2-3c.53-.73,2.37,0,1.77.85a26.51,26.51,0,0,1-2,3A1.11,1.11,0,0,1,28.71,257.46Z" transform="translate(0 -58.85)"/><path class="cls-33" d="M7.27,256.87a2.23,2.23,0,0,1,.17.73,1.21,1.21,0,0,1,0,.19c-.29-.05-.57,0-.67.13a.44.44,0,0,0-.07.5l0,0c-.28.3.2.64.44.75.5.22,1.4.4,1.79-.15a.73.73,0,0,0,0-.09.93.93,0,0,0,.68.46c.17.22.34.44.49.67h1.55c-.26-.36-.53-.71-.81-1.06,0-.07-.1-.13-.15-.2s.07-.24.09-.35l0,0a1.76,1.76,0,0,0,.14.23,1.27,1.27,0,0,0,1.4.24,1.36,1.36,0,0,0,1.31.41,4.54,4.54,0,0,0,1,.71h1.59a1.49,1.49,0,0,0,.09-.3,1.78,1.78,0,0,0,1.15.12,1,1,0,0,0,.22.18h3.2v0a.52.52,0,0,0,.15-.07l.08.09h1.68a8.2,8.2,0,0,0,.5-.87,1.77,1.77,0,0,0,.9.25c.39.28,1.27.52,1.47.29s.13-.19.19-.28a3.68,3.68,0,0,0,.64.61h2.29a1.65,1.65,0,0,0-.39-.09,1.56,1.56,0,0,1-1.15-.85l0,0V258c.26.05.62.09.66-.09s-.64-.46-.79-.49a2.78,2.78,0,0,0-.64-.12c-.46-.11-.95-.11-.95,0v.11a1.44,1.44,0,0,0-.41.3,4.16,4.16,0,0,0-.5.61,1.69,1.69,0,0,1,.68-1.35c.31-.24-.32-.6-.47-.66l-.25-.08c.05-.1.09-.2.14-.31.4.15.88.21,1,0a27.59,27.59,0,0,1,2-2.78c.26-.24-.6-.67-1.19-.71a2.16,2.16,0,0,0-.39-.26,1.25,1.25,0,0,0-1.13,0c-.11.08-.23.14-.33.22-.32.24.32.6.46.66a2.45,2.45,0,0,0,.41.11c-.35.46-.62,1-.94,1.45-.46-.22-1.16-.27-1.33.1-.05.13-.11.25-.16.38-.16.34-.3.69-.44,1,.07-.35.15-.71.25-1.06.53-2,1.42-4.07,2-6,.17-.59-1.33-1-1.66-.56a11.32,11.32,0,0,0-1.4,2.3c.23-2.37.4-4.73.4-7.11v-.51a.48.48,0,0,1,0-.12c0-.53-1.58-.92-1.73-.34-.57,2.45-.65,5.26-1,7.95,0,.39-.1.78-.18,1.17,0-.36,0-.71,0-1.08,0-.58,0-1.16-.07-1.75-.1-2.27-.3-4.55-.39-6.82,0-.17,0-.33,0-.5s0-.38,0-.57c.35,0,.63-.18.54-.55-.05-.21-.13-.4-.19-.62a1.88,1.88,0,0,0,.4.13h.29a.69.69,0,0,0,.29-.07.93.93,0,0,0,.35,0,.25.25,0,0,0,0,.07c.13.44,1.37.68,1.65.43.13.45.23.91.38,1.36a.53.53,0,0,0,.11.21.9.9,0,0,0,.46.28,1,1,0,0,1,.92-.55h.18a1.1,1.1,0,0,0,0-.18s0-.09,0-.14a.68.68,0,0,0,.72-.34h.16a1.52,1.52,0,0,0,.78.24H26l.09.08a1.28,1.28,0,0,0,0,.19v.16h1.74v0l.07,0h5.23a.48.48,0,0,0,.12-.16c.09-.2.16-.42.25-.62a1.47,1.47,0,0,0,0,.55.58.58,0,0,0,.09.23h2.69l.59-.26a.41.41,0,0,0,0,.08c-.11.39,1.6.85,1.71.47a2.76,2.76,0,0,1,.62-1.17c.26-.27-1.32-.89-1.62-.58-.09.1-.15.22-.23.32a1.16,1.16,0,0,0-1.23-.4l-.24.12a2.8,2.8,0,0,1,.66-1.46c.25-.27-1.34-.88-1.63-.57a3,3,0,0,0-.66,1.25.54.54,0,0,0-.31.2c.38-1.13.71-2.29,1.2-3.38.29-.65-1.05-1.11-1.57-.64a.49.49,0,0,0-.15.19c-.05.11-.09.24-.14.36a1.46,1.46,0,0,0-1-.28.84.84,0,0,0-.46-.47h0a1.26,1.26,0,0,0-.5-.15,13.05,13.05,0,0,0-.92-4.69h0a2.77,2.77,0,0,0-.1-.26c-.14-.35-1.25-.52-1.6-.42-.07,0-.1,0-.09.1s.08.2.12.29h0a12.87,12.87,0,0,1,.85,3.69c-.26,0-.48,0-.58.17a1.51,1.51,0,0,0-.18.26h0a5.29,5.29,0,0,0-.51,1h0a1.54,1.54,0,0,0-.53-.26v-3.41c0-.28-.38-.5-.78-.61s-.93-.09-.93.15v2.84l-.16,0c0-.11,0-.2,0-.3,0-.43-.89-.72-1.39-.59a1.18,1.18,0,0,0,0-.27h0c-.11-1.09-.25-2.2-.46-3.28-.16-.78-1.9-1-1.74-.13a4.21,4.21,0,0,1,.09.49,43.33,43.33,0,0,1,.56,4.95h0c0,.42.05.83.07,1.25-.32-1.45-.63-2.88-1-4.31a.85.85,0,0,0-.72-.54c-.52-.08-1.1.16-.94.78.54,2,.95,4,1.4,5.94-.23-.79-.46-1.59-.71-2.39-.12-.38-1.11-.62-1.52-.5a35.39,35.39,0,0,0-1.64-4.1.87.87,0,0,0-.45-.35c-.42-.16-1-.17-1.15.06a.31.31,0,0,0,0,.37,30.47,30.47,0,0,1,1.46,3.67c-.42-.1-.85-.06-.85.16v.23a.56.56,0,0,0,0,.12,1.24,1.24,0,0,0-.69-.16c0-.14-.07-.29-.11-.43s-.1-.48-.16-.72c-.09-.45-.18-.9-.24-1.35,0-.17-.23-.3-.48-.38a1.64,1.64,0,0,0-.38-.1c-.44-.08-.88-.07-.87,0a24.13,24.13,0,0,0,.66,3.06.88.88,0,0,0,0,.15c.09.4.22.8.33,1.2a4,4,0,0,0-1-1.32,5.07,5.07,0,0,0-.09-.54,11.21,11.21,0,0,0-.31-1.42c-.15-.53-1.86-.79-1.71-.25a10.07,10.07,0,0,1,.27,1.35c0,.07,0,.15,0,.23a3.68,3.68,0,0,0-.64.07h-.07c-.31.09-.34.4-.1.63A1.37,1.37,0,0,0,12,236l.27,0c0,.16.05.32.07.49s.09.6.14.89a8.71,8.71,0,0,0,.6,2,5.79,5.79,0,0,0-2.1-2.07l-.2-.11c-.16-.08-1.36-.32-1.18.2A8,8,0,0,0,11,239.58l.18.23a1.34,1.34,0,0,0,.89.44c.17.26.35.53.55.79a1.51,1.51,0,0,0,1,.44h.19c.24,0,.68-.12.43-.45s-.29-.39-.42-.6a2.34,2.34,0,0,0,.4.37,1.35,1.35,0,0,0,.54.18c0,.06,0,.13.05.17a1.49,1.49,0,0,0,1.1.6c.35.05.64,0,.62-.4a5.21,5.21,0,0,0-.15-1.05,3.39,3.39,0,0,0,.77.15c0,.51,0,1,0,1.54,0,.93.09,1.87.15,2.8a2.8,2.8,0,0,0-.81-.18c-.27,0-.48,0-.49.08-.18,2.59.47,5.22.51,7.81a39.46,39.46,0,0,1-.79-4.18c-.07-.62-1.34-.89-1.65-.45a1.51,1.51,0,0,0-.72-.09.37.37,0,0,0-.15,0,.43.43,0,0,0-.32.45c.05.7.13,1.4.24,2.08-.1-.22-.19-.44-.29-.67s-.86-.54-1.33-.52a9.93,9.93,0,0,0-.86-1.32,2,2,0,0,0-1.42-.36c-.19,0-.26.12-.14.28s.2.27.3.41h0a14.86,14.86,0,0,1,1.62,3.3.38.38,0,0,0-.23.47c.1.46.23.91.35,1.37-.11-.21-.21-.42-.33-.63a1.48,1.48,0,0,0-1.43-.46,10.47,10.47,0,0,0-.94-1.06c-.26-.27-1.5-.43-1.6-.23,0,0,0,.09,0,.15v0a12.17,12.17,0,0,1,1.81,2.29,1.18,1.18,0,0,0-.92.11c-.54.3-.14.77.4,1h0c.37.14.77.93,1,1.41,0,.43,0,.86,0,1.29L8.92,257a1.82,1.82,0,0,0-2.21-1.09.59.59,0,0,0-.14.06.34.34,0,0,0,0,.6,1.34,1.34,0,0,0,.73.34Zm11.08.88a.4.4,0,0,0,.13-.24c.05-.32.08-.64.12-1h.12a7.31,7.31,0,0,0,0,1.48.32.32,0,0,0-.14.51.93.93,0,0,0,.28.28h0a8.34,8.34,0,0,1-.16.87h-.12C18.54,259.05,18.43,258.4,18.35,257.75Zm-.76-23.1a14.07,14.07,0,0,0-1.17-1.79,2.33,2.33,0,0,0,1,.27v0a.88.88,0,0,0,.51.47,2.16,2.16,0,0,0,.66.18,1.34,1.34,0,0,0,.55-.05c.24.78.47,1.55.7,2.33l-.12,0a3.49,3.49,0,0,0-.39.19,1,1,0,0,0,0-.1c-.12-.31-.21-.62-.32-.93a.31.31,0,0,0-.1-.15h0a1.07,1.07,0,0,0-.52-.31A2.21,2.21,0,0,0,17.59,234.65Z" transform="translate(0 -58.85)"/><path class="cls-34" d="M28.69,238l-.12,0a.55.55,0,0,1,0,.18A.71.71,0,0,1,28.69,238Z" transform="translate(0 -58.85)"/><path class="cls-34" d="M28.65,238.4l-.06-.05v0h.06Z" transform="translate(0 -58.85)"/><path class="cls-34" d="M16.83,237.39c-.08-.26-.15-.51-.24-.75Z" transform="translate(0 -58.85)"/><path class="cls-33" d="M2.88,256.82a1.1,1.1,0,0,1,1.32-.18c.33.16.78.68.44,1.06a2.59,2.59,0,0,0-.54,1.19c-.24,1-2.17.44-1.93-.51A3.43,3.43,0,0,1,2.88,256.82Z" transform="translate(0 -58.85)"/><path class="cls-35" d="M53.91,242.86c.15.19.31.38.48.56a1.13,1.13,0,0,0,1.17.3.49.49,0,0,0,.22-.82c-.13-.13-.24-.26-.36-.39h0l.33-.06a1.1,1.1,0,0,0,.26.15.84.84,0,0,0,.2.18,2.44,2.44,0,0,0,.5.21,1.32,1.32,0,0,0,.58.79.94.94,0,0,0,.22.12h1c.24-.15.17-.38,0-.56a.53.53,0,0,0-.15-.15h0a1.67,1.67,0,0,0,.38,0l.32.1a5.08,5.08,0,0,1,1.19.59h2.17a.19.19,0,0,0,.07-.17l0-.15c.47.18,1.1.33,1.1,0a5.63,5.63,0,0,0,0-.58,1.8,1.8,0,0,0,0-.22,2.81,2.81,0,0,0,.62.05.59.59,0,0,1,0,.13.43.43,0,0,0,0,.12h0a1.38,1.38,0,0,0,1.37.43,1,1,0,0,0,.47.37H67a1.1,1.1,0,0,0,.14-.09.18.18,0,0,0,0,.09H70.3q0-.51-.12-1a.92.92,0,0,0,.65-.09.85.85,0,0,0,.42,0,.42.42,0,0,0,.37-.36,25.25,25.25,0,0,0-.2-6.67c-.11-.74-1.79-1-1.68-.14a.06.06,0,0,0,0,0h0c.09.62.15,1.22.21,1.83a1.58,1.58,0,0,0-.7-.24,17.4,17.4,0,0,0-2-4.72,1.36,1.36,0,0,0-1.12-.41c-.38,0-.64.17-.44.51a16.34,16.34,0,0,1,1.88,4.54c-.3,0-.51.17-.44.47s.22.83.35,1.25c.17.61.35,1.21.51,1.81a.7.7,0,0,0-.25.17,2,2,0,0,0-.4.71,14.93,14.93,0,0,0-.75-4.49h0s0,0,0,0c-.1-.46-.2-.91-.26-1.35,0-.19-.35-.36-.71-.44s-1-.09-.92.17a20,20,0,0,0,.51,2.34v0c.13.51.26,1,.35,1.55a.9.9,0,0,0-.37-.25h0a1.81,1.81,0,0,0-.31-.09,22.34,22.34,0,0,0-1.65-4.8,1.59,1.59,0,0,0-.15-.29.46.46,0,0,0-.16-.18,0,0,0,0,0,0,0c-.51-.38-1.74-.38-1.39.29a22.74,22.74,0,0,1,1.93,5.8,17.15,17.15,0,0,0-.86-2.19,1.39,1.39,0,0,0-.68-.39h0a2,2,0,0,0-.66-.14c-.17,0-.29.05-.3.18a4.85,4.85,0,0,0,0,.66,12.11,12.11,0,0,0-.83-1.91,2.09,2.09,0,0,0-1.44-.5c-.14,0-.23.1-.2.23.22.9.53,1.77.84,2.65.4,1.05.81,2.1,1.11,3.17,0-.1-.13-.17-.28-.24a10.16,10.16,0,0,1-.66-2.27c-.09-.67-1.77-.93-1.66-.16a7.16,7.16,0,0,0,.34,1.4,1.62,1.62,0,0,0-.58-.18h-.29a.75.75,0,0,0-.34.1.21.21,0,0,0-.09.26.19.19,0,0,1,0,.07,1.55,1.55,0,0,0-.23-.06,7.48,7.48,0,0,0-.42-1,1,1,0,0,0-1.06-.52.66.66,0,0,0-.56.42h0a.47.47,0,0,0,0,.3,8,8,0,0,1,.34.8h0c0,.09.06.16.09.26-.32,0-.58,0-.57.1a1.93,1.93,0,0,1,0,.48h0a1,1,0,0,0-.61-.23h0a1,1,0,0,0-.58.12,2.24,2.24,0,0,0-.61.45,1,1,0,0,0-.15.2C52.21,242.58,53.33,243.14,53.91,242.86Zm11.75-.58a1.18,1.18,0,0,0,.36.24,1.72,1.72,0,0,1-.23.32C65.74,242.65,65.7,242.47,65.66,242.28Zm0-2s0,0,0,0v0A4.88,4.88,0,0,1,65.6,242l-.3-1.35A.52.52,0,0,0,65.71,240.24Zm-5.2,1.41c.11.39.2.78.28,1.18l-.31-.15A1.42,1.42,0,0,0,60.51,241.65Z" transform="translate(0 -58.85)"/><path class="cls-33" d="M8.6,239.14c-.25.57-2.14,0-1.93-.52,0,0,.12-.21.08-.26-.28-.35.24-.45.49-.44a1.81,1.81,0,0,1,1.28.49A.6.6,0,0,1,8.6,239.14Z" transform="translate(0 -58.85)"/><polygon class="cls-36" points="107.04 13.24 107.69 15.61 109.11 17.22 110.53 16.38 111.14 14.04 111.42 13.46 111.22 12.46 108.25 12.46 107.04 13.24"/><polygon class="cls-37" points="106.18 13.54 106.86 15.55 108.36 16.92 109.87 16.2 110.51 14.21 110.81 13.72 110.59 12.87 107.53 13.09 106.18 13.54"/><polygon class="cls-38" points="108.87 19.65 109.82 19.11 109.95 18.64 108.83 16.26 108.87 19.65"/><polygon class="cls-39" points="85.9 12.27 86.42 17.03 86.5 17.8 87.44 19.93 90.7 23.93 90.99 25.32 90.17 29.55 89.33 31.07 90.82 33.08 93.39 34.57 98.25 35.94 104.68 36.75 102.93 32.42 102.95 30.61 103.22 29.42 104.46 28.9 107.04 29.17 108.43 26.88 109.47 20.7 109.25 16.62 108.28 14.56 108.78 12.97 106.56 7.46 106.35 6.92 106.37 6.9 106.95 6.16 106.87 6.09 104.03 3.8 99.67 2.4 95.9 2.59 92.03 4.08 90.6 4.63 86.87 8.49 85.9 12.27"/><polygon class="cls-40" points="72.57 176.34 74.8 177.79 77.23 177.85 80.42 177.43 84 163.28 86.12 156.74 87.91 151.02 89.02 144.84 90.6 141.68 93.95 133.09 97.76 122.86 98.89 126.83 100.92 134.36 100.92 136.76 100.06 141.29 98.42 149 98.42 155.33 99.36 164.11 99.58 177.75 104.06 178.63 107.47 178.63 109.36 178.21 114.85 144.84 115.78 140.61 116.28 135.16 117.51 111.18 117.12 102.87 115.81 95.48 115.21 94.6 112.99 96.55 105.7 97.19 98.99 97.45 79.45 94.44 77.6 101.42 77.15 108.89 78.5 121.32 77.76 134.3 74.1 144.92 73.37 150.77 73.44 156.83 73.23 163.48 72.57 176.34"/><polygon class="cls-41" points="100.42 183.57 100.09 187.24 102.19 191.93 106.17 192.1 115.38 192.1 118.22 191.38 120.05 189.5 120.05 188.22 116.09 186.97 111.12 184.23 109.28 183.02 108.74 180.94 108.8 178.33 107.47 178.63 104.06 178.63 100.09 177.85 100.42 183.57"/><polygon class="cls-41" points="71.35 187.78 74.08 188.9 79.23 187.62 86.15 188.59 89.07 188.28 88.64 187.73 87.31 186 88.49 184.91 83.66 182.73 80.95 181.29 80.25 179.54 80.25 177.45 77.02 177.79 74.8 177.79 72.84 176.5 72.53 180.15 71.42 184.6 71.35 187.78"/><polygon class="cls-39" points="118.31 58.21 120.19 57.04 123 56.74 126.39 59.22 127.74 61.58 128.03 59.75 127.28 56.74 125.22 55.02 122.39 54.17 119.57 54.56 119.43 54.75 118.44 55.99 119.11 57.04 118.31 58.21"/><polygon class="cls-42" points="76.19 49.49 75.73 53.28 76.99 64.47 78.36 70.99 78.97 76.06 79.17 77.76 79.39 79.57 79.39 83.47 78.13 91.24 78.59 92.5 79.45 94.44 98.99 97.45 105.7 97.19 112.99 96.55 115.21 94.6 115.81 94.07 115.38 91.46 115.38 83.8 116.2 75.21 118.2 73.51 126.15 66.8 127.18 65.86 128.03 62.07 127.74 61.58 126.39 59.22 123 56.74 120.19 57.04 118.31 58.21 118.3 58.22 115.38 60.02 114.97 58.7 114.45 53.88 113.94 51.25 113.71 50.56 112 45.33 111.58 44.07 111.53 43.96 109.94 38.28 108.45 36.86 106.41 36.24 104.95 35.37 103.86 34.73 103.85 34.72 102.8 34.1 99.35 32.05 96.09 30.14 92.78 29.43 91.86 29.5 89.96 29.66 87.14 30.85 83.83 31.33 81.56 31.66 79.39 33.6 76.19 40.79 75.16 47.64 76.19 49.49"/><polygon class="cls-43" points="112 45.33 113.71 50.56 113.94 51.25 114.45 53.88 114.97 58.7 115.38 60.02 118.3 58.22 118.31 58.21 119.11 57.04 118.44 55.99 119.43 54.75 117.74 53.28 116.63 53.28 115.84 53.5 114.89 50.86 112.72 47.03 112.2 45.66 112 45.33"/><polygon class="cls-44" points="99.85 185.67 99.59 191.24 101.47 192.38 106.67 192.52 115.49 192.26 120.44 191.26 121.61 189.72 121.61 188.34 116.89 186.91 112.39 184.61 109.69 182.89 109.16 183.79 108.45 185.33 106.27 186.19 104.02 186.01 101.8 185.03 99.85 184.85 99.85 185.67"/><polygon class="cls-45" points="70.95 187.82 73.05 188.9 79.56 189.37 87.14 189.14 91.64 188.28 91.95 187.35 90.98 185.49 89.57 184.9 84.29 183.01 81.65 181.28 81.65 181.28 80.98 181.07 80.76 181.3 79.76 181.74 76.67 182.33 74.05 181.3 73.47 181.09 72.6 180.77 71.88 181.3 71.13 184.57 70.95 187.82"/><polygon class="cls-46" points="104.46 35.07 103.76 33.13 100.4 29.77 95.94 27.49 91.06 26.5 86.18 26.19 85.11 27.49 85.65 28.59 83.45 29.77 83.45 31.28 87.13 32.73 89.38 32.59 94.42 33.43 100.69 34.04 104.46 35.07"/><polygon class="cls-47" points="86.6 31.57 86.37 28.39 85.79 27.49 82.61 26.09 79.19 25.84 76.97 26.46 75.85 27.68 75.16 30.29 76.54 30.21 77.18 28.39 77.94 27.78 79.7 27.56 82.36 27.91 84.07 28.62 84.55 29.04 84.8 31.03 86.6 31.57"/><polygon class="cls-48" points="104.44 47.64 105.48 52.12 110.11 50.55 113.71 50.55 113.48 49.87 112.27 46.16 111.99 45.32 104.74 46.55 104.44 47.64"/><polygon class="cls-49" points="105.36 47.8 106.31 50.97 110.58 49.87 113.48 49.87 112.27 46.16 105.64 47.03 105.36 47.8"/><polygon class="cls-50" points="102.26 8.54 101.59 13.23 102.26 16.91 101.14 17.29 100.92 16.91 99.93 15.24 98.04 15.12 97.13 16.27 97.13 17.64 97.39 20.55 96.64 22.41 94.9 23.58 91.82 24.98 90.97 24.57 90.42 23.58 87.44 19.93 86.5 17.8 86.15 14.32 102.26 8.54"/><polygon class="cls-51" points="85.4 13.01 85.9 15.79 86.42 17.03 87.72 18.02 90.43 16.09 93.18 13.44 97.98 12.09 98.07 12.02 98.08 12.01 103.08 7.86 106.11 7.17 106.35 6.92 106.37 6.9 107.25 6 107.25 3.97 106.42 1.99 104.42 0.52 102.62 0.06 99.91 0.06 98.31 0.52 98.79 0.98 98.6 1.48 95.43 2.21 91.58 3.51 88.09 6.03 86.21 9 85.4 13.01"/><polygon class="cls-52" points="100.53 16.26 107.53 14.68 107.53 14.04 108.78 12.97 108.27 14.56 109.24 16.62 109.32 18.35 108.64 16.69 107.95 16.05 107.04 15.65 100.92 16.91 100.53 16.26"/><polygon class="cls-36" points="111.3 12.46 100 15.34 100.18 15.66 100.41 16.05 111.42 13.61 111.3 12.46"/><polygon class="cls-50" points="102.26 16.91 101.14 17.29 101.14 21.35 101.59 23.24 102.67 25.53 103.16 28.39 103.22 29.43 103.05 30.16 104.05 29.65 104.46 29.99 104.85 29.76 105.53 30.16 105.99 29.96 105.99 30.63 106.76 30.08 106.65 30.63 107.82 29.16 107.53 29.88 108.59 28.16 108.99 25.59 109.25 24.07 109.46 24.13 109.46 23.8 109.67 23.81 109.84 20.99 109.4 19.57 108.75 20.99 108.16 21.35 107.25 21.14 105.71 21.7 103.45 19.57 102.26 16.91"/><polygon class="cls-53" points="103.13 28.39 103.19 29.43 103.03 30.17 104.02 29.64 104.44 29.99 104.82 29.76 105.51 30.17 105.97 29.96 105.97 30.63 106.73 30.07 106.63 30.63 107.8 29.16 107.5 29.87 108.56 28.16 108.75 27 108.4 27.53 108.13 27.8 108.13 27 107.5 27.53 107.01 27.53 107.22 26.73 106.53 27.19 106.8 26.39 105.97 26.65 104.97 27.19 104.78 26.5 104.1 27.19 104.1 25.86 103.45 24.48 101.14 21.35 101.59 23.24 103.13 28.39"/><polygon class="cls-54" points="95.53 40.72 98.64 36.54 101.59 35.62 104.1 35.65 106.34 36.2 105.25 35.07 103.91 34.35 100.73 33.54 98.19 33.54 95.15 34.31 92.7 36.75 95.53 40.72"/><polygon class="cls-54" points="101.47 63.74 99.2 68.63 97.38 71.53 96.12 72.44 96.3 81.78 99.59 76.53 101.34 74.02 103.14 70.94 102.85 70.51 101.47 63.74"/><polygon class="cls-55" points="65.64 46.1 68.36 51.32 68.15 59.58 69.28 72.76 69.79 77.63 70.36 83.35 73.05 87.86 83.5 90.21 92.81 90.35 95.91 86.22 96.25 82.58 96.5 77.97 96.56 73.36 95.87 66.38 95.01 52.64 96.21 39.57 94.78 37.87 89.15 32.7 85.06 30.39 75.32 30.63 71.58 30.43 66.42 37.87 65.64 46.1"/><polygon class="cls-56" points="95.35 41.27 95.01 40.72 90.43 44.23 88.44 48.06 86.32 55.08 85.28 60.54 84.89 65.64 84.89 73.45 85.42 79.17 87.29 85.22 88.61 86.96 93.52 88.29 95.04 86.15 95.7 81.78 95.7 71.17 95.01 61.21 94.07 52.12 92.7 50.86 94.07 51.21 95.07 43.8 95.35 41.27"/><polygon class="cls-57" points="89.81 115.43 92.32 118.45 92.21 122.75 91.3 130.7 90.84 138.13 90.6 141.68 93.95 133.09 94.47 131.69 97.76 122.86 95.98 118.86 93.92 115.83 89.75 114 88.66 113.08 89.81 115.43"/><polygon class="cls-58" points="93.07 33.86 86.6 39.62 82.55 51.21 76.2 54.17 72.54 53.67 69.4 52.44 67.1 49.57 65.64 46.1 66.04 37.67 71.01 30.05 74.72 29.89 79.35 29.9 85.06 30.39 92.44 32.62 93.07 33.86"/><polygon class="cls-39" points="102.98 7.93 98.07 12.02 102.98 9.26 102.98 7.93"/><polygon class="cls-59" points="82.14 62.24 82.31 74.02 80.38 77.19 79.35 77.34 72.57 76.67 68.76 75.14 67.56 72.02 67.75 62.78 82.14 62.24"/><polygon class="cls-60" points="82.33 61.06 77.38 60.73 72.65 60.13 69.11 59.44 67.39 59.01 67.55 62.51 68.08 64.93 70.32 65.67 72.68 66.28 77.29 66.7 80.88 66.22 81.83 64.14 82.33 61.06"/><polygon class="cls-61" points="68.36 51.32 68.34 52.06 68.96 52.99 71.28 54.16 74.37 54.75 77.69 54.4 83.72 50.97 88.07 40.11 91.78 36.75 91.72 35.06 87.16 39.11 86.6 39.61 82.54 51.21 76.2 54.16 72.54 53.66 69.4 52.44 68.09 50.8 68.36 51.32"/><polygon class="cls-54" points="79.26 46.06 76.12 46.08 74.72 59.08 74.72 71.91 75.22 72.9 76.53 72.9 77.31 71.84 77.23 63.55 78.18 53.09 79.26 46.06"/><polygon class="cls-54" points="68.64 45.57 67.19 45.43 67.02 52.66 67.13 60.86 67.39 65.77 68.11 71.14 68.56 71.1 68.76 68.69 68.45 61.19 68.36 52.69 68.64 45.57"/><path class="cls-62" d="M99.55,59.69l1.41.21,1.14.38.46.52v.51l-1.72-.41L97.9,62.16l-3,.88L92.72,64.3a8.23,8.23,0,0,0-2.88,3.91C89.3,70.43,89.1,66.1,91,64.4a18.59,18.59,0,0,1,3.53-2.55l-.84,1,4.76-2.12,1-.23.14-.44Z" transform="translate(0 -58.85)"/><polygon class="cls-55" points="94.14 64.24 94.38 70.07 93.9 74.75 92.83 76.63 88.72 76.63 87.69 76.12 86.18 72.25 86.45 68.59 86.47 63.52 94.14 64.24"/><polygon class="cls-60" points="94.42 62.17 94.69 65.65 88.1 65.73 85.9 65.41 86.22 61.84 94.42 62.17"/><path class="cls-63" d="M100.81,123.89l-.1,9,2.75,5.82,4.33,1.4-.56.54-2.44-.17-.23.95,1.86,1.69.71.65-.74,1.23-2.86,2.17h1.37l3.52-2.24.9.83,2.61,1,.18-.08.5-2.15-2.75,1,3-4.13,0,0a.42.42,0,0,1,.07-.13,1.36,1.36,0,0,1,.61-.44,4,4,0,0,0,1-.63c.38-.26.82-.42,1.22-.64l.51-5.4L113.93,136l-.18,0-3.64.57-3.7-1.6-3.53-5.61-1.41-6.78-1.38-4Z" transform="translate(0 -58.85)"/><polygon class="cls-64" points="115.38 60.02 115.71 61.31 116.36 63.22 116.51 66.38 117.73 62.8 117.73 61.58 118.31 62 118.84 63.74 119.18 61.27 118.95 59.48 120.19 57.04 115.38 60.02"/><polygon class="cls-65" points="89.83 99.72 79.29 96.18 70.73 95.1 68.53 93.66 67.06 91.8 66.7 88.24 67.35 85.09 69.02 83.87 72.75 84.28 92.43 86.21 89.83 99.72"/><polygon class="cls-66" points="97.3 89.68 95.75 87.69 92.18 86.25 88.69 87.06 86.69 89.95 86.01 94.62 87.68 97.94 89.94 99.75 94.23 99.64 97.46 96.07 97.92 91.77 97.3 89.68"/><polygon class="cls-60" points="83.48 85.33 81.53 86.83 80.92 88.26 80.23 91.38 80.56 93.98 81.71 96.19 83.53 97.61 84.1 97.8 83.68 97.95 81.09 97.4 79.61 96.29 78.38 94 77.87 91.14 78.06 89.33 78.68 87.31 79.53 85.99 80.75 85.06 81.34 84.79 82.99 84.65 84.61 85 85.05 85.49 83.48 85.33"/><polygon class="cls-60" points="73.79 84.38 71.99 85.63 71.41 86.9 70.72 89.69 70.97 92.03 71.95 94.04 73.56 95.34 74.06 95.53 73.68 95.65 71.36 95.11 70.07 94.08 69 92 68.61 89.42 68.82 87.8 69.41 86 70.21 84.84 71.32 84.03 71.86 83.8 73.34 83.71 74.78 84.06 75.17 84.5 73.79 84.38"/><polygon class="cls-61" points="96.41 91.97 95.89 90.17 94.89 88.63 92.12 87.59 89.22 88.34 87.89 90.81 87.48 94.79 88.53 97.12 90.5 98.76 93.11 98.69 94.67 97.12 95.84 94.89 95.44 92.62 94.3 90.73 93.17 90.09 91.39 89.62 90.28 89.92 89.26 91.33 89 94.2 89.27 95.53 89.94 96.57 91.82 97.03 93.71 95.41 93.87 93.6 93.01 91.94 91.9 91.48 90.4 93.2 92.24 92.39 92.67 93.14 93.04 94.25 91.94 95.73 90.45 95.28 89.81 94.22 90.03 91.93 91.01 90.61 91.81 90.44 93.19 90.75 94.01 91.42 94.81 93.08 94.81 94.6 93.91 96.67 92.52 97.72 90.65 97.77 88.98 96.28 88.3 94.61 88.58 91.17 89.58 89.12 92.14 88.31 94.61 89.2 95.48 90.23 96.41 91.97"/><path class="cls-67" d="M74.37,117.9v1l1.56.46h2l.38-3.12-3.71-.46Zm.39.07L75,116.3l1.08.15-.07.76.21.22.3-.18.12-.72,1.13.15-.25,2.26H76l-1.24-.36Z" transform="translate(0 -58.85)"/><path class="cls-67" d="M66.71,115.56l0,2.08.09,1,.9.38,1-.13,0-2.86Zm.31,2,0-1.44.49.12v.45l.16.27.17-.19v-.45l.56.13,0,2.11h-.69l-.63-.27Z" transform="translate(0 -58.85)"/><polygon class="cls-68" points="99.66 189.68 99.22 191.27 99.59 191.75 101.28 192.52 106.66 192.72 111.97 192.52 115.71 192.44 120.7 191.32 121.85 189.58 121.73 188.82 121.61 188.63 121.45 189.12 120.59 189.91 119.31 190.27 115.65 190.67 112.45 191.03 108.83 191.03 107.29 190.53 106.69 190.42 105.98 190.87 104.23 191.01 101.63 190.67 100.23 190.23 99.66 189.68"/><polygon class="cls-69" points="71.02 186.62 70.6 188.11 70.6 188.55 72.14 189.37 73.97 189.68 77.04 189.68 81.29 189.68 85.57 189.53 89.07 189.09 92.03 188.39 92.31 187.46 91.66 186.79 91.64 187.25 89.19 187.67 86.34 187.88 82.72 188 78.97 187.96 77.8 187.43 77.24 187.35 75.73 187.94 74.45 187.9 71.85 187.37 71.18 186.94 71.02 186.62"/><polygon class="cls-58" points="93.07 33.86 92.88 36.12 91.79 36.75 91.72 35.06 93.07 33.86"/><path class="cls-70" d="M99.22,250.12l.36.48,1.7.77,3.32.12v-3.38l.72-1.49,2.46-2.17a8.4,8.4,0,0,1-1.67-3.87,4.5,4.5,0,0,1,1-3.11h-3.09l-4-.77.33,5.72-.12,1.32-.44,0v.82l-.19,4Z" transform="translate(0 -58.85)"/><path class="cls-71" d="M70.6,247v.44l1.54.82,1.83.31h.56l.07-.67,0-.25.1-.85s.55-.24,1.56-1.82.91-1.85.38-3.77a4.41,4.41,0,0,1,.93-3.63l1.63-1.13-2.22.24H74.8l-2-1.3L72.53,239l-.2.82-.45.33-.75,3.26L71,245.47Z" transform="translate(0 -58.85)"/><polygon class="cls-72" points="97.13 16.69 96.69 17.71 96.98 19.08 97.26 19.15 97.09 17.57 97.13 16.69"/><polygon class="cls-73" points="100 21.35 98.79 21.35 97.39 20.55 97.26 18.81 97.14 17.64 97.13 16.27 96.69 17.58 96.69 19.04 96.98 20.67 98.62 21.67 100 21.35"/><polygon class="cls-74" points="100.3 17.31 99.61 16.12 98.48 15.89 97.94 16.52 97.76 18.35 97.85 19.3 98.66 20.01 99.38 19.7 99.18 19.24 98.78 18.65 99.03 17.92 99.68 17.92 99.84 17.34 100.3 17.31"/><polygon class="cls-75" points="86.2 9 88.08 6.03 91.57 3.51 93.38 2.9 91.92 3.7 88.83 6.29 87.45 9.35 86.92 12.36 87.44 13.85 87.54 13.98 87.82 12.66 88.02 13.92 89.47 14.25 92.26 11.8 98.07 8.8 97.68 10.64 100 8.81 102.32 7.17 106.87 6.09 107.25 6 106.37 6.9 106.35 6.92 106.56 7.46 105.55 7.67 103.39 8.83 101.71 9.43 101.71 9.43 98.07 12.46 96.98 14.25 95.67 15.66 95.49 16.33 95.49 17.48 95.17 19.65 96.29 22.65 95.49 23.24 96.98 27.21 96.97 27.21 100.4 29.77 95.94 27.49 92.58 26.8 92.58 26.8 91.17 26.52 90.77 26.48 91 25.32 90.75 24.18 90.42 23.59 87.44 19.93 86.49 17.8 86.42 17.03 86.41 17.03 85.9 15.79 85.4 13.01 86.2 9"/><polygon class="cls-76" points="96.11 40.72 95.01 52.64 95.82 66.16 96.45 72.19 97.56 71.36 96.76 65.96 95.7 53.18 96.29 54.75 96.56 54.58 95.99 49.63 96.11 40.72"/><polygon class="cls-77" points="77.23 107.57 78.44 103.28 80.75 102.1 83.01 101.79 88.07 102.48 93.74 101.73 95.93 99.87 97.47 97.22 98.07 96.18 98.59 91.8 98.31 89.83 96.85 86.98 97.08 86.06 97.25 83.06 97.51 79.84 96.3 81.78 96.25 82.58 95.9 86.22 95.03 87.4 95.75 87.69 97.3 89.68 97.92 91.77 97.46 96.07 96.55 97.08 94.23 99.64 89.94 99.75 89.84 99.67 89.83 99.72 84.1 97.79 83.68 97.95 81.09 97.4 79.62 96.29 79.29 96.18 78.99 96.15 77.6 101.42 77.23 107.57"/><path class="cls-78" d="M67.64,126.57v0l-.08,4.29,1.2,3.12.8.32.23,2.16.57,5.72.42.72L69,142.73,67.35,144l-.65,3.14.36,3.55,1.47,1.88,2.2,1.43,1.3.17h0l1.63.38.39-.12L79,155l-1.39,5.27-.46,7.47,1.34,12.43-.74,13-3.66,10.61-.72,5.86.08,6.05-.22,6.65-.66,12.86,2.14,1.41h2.08l.53,0-.52-1.94a20.68,20.68,0,0,1,2.64-8.81C82,221.46,83,213.91,83,213.91v-2l2.4-4.82,4.5-5.07.72-1.44L94,192l.52-1.4,3.29-8.82,1.13,4,2,7.53v2.4l-.86,4.53-1.64,7.71v6.33l.94,8.78.22,13.64,4.48.88h3.4l.76-.16-.34-3.85a82.73,82.73,0,0,0-1-9.68,28.17,28.17,0,0,0-3.36-9.83l.8-2.67,1.87-.85,1.22-6.05,2.83-5.91,2.59-.74,1.21-4.29-1.14-5.11-1.14-6.79.22-5.5v-3.2l1.6,1.9v-2.82l-.91-6.4-1.53-3.13-.37-3.83L112,155.5l.62-5.35h-2.06l1.44-3,.12-.52.5-2.15-2.75,1,3-4.13,0,0,.07-.09V139.3l.84-3.28.18,0,2.27-1.93,2-1.7,7.13-6-4.55,2.58-4.58,2.83-.49-1-.88,1.77h-1.6l.25-1.83-2.08,1.83-.8-.78-2.45-.71-1-3.48.11-2.33-.74-3.9,1.26-.24-1.37-1.87-1.76-5.35,1.07-.27L104.46,111l-2.38-6.52.18-6.58-.67-1.65-2-1.14-1,.31-1,1.29-2.11,1-1,.5-1.48.68-1.27-1.49V95.6l-1-1h0L90,93,85.4,91.46l-4.82-.79L78,90.25l-6.61-.63-.44-.14v-.43L66,96.52,65.64,105l1.45,3.42L67,111.52l.08,4.13-.39-.09,0,2.08.09,1,.28.12v.91l.26,4.91Zm15.81-38v.5l1.27.11L84.56,88Zm1.83-2.48.51.22.58.89.17,2.45.22.07,3.15.95,2.53.76.27.53,1.71.28,2.26.22L94,91.7l-.57-1.55.57-.9,4.11.9-2.26-1.22-1.85-1-.48-2.09-.9-.18-1.4-.29-.12,0-.29,0-4.59-.28Z" transform="translate(0 -58.85)"/><polygon class="cls-48" points="112.49 48.26 109.47 48.42 109.08 46.9 111.92 46.52 112.49 48.26"/><polygon class="cls-79" points="115.84 53.5 115.55 55.41 115.7 56.32 116.1 59.58 118.31 58.2 119.11 57.04 118.44 55.99 119.43 54.75 117.74 53.28 116.63 53.28 115.84 53.5"/><path class="cls-80" d="M106.34,65.71l.21.54,2,5,.21.52,0,0-.16.15-.15,0a1.19,1.19,0,0,1-.44-.13.77.77,0,0,1-.34-.22,3.07,3.07,0,0,1-.61-2.36,9.69,9.69,0,0,0-.78-3c0-.15-.11-.28-.14-.36ZM80.41,240.23h0c2.69,2.85,5.64,3.71,7,4.45.64.35.93.67.69,1.14a2.71,2.71,0,0,1-.66.76,1.59,1.59,0,0,0-.52.71.54.54,0,0,0,.26.62,1.12,1.12,0,0,0,.31.15l1.57-.2,3-.69.29-.93-.64-.66h0L91,244.28l-1.42-.59-5.27-1.89-2.64-1.72-.67-.22-.08.08-.65-1.61v-2.09l-.36.06C79.61,237.35,79,238.78,80.41,240.23Zm40.12-124.44c1.85-.18,2.87.1,2.79,1.18s0,1.94,2.43,2.57c2.16.56,1.6,4.14,1.46,4.94l.81-3.62-.29-.49L126.37,118,123,115.53ZM98.3,59.31l1.65-.16,2.29.34,1.81.44,1.6,1.11-.39-.57.79.39,1,1.86.2.84v-.8l-.83-2-2-1.47-1.8-.46H99.9Zm10.49,26.25.19-1.19.26-1.51.21.06v-.33h.2l.18-2.82-.43-1.38v0l.17,1.29-.12,2.39-.23-.08v.26l-.22-.07Zm-24,4.37,1.3.22,2.58.83,2.87.92,1,1,0,.2.33,1.79.2-2.26-.37-.71-.26-.53-2.53-.76h0l-2.41-.73-.71-.21-.24-.08h0ZM74.67,89l.49,0,.49,0h0l2.35.1,3.15.12,2.26-.07h.7l.56,0-1.26-.11h0l-4.1-.35H76.49l-1.3.24Zm-3.76,0,1.29.12,3-.41h-.54L71,88.84Zm30.61,2.24-1.7-.69L103,92.45l.63.5h0l.22.17.47.35.63.47.57.55.39.38.78.59-1.19-.26-.91.1.09.23-.51-.06,1.78.37L108,96.92s1.68,2.23,1.06,4.06-.36,2.52.92,3.47a3.09,3.09,0,0,1,.68.71c.06.09.13.18.19.28a9.3,9.3,0,0,1,.77,1.65,11.13,11.13,0,0,1,.44,1.57,5.72,5.72,0,0,1,.12.68,5.81,5.81,0,0,1,.07.9c0,1.76,1.18,2.29,1.22,4.77a15.17,15.17,0,0,0,1.9,6.67,10.84,10.84,0,0,1,1.12,3.35l-.14-3-.66-1.91-.32-1.29-.41-1.33-.53-4.81-.5-2.63-.23-.69h0l-.23-.68L112.25,105l-.27-.84-.41-1.25-.06-.11-1.58-5.68-1.49-1.42-2-.62-.08,0-1.08-1.13-1-.52-.52-1.42-.83-.83-2.53-2.54-4.46-2.28,4.2,2.58L103.07,92ZM113,155.34l-.24,1.15.42.93a3.77,3.77,0,0,1,1.67,2.87c0,1.65,1.13,3.59,1.55,5.39s.91,5.91.3,8.23-.57,13.54-.57,13.54l-.14,9.72.29-3.22,1.24-24-.39-8.32-1.32-7.38-.6-.88.61-.53-.43-2.61v-7.66l.31-3.19-.83,3.27-.19,3.45-1.18,2.51,1.1-.84V150l-.64,2.32.91-.33ZM80.41,236.23,84,222.07l2.11-6.54,1.8-5.72,1-5.45-1.51,5.39-2.25,6.36-2.07,8.39Zm28.82,6.22a10.38,10.38,0,0,0,3.75,2.07s6.73,1.92,4.52,4.73a.69.69,0,0,0,.13,1.07,2.05,2.05,0,0,0,.36.22,1.4,1.4,0,0,0,.26.11l2.44-.54,1.14-1.74-.11-.76-.11-.19v-.3l-4.73-1.42-4.51-2.3-2.69-1.72-.17.29-.24-.15-.55-2.09.07-2.61-.33.08C108,239.05,107.65,241,109.23,242.45Z" transform="translate(0 -58.85)"/><path class="cls-81" d="M67.24,143.94h0L67,147.17l.38,3.26,1.22,1.88,2.09,1.47.49.13,0,.05.63.15L70.61,154l-2.18-1.44L67,150.64l-.35-3.56ZM85.17,86.11h0l.14.06.87-.94,4.3.08-.2,0L86.07,85ZM67.45,130.87l1.2,3.12.8.32.23,2.16.42,4.29-.39-6.35,0-.22-.29-.32-.24-.28-1.48-2.89-.15-4Zm5.79,88,.4-9,.83-6.27L78.38,193,79,180l-1.62-9.54,1,9.72-.74,13-.93,2.72-.92,2.63L74,203.76l-.72,5.86.07,6.06Zm25.06-11v6.34l.94,8.74,0-.26-.72-8.7,0-6.06,1.38-6,1.56-6.21-.26-2.41-.27-1-2.45-7.5.24.83,2,7.53v2.41l-.85,4.53L99.12,204l-.27,1.28-.16.74Zm-13-136,.5,2.78.51,1.23h0l.08.78-.09-.78.08.78.94,2.12,3,3.66h0l.13.45.18.13.24,1.12-.23,1.17h.12l.31-1.23-.14-.63-.07-.31-.6-1.1L87.61,78.6l-1-1.89v-.65l-.42-1.19v-.06L86,74.39l-.45-2.57.29-2.9Z" transform="translate(0 -58.85)"/></g></g></svg>