<svg xmlns="http://www.w3.org/2000/svg" xmlns:xlink="http://www.w3.org/1999/xlink" viewBox="0 0 530 207.59"><defs><style>.cls-1{isolation:isolate;}.cls-2{opacity:0.21;fill:url(#linear-gradient);}.cls-3{fill:#5ebaff;opacity:0.86;}.cls-4{fill:#4799e0;}.cls-5{fill:url(#linear-gradient-2);}.cls-6{fill:#4a5c63;}.cls-7{opacity:0.88;fill:url(#linear-gradient-3);}.cls-10,.cls-11,.cls-13,.cls-23,.cls-25,.cls-26,.cls-27,.cls-28,.cls-30,.cls-31,.cls-7,.cls-9{mix-blend-mode:multiply;}.cls-8{fill:url(#linear-gradient-4);}.cls-9{opacity:0.24;}.cls-10,.cls-11,.cls-12{fill:#bd80a3;}.cls-10{opacity:0.41;}.cls-11{opacity:0.16;}.cls-13{fill:#9484ff;opacity:0.15;}.cls-14,.cls-15,.cls-16{opacity:0.18;}.cls-14{fill:url(#linear-gradient-5);}.cls-15{fill:url(#linear-gradient-6);}.cls-16{fill:url(#linear-gradient-7);}.cls-17,.cls-18,.cls-19,.cls-20{fill:#ffd4b5;}.cls-17{opacity:0.25;}.cls-18{opacity:0.57;}.cls-19{opacity:0.44;}.cls-20{opacity:0.67;}.cls-21{fill:url(#linear-gradient-8);}.cls-22{fill:url(#linear-gradient-9);}.cls-23{fill:url(#linear-gradient-10);}.cls-24{fill:#d49473;}.cls-24,.cls-29{opacity:0.55;}.cls-25{fill:url(#linear-gradient-11);}.cls-26{fill:url(#linear-gradient-12);}.cls-27{fill:url(#linear-gradient-13);}.cls-28{fill:url(#linear-gradient-14);}.cls-29{fill:#d4949e;}.cls-30{fill:url(#linear-gradient-15);}.cls-31{fill:url(#linear-gradient-16);}.cls-32{fill:#ba7073;}.cls-33{fill:#b0a66b;}.cls-34{fill:#bf9e4f;}.cls-35{fill:#c7965c;}</style><linearGradient id="linear-gradient" x1="265" y1="288.84" x2="265" y2="152.91" gradientTransform="matrix(-1, 0, 0, 1, 530, 0)" gradientUnits="userSpaceOnUse"><stop offset="0" stop-color="#f5e6e3"/><stop offset="0.57" stop-color="#fcf7f7"/><stop offset="0.99" stop-color="#fff"/></linearGradient><linearGradient id="linear-gradient-2" x1="265" y1="290" x2="265" y2="82.41" gradientTransform="matrix(-1, 0, 0, 1, 530, -82.41)" gradientUnits="userSpaceOnUse"><stop offset="0" stop-color="#634561"/><stop offset="0.12" stop-color="#6a4b65"/><stop offset="0.3" stop-color="#7e5b70"/><stop offset="0.52" stop-color="#9e7482"/><stop offset="0.76" stop-color="#cb989b"/><stop offset="1" stop-color="#ffc2b8"/></linearGradient><linearGradient id="linear-gradient-3" x1="265" y1="290" x2="265" y2="85.17" gradientTransform="matrix(-1, 0, 0, 1, 530, 0)" gradientUnits="userSpaceOnUse"><stop offset="0.01" stop-color="#8f5cad"/><stop offset="0.17" stop-color="#a572b5"/><stop offset="0.54" stop-color="#d19ec6"/><stop offset="0.83" stop-color="#edbad0"/><stop offset="1" stop-color="#f7c4d4"/></linearGradient><linearGradient id="linear-gradient-4" x1="33.47" y1="282.04" x2="530" y2="282.04" gradientTransform="matrix(-1, 0, 0, 1, 530, -82.41)" gradientUnits="userSpaceOnUse"><stop offset="0" stop-color="#59ab9e"/><stop offset="0.18" stop-color="#5db3a9"/><stop offset="0.51" stop-color="#69c8c7"/><stop offset="0.93" stop-color="#7deaf6"/><stop offset="1" stop-color="#80f0ff"/></linearGradient><linearGradient id="linear-gradient-5" x1="20.67" y1="257.14" x2="200.67" y2="257.14" gradientTransform="matrix(-1, 0, 0, 1, 530, -82.41)" gradientUnits="userSpaceOnUse"><stop offset="0" stop-color="#8c9c94"/><stop offset="1" stop-color="#c4b8a1"/></linearGradient><linearGradient id="linear-gradient-6" x1="187" y1="244.82" x2="266.75" y2="244.82" xlink:href="#linear-gradient-5"/><linearGradient id="linear-gradient-7" x1="292.63" y1="263.78" x2="348" y2="263.78" xlink:href="#linear-gradient-5"/><linearGradient id="linear-gradient-8" x1="321.5" y1="267.89" x2="530" y2="267.89" gradientTransform="matrix(-1, 0, 0, 1, 530, -82.41)" gradientUnits="userSpaceOnUse"><stop offset="0" stop-color="#a66a5b"/><stop offset="0.98" stop-color="#6d4b75"/></linearGradient><linearGradient id="linear-gradient-9" x1="321.5" y1="254.63" x2="530" y2="254.63" gradientTransform="matrix(-1, 0, 0, 1, 530, -82.41)" gradientUnits="userSpaceOnUse"><stop offset="0.02" stop-color="#e6bab8"/><stop offset="0.98" stop-color="#a9664f"/></linearGradient><linearGradient id="linear-gradient-10" x1="415.15" y1="250.59" x2="530" y2="250.59" gradientTransform="matrix(-1, 0, 0, 1, 530, -82.41)" gradientUnits="userSpaceOnUse"><stop offset="0.02" stop-color="#7d6b99"/><stop offset="0.25" stop-color="#8774a0"/><stop offset="0.62" stop-color="#a08bb2"/><stop offset="1" stop-color="#c2a9c9"/></linearGradient><linearGradient id="linear-gradient-11" x1="366.54" y1="290" x2="366.54" y2="248.85" gradientTransform="matrix(-1, 0, 0, 1, 530, 0)" gradientUnits="userSpaceOnUse"><stop offset="0.01" stop-color="#e1c5df"/><stop offset="0.18" stop-color="#cab6d4"/><stop offset="0.53" stop-color="#a09abf"/><stop offset="0.81" stop-color="#8788b2"/><stop offset="0.98" stop-color="#7d82ad"/></linearGradient><linearGradient id="linear-gradient-12" x1="489.88" y1="290" x2="489.88" y2="265.88" gradientTransform="matrix(-1, 0, 0, 1, 530, -82.41)" xlink:href="#linear-gradient-11"/><linearGradient id="linear-gradient-13" x1="404.27" y1="290" x2="404.27" y2="254.22" gradientTransform="matrix(-1, 0, 0, 1, 530, -82.41)" xlink:href="#linear-gradient-11"/><linearGradient id="linear-gradient-14" x1="448.43" y1="290" x2="448.43" y2="258.62" gradientTransform="matrix(-1, 0, 0, 1, 530, -82.41)" xlink:href="#linear-gradient-11"/><linearGradient id="linear-gradient-15" x1="458.23" y1="242.87" x2="527.19" y2="242.87" xlink:href="#linear-gradient-10"/><linearGradient id="linear-gradient-16" x1="499.38" y1="260.04" x2="530" y2="260.04" gradientTransform="matrix(-1, 0, 0, 1, 530, 0)" xlink:href="#linear-gradient-10"/></defs><title>layer1.</title><g class="cls-1"><g id="Layer_1" data-name="Layer 1"><path class="cls-2" d="M0,164.61V288.84H530V169.34c-16.19-3.09-30-5.52-30-5.52l-13.5,2.69-11-2.69-32.5-5-15,2.5H394l-20,8.36H344l-23,3.55-24-6.72-11-3.84L257.93,160l-14.18,1.79L232.67,160,211,161.56l-3.5,4.95s-9,3.52-10.5,3.17-13.5-3.17-13.5-3.17l-10-3s-11.83,6-13.83,6.18-12.23-7-12.23-7L128,155.56l-40.5-2.65L73,158.82l-12.5-3.26L31,163.07l-8-2.38-10,5.82Z" transform="translate(0 -82.41)"/><polygon class="cls-3" points="468.4 76.36 440.48 69.76 427.12 74.69 417.73 70.75 387.73 78.37 365.04 78.37 338.9 91.81 303.86 91.81 274.25 83.6 257.99 83.6 230.75 90.46 220.68 90.46 201.75 95.49 188.86 101.16 177.98 99.54 171.54 101.16 150.19 92.73 142.13 83.6 130.78 82.14 72.15 88.38 69.72 95.49 47.47 107.22 196.91 133.56 306.07 124.2 468.4 76.36"/><polygon class="cls-4" points="0 55.62 0 134.15 465.33 134.15 465.33 56.85 445.23 55.75 441.26 57.6 436.88 55.75 421.15 54.61 408.64 61.73 402.56 58.74 381.81 62.59 377.11 66.01 370.81 85.83 364.26 87.96 361.45 87.4 350.11 92.53 336.77 89.36 324.24 89.36 317.28 91.25 311.5 90.96 290.61 102.17 283.04 102.17 270.11 107.12 255.55 113.77 240.86 115.91 211.41 119.83 193.1 113.4 175.97 113.4 158.47 108.94 146.53 109.89 129.81 102.17 123.85 100.8 114.69 91.97 107.52 82.58 100.64 80.19 93.7 80.53 83.87 68.97 69.31 67.89 49.15 64.87 37.24 65.02 22.56 62.52 2.85 55.75 0 55.62"/><polygon class="cls-5" points="0 99.12 0 207.59 530 207.59 530 33.66 513.08 22.93 495.33 21 473.5 13.36 466.33 7 455.17 6.26 444.33 9.92 439.09 8.57 438.5 8.42 434.33 2.76 427.67 0 411 10.33 407.33 14.66 392 11 383.45 18 366.33 29.86 357.33 29.86 351.67 32.33 341.75 34.47 325 50.79 317.33 49.09 317.1 49.35 317.09 49.37 308.5 59.33 304.75 63.33 300.75 63.33 294.5 68.83 284 82.93 274.25 86.08 265 98.83 239.25 114.83 217.33 116.66 206.63 118.95 204.67 119.37 183.83 127.83 181.33 127 147.44 131.83 139.64 130.09 110.48 123.59 94.87 125.25 65.2 116.4 57.43 117 42.23 109.04 36.87 108.04 11.61 97.85 3.33 101.63 0 99.12"/><polygon class="cls-6" points="530 137.09 522.75 140.09 518.5 140.09 502.5 146.09 465.33 148.59 439.7 157.84 432.75 157.84 421 159.09 392.33 159.09 388.67 159.09 385.58 160.92 378.67 160.92 376 160.92 370.75 160.92 364 158.63 369 154.84 384.33 150.92 388.67 145.92 396.55 134.15 395.75 132.34 387 141.97 369.25 144.09 365 142.59 361.5 145.09 353 144.34 327.25 149.01 323.5 149.01 318.75 151.09 286.5 156.1 284.25 158.63 276.75 158.63 257.93 168.16 254.75 166.93 249.5 168.16 240.5 165.84 222.5 168.16 219 168.16 217.5 163.37 227.5 158.63 228.5 153.76 211 156.1 205 154.84 185.25 153.76 177 151.44 164.91 156.1 162.88 154.59 151.75 155.22 147.44 157.18 143.88 157.47 134.25 159.58 127.98 158.63 117 159.97 114.86 155.59 110.13 154.72 104.12 156.1 96.13 153.76 65.75 151.43 61.88 152.63 52.92 151.43 49.25 152.63 39.5 149.09 33.5 149.22 29 147.34 22.25 143.34 18.13 135.84 10.75 132.09 7.88 128.09 6.63 128.09 0 124.84 0 207.59 530 207.59 530 137.09"/><path class="cls-7" d="M392.34,116.15v2.5l-5.5,10.5L377,142.48l-6.5,18.28L365,163.6l-2.75,7.94-9.58,6.69-8.42,8L338,187.65l-7.83,13.16L324,203.17l-11.75,15.31,4.25-8.73,2.62-6.37,7.76-8.88,8.24-12.17,3.5-11.45,2.59-9.11,11.46-5.33,6.08-6.63-4.37-5.91,14.12-20.57-.62-4.22-12.44,3.26L372,114.1,382.38,107l10-2.91,1.5-4L392,93.41l9.88,2.34,5.45,1.3-9.66,14.1ZM427.67,110l16.66-17.67-5.83-1.5-4.17-5.66-14.08,17-9.25.69-7.83,16.24L393,129.83,407.33,120l6.34-8.75ZM0,187.83V290H530V169.67l-4,7.66-6.33,3.34-20,30.37h-3.14l-19.2,7.63H447.67l-23.17-1-20,5.83,9.5-18.17,13.77-22.08,1.73-8.75-5.5,9.57-6,5.6-10.67,13.07-13.58,4.51L384,202.74,393,160l-20.25,42.74-16.34,8.43V205L343.5,216.5l-9-.52-21,7-4.25-1.08H303l-3.75-10.42L304.32,196l12.77-15.51,7.66-19.74-9.5,13.49L268.33,216l-4,.58-3.07,8.77-10-2.08-10.75-5.76,2.75-5.74-16.42.24,12.42-14.75-34.06,16.7,1.23-.11L183,216l23.63-14.62-2,.42-20.84,8.46-2.5-.83-33.89,4.83-7.8-1.74-5.39,2.25-8.92-2.25-7.55,6.5-20.1-7.67L92,210.5l-27.78-7.83,7.72,9.66-19-7L39,195.39l-13.33-4.62-6.5,2.79L7.83,186.23,2.67,188.5ZM521.33,131.5l8.67-7.42v-8l-16.92-10.73-24.33,20.49,1.75,1.4L475.17,147.5l-6.77,1-14.23,14.13L470.52,154l11.81-1.09,1,1.76L479,169l17-28.42,12.33-10.75L501.5,145l13.33-12.67Zm-67.16,47.44L429.5,194.67l19.33-5,6.34,1.21L459,180l1.5-10.83ZM461.08,105l12.42-9.23-7.17-6.36-17.5,18.09-1.21-.5,1.21-1.66-1.21-.72-14.24,17L424.69,123,412,136.17l14.33-10.92,8.5-.33,12.84-12.11,1.08.21-4.83,7Z" transform="translate(0 -82.41)"/><polygon class="cls-8" points="496.53 207.59 320.62 201.24 337.61 199.87 228.62 199.87 214.25 198.51 207.25 199.96 187 196.26 147.44 196.26 0.12 191.66 0 207.59 496.53 207.59"/><g class="cls-9"><polygon class="cls-10" points="455.44 8.96 453 11.51 475.6 23.61 454.17 15.01 480.27 30.61 485.05 28.38 483.45 22.97 459.58 11.94 473.16 16.29 455.44 8.96"/><polygon class="cls-11" points="447.63 17.46 445.13 19.84 480 36.73 447.63 17.46"/><polygon class="cls-11" points="457.83 64.09 428.33 50.09 445.83 60.09 410.83 47.42 407.33 49.76 434.17 60.09 412 53.76 452 68.92 452 65.42 457.83 64.09"/><polygon class="cls-11" points="455.17 77.59 404.5 55.42 451 79.39 455.17 77.59"/><polygon class="cls-11" points="429.83 82.92 390 63.59 384.67 67.4 416.25 82.92 398.67 72.42 429.83 82.92"/><polygon class="cls-10" points="414 95.09 378.5 82.92 375.5 87.26 414 97.59 414 95.09"/><polygon class="cls-12" points="413.5 102.01 411.58 105.26 377 90.92 413.5 102.01"/><polygon class="cls-10" points="463.33 103.8 435.71 91.92 434.33 95.92 457.19 108.28 447.56 101.4 462.44 105.26 463.33 103.8"/><polygon class="cls-11" points="462.92 116.34 440.17 108.28 432.75 101.01 431.42 105.26 437.5 113.51 460.17 123.51 446.67 115.09 462.92 116.34"/><polygon class="cls-12" points="468.75 132.67 427.17 118.42 424.5 124.26 454.42 131.76 450.25 129.34 468.75 132.67"/><polygon class="cls-11" points="346.02 36.62 343.63 40.27 372.91 45.06 378.75 47.42 361.19 39.22 346.02 36.62"/><polygon class="cls-11" points="363.83 32.34 357.69 32.34 355.75 32.97 375.5 38.47 367 38.47 384.67 42.84 388.25 39.59 363.83 32.34"/><polygon class="cls-10" points="388.25 30.71 373.75 26.34 370.5 29.21 389.63 34.47 388.25 30.71"/><polygon class="cls-11" points="436.81 20.21 434.44 22.53 419.19 12.4 429.44 22.93 412.56 10.71 421.06 6.71 429.63 13.84 425.81 12.46 434.88 19.78 436.81 20.21"/><polygon class="cls-12" points="425.75 3.84 424.25 4.9 440.63 17.09 427.31 3.4 425.75 3.84"/><polygon class="cls-10" points="377 65.09 374.38 72.42 348.88 74.34 344.75 75.59 344.25 72.42 359.63 67.97 365.25 67.4 357.69 66.72 377 65.09"/><polygon class="cls-12" points="369 77.59 365 81.22 339.75 82.92 342.13 81.09 369 77.59"/><polygon class="cls-12" points="356.13 88.72 338.63 86.09 335.5 88.72 352.25 92.22 344.25 89.06 356.41 89.15 356.13 88.72"/><polygon class="cls-12" points="351.75 58.42 352.67 61.26 327.25 73.84 326.42 71.17 320.92 72.42 307.67 65.09 323.42 69.26 331 68.01 351.75 58.42"/><polygon class="cls-12" points="344.25 58.42 317.5 51.42 314.75 54.59 330.67 58.09 315.67 56.59 338.75 61.51 344.25 58.42"/><polygon class="cls-12" points="284.5 86.09 277.88 87.97 275.13 91.59 312.25 97.59 286.25 89.97 309.25 93.84 284.5 86.09"/><polygon class="cls-12" points="289.88 79.39 287.5 82.34 307.67 88.22 314.25 89.15 319.13 94.09 315.88 87.26 308.5 86.09 295.13 80.26 309.13 83.59 291.13 77.59 289.88 79.39"/></g><polygon class="cls-13" points="407.33 14.66 397.67 28.76 392.33 33.76 392.33 36.26 386.83 46.76 372.33 55.26 364.67 60.09 363.83 52.09 372.33 41.26 371 36.09 385.58 25.92 392.5 24.62 395.92 22.63 396.33 20.92 400.38 18.59 401.88 13.36 407.33 14.66"/><polygon class="cls-14" points="509.33 154.29 491.33 158.63 472.94 158.63 463.67 161.42 457 161.42 415.5 172.72 403.33 173.59 399.63 178.47 389.63 178.72 387.5 180.97 363 185.48 360.67 185.81 350.33 188.11 340.92 193.09 329.33 195.17 341.83 194.67 352.25 190.67 355.25 190.42 358.75 189.17 360 189.92 362.17 188.42 364.67 189.26 367 187.17 375.75 186.34 377.83 184.92 383.5 185.84 385.83 184.09 389.42 184.09 390.92 181.17 396.58 180.51 400.25 180.51 403.67 178.09 407.25 174.73 416.25 175.34 417.92 173.92 422.58 173.67 436.58 168.67 456.33 163.09 447.25 167.84 460.58 163.17 466.33 162.84 472.83 160.17 491.25 160.01 509.33 154.29"/><polygon class="cls-15" points="343 152.59 332.75 155.07 326.75 155.07 309.83 161.42 301.75 160.34 288.25 161.42 283.5 164.15 278.67 164.15 263.25 172.22 279 166.22 283.25 166.22 289.38 162.41 300.88 162.41 303.13 163.37 304.88 162.41 310.25 163.37 327.38 156.59 333.88 156.59 343 152.59"/><polygon class="cls-16" points="237.38 169.16 230.75 172.97 228.88 172.97 227.13 174.34 225.75 174.34 223.13 175.72 218.75 175.72 209.75 180.72 205.88 180.72 202.88 182.97 188.78 189.47 182 193.59 190.13 190.34 202.25 185.48 203.63 185.48 204.88 183.84 205.5 184.59 208.5 182.34 213.13 181.38 219 176.97 223.83 176.97 226.17 175.26 229.25 174.76 229.46 173.88 231.83 173.59 237.38 169.16"/><polygon class="cls-17" points="183 133.56 183 133.56 206.63 118.95 217.33 116.66 239.25 114.83 205.19 131.53 183 133.56"/><polygon class="cls-17" points="243.25 129.34 271.67 99.92 255.67 129.34 258.67 130.26 265 125.92 266.67 127.42 261.25 142.92 251.25 140.84 240.5 135.08 243.25 129.34"/><polygon class="cls-17" points="309.25 139.51 324 120.76 330.17 118.4 338 105.24 344.25 103.78 353.38 95.33 345.95 108.28 341 111.59 335.5 124.2 330.17 135.02 313.5 140.59 309.25 139.51"/><polygon class="cls-18" points="427.67 0 434.33 2.76 420.25 19.79 411 20.48 403.17 36.73 393 47.42 390.13 57.58 382.38 65.09 370.5 78.35 377 59.59 386.84 46.74 392.34 36.24 392.34 33.74 397.67 28.74 407.33 14.64 411 10.33 427.67 0"/><polygon class="cls-19" points="513.08 22.93 488.75 43.42 490.5 44.82 475.17 65.09 468.4 66.13 454.17 80.26 435.71 90.26 458.67 65.09 472 52.42 470.88 52.22 463 59.47 461.5 57.9 477.88 40.53 495.33 21 513.08 22.93"/><polygon class="cls-17" points="356.41 122.59 370.5 101.66 375.5 99.92 393 77.59 372.75 120.33 356.41 128.76 356.41 122.59"/><polygon class="cls-17" points="324.75 78.35 313.54 80.13 309.32 83.42 289.75 92.74 268.33 133.56 309.06 97.34 316.9 89.87 324.75 78.35"/><polygon class="cls-20" points="274.25 86.08 290.64 83.26 300.75 63.33 294.5 68.83 284 82.93 274.25 86.08"/><polygon class="cls-20" points="304.75 63.33 313 63.33 315.83 56.01 313.83 56.47 317.33 49.09 305.17 63.09 304.75 63.33"/><polygon class="cls-18" points="466.33 7 448.83 25.09 447.63 24.59 448.83 22.93 447.63 22.21 433.38 39.18 424.69 40.6 412 53.76 402.42 60.09 409.25 51.97 411.88 45.97 407.88 44.82 393 51.42 390.13 57.58 393 47.42 407.33 37.59 413.67 28.84 427.67 27.59 444.33 9.92 455.17 6.26 466.33 7"/><polygon class="cls-17" points="429.5 92.09 423.67 94.38 410.83 103.8 392.17 118.42 387.83 122.1 393.75 124.84 407.33 120.33 418.44 106.85 424.5 101.66 429.5 92.09"/><polygon class="cls-17" points="530 87.26 526 94.92 519.67 98.26 499.67 128.63 504.33 108.28 504 101.66 499.67 101.01 494.83 103.09 493.67 102.92 509.33 85.59 510.83 86.76 509.33 90.26 513 90.26 523.83 76.76 523.17 74.09 521.33 74.09 530 64.42 530 87.26"/><polygon class="cls-17" points="460.5 86.76 441.67 92.22 440.83 96.53 429.5 112.26 454.17 96.53 460.5 86.76"/><polygon class="cls-18" points="392 11 393.88 17.69 392.38 21.69 382.38 24.6 371.71 31.78 364.4 35.37 355.44 39.96 366.33 29.86 383.75 17.75 392 11 392 11"/><polygon class="cls-20" points="333.5 52.42 332.59 50.79 325 50.79 341.75 34.47 357.33 29.86 342.33 48.26 341.15 55.42 318.17 74.7 333.5 52.42"/><polygon class="cls-17" points="367.88 36.7 362.12 38.21 354.38 61.49 368.5 40.92 367.88 36.7"/><polygon class="cls-21" points="208.5 163.76 208.5 169.37 200.67 173.76 207.17 173.76 207.17 177.09 180.5 188.76 180.5 190.92 162.83 198.76 160.5 201.92 160.5 207.59 0 207.59 0 163.37 208.5 163.76"/><polygon class="cls-22" points="0 158.63 140.5 159.62 99.71 162.41 145.75 161.27 197 162.41 208.5 163.76 186 166.43 137.75 167.55 156.75 168.76 162.88 168.76 162.38 169.32 142.88 171.89 123.88 171.89 70.83 176.76 49.51 175.66 40.74 176.42 76.69 179.58 76.92 181.92 16.75 185.81 0 182.67 0 158.63"/><polygon class="cls-23" points="67.83 164.59 49.44 163.89 32 163.89 38.88 163.34 49.46 162.7 49.31 161.65 34.5 161.97 8.63 162.84 0 163.37 0 173.47 10.13 174.72 17.38 174.59 25.8 173.59 63.25 173.72 99.22 170.34 114.86 168.11 104.25 167.72 95.56 167.78 77.25 168.03 58.38 168.7 53.81 167.97 76.06 166.37 83.39 164.59 67.83 164.59"/><polygon class="cls-24" points="162.88 168.76 162.13 173.97 151.13 185.81 141.88 201.47 140.25 207.34 132 207.47 133.13 197.97 140.5 187.22 135.13 190.22 143.5 171.81 162.88 168.76"/><polygon class="cls-24" points="76.92 181.92 73.76 188.11 69.5 189.97 72.13 189.97 69.5 200.22 63.97 207.59 56.02 207.59 63.33 199.8 63.5 191.55 52.92 183.47 76.92 181.92"/><path class="cls-25" d="M141.88,283.88,140.22,290h15.35c.59-3.25,1.1-6,1.1-6l9.13-10.88,4.37-7.24,17.38-5.63,1.62-3.75-5.33-.75-2.17-1.12,4.11-5.78-48,1.11,19,1.21h6.13l-.75,5.21-11,11.84Z" transform="translate(0 -82.41)"/><polygon class="cls-26" points="30.05 196.03 24.93 197.47 36.05 203.34 42.3 200.84 38.43 205.21 36.78 207.59 56.02 207.59 63.33 199.8 63.5 191.55 52.92 183.47 16.75 185.81 30.05 192.97 30.05 196.03"/><polygon class="cls-27" points="107.97 207.59 132.01 207.59 133.13 197.97 140.5 187.21 135.13 190.21 143.5 171.81 142.88 171.89 123.88 171.89 122.87 171.98 114.86 186.47 115.93 190.71 109.43 194.76 109.43 203.71 107.97 207.59"/><polygon class="cls-28" points="85.17 198.47 83.43 198.47 85.55 185.81 87.05 185.81 89.17 181.92 99.17 177.09 99.17 176.21 69.97 178.99 76.69 179.58 76.92 181.92 73.76 188.11 69.5 189.97 72.13 189.97 69.5 200.21 63.97 207.59 85.31 207.59 85.17 198.47"/><polygon class="cls-29" points="140.5 159.62 140.25 161.42 99.47 162.47 118 161.04 140.5 159.33 140.5 159.62"/><polygon class="cls-30" points="9.44 160.15 20 160.15 16.31 161.14 34.56 160.59 34.56 161.14 43.38 160.59 44 161.14 48.86 160.59 53.94 161.49 53.94 162.24 63.97 162.24 71.77 161.77 56.25 159.14 41.25 158.92 5.69 158.67 2.81 159.53 13 159.53 9.44 160.15"/><path class="cls-31" d="M0,258.73l2.81.69L0,259.69l2.81.4L0,260.81v.69l10.25-.44-2.94,1.06,7.21-1-.71,1,3.94-1.18,1.13,1.18,2.68-.87,3.75.87.75-.93,2.51.62-.44-.69L30.62,260h-.2l-4.54-.47s-5.32.54-5.5.47-5.07-1.22-5.07-1.22H9.56L6.37,258H0Z" transform="translate(0 -82.41)"/><path class="cls-32" d="M14.53,226.63c.26,1,.56,2.05.87,3.06.67,2.16,1.4,4.29,1.93,6.48.1.43.2.87.27,1.3h0c.13.63.23,1.26.3,1.9a.69.69,0,0,0,.39.46s0,.1,0,.15v0h0a.84.84,0,0,0,.33-.07,1,1,0,0,0,.4,0,.31.31,0,0,0,0,.08c.14.5,1.54.77,1.86.48.14.51.26,1,.42,1.54a.58.58,0,0,0,.13.23c.36.08.68.08.77-.11A12.29,12.29,0,0,0,23,239.7c.17,0,.29-.07.34-.19a1.39,1.39,0,0,0,.06-.19l.14.27a2.67,2.67,0,0,0,1.79.57c.54.2,1.22.27,1.26,0,.51-3.37-.38-6.6-.67-10-.06-.77-.53-2.2-.54-3,0-.61-1.23-.33-1.22,0,0,1.5.19,3,.34,4.49-.41-.09-.83-.07-1,.14s-.11.18-.16.27h0a5.11,5.11,0,0,0-.27.64c-.29-1.17-.6-2.31-.77-3.37,0-.3-.79-.54-1.33-.57-.35,0-.61,0-.58.23.27,1.67.88,3.52,1.2,5.35h0q.12.65.18,1.29h0c-.2.81-.34,1.63-.5,2.44h-.06a5.82,5.82,0,0,1,0-1.56c.06-.43-.35-.76-.8-.9a26.91,26.91,0,0,0-.67-5.35c-.05-.19-.1-.38-.17-.57-.12-.34-1.89-.79-1.92-.44a11.87,11.87,0,0,0,0,1.46c-.41-1.32-1.54-2.81-1.87-4.14C15.58,226,14.35,225.9,14.53,226.63Z" transform="translate(0 -82.41)"/><path class="cls-32" d="M24.74,241.1c.09.13.17.25.26.36s.19.21.28.3a1.68,1.68,0,0,0,.21.18h1.74v0l.08,0h.45A3.85,3.85,0,0,0,29,240.06c1.19-3.48.67-6.48.46-10h0c-.06-1.06-.66-2.86-.75-3.93,0-.55-.89-.77-.83-.11.07.9.15,1.81.23,2.73l0,.44h0a34.24,34.24,0,0,1,.1,4.64h0a17.07,17.07,0,0,1-.36,2.77,18.77,18.77,0,0,1-.81,3,6.66,6.66,0,0,1-.57,1.28.89.89,0,0,0-.12.24C26,240.67,24.33,240.48,24.74,241.1Z" transform="translate(0 -82.41)"/><path class="cls-32" d="M29.78,241.24a.79.79,0,0,0,.44.7h1.44a.48.48,0,0,0,.06-.18c.18-2.34,1.29-4.41,2-6.6a11.26,11.26,0,0,0,.52-2.53c.06-.88-1-1.19-1.11-.36a12.81,12.81,0,0,1-.91,2.81h0C31.72,236.55,30,238.34,29.78,241.24Z" transform="translate(0 -82.41)"/><path class="cls-32" d="M66,230.15a23.53,23.53,0,0,1,5.6,14.58c0,.9-1.93.53-1.95-.21-.08-5-1.17-10.27-4.44-14.18C64.45,229.43,65.52,229.58,66,230.15Z" transform="translate(0 -82.41)"/><path class="cls-32" d="M57.92,234.69c.51.91,1.78,1.68,2.31,2.59a2.17,2.17,0,0,1,.78.23,11.84,11.84,0,0,1-1.72-6c0-.45,1.67.16,1.83.33,2.66,2.79,2.77,7.41,5.05,10.39a8.83,8.83,0,0,0-.24-1.82c-1.32-2.55-2.4-5.21-3.63-7.81-.14-.32,1.68-.14,1.9.34.8,1.77,2.08,3.77,3,5.84.55,0,1.52.21,1.56.62.12,1.28.25,2.53.48,3.79.06.31-.57.25-1.12.07A6.8,6.8,0,0,1,68,244c-.1.45-1.51-.1-1.71-.23a7.73,7.73,0,0,1-.76-.6,2.25,2.25,0,0,0,.08.24c.14.46-1.25.05-1.7-.17.12.62-1.53.53-1.92-.05-1.85-2.74-3.5-5.61-5.12-8.5C56.33,233.8,57.54,234,57.92,234.69Z" transform="translate(0 -82.41)"/><path class="cls-32" d="M49.36,241c0-.24,0-.47-.08-.7-.08-.45.55-.5.85-.48A6.24,6.24,0,0,1,53.06,241c-.3-.58-.68-1.13-1-1.71-.46-.92,1.35-.55,1.69-.23a14,14,0,0,1,1.82,2.22c-.34-1.55-1.26-3-1.19-4.66,0-.71,1.51-.16,1.75.06A7.57,7.57,0,0,1,57.25,238a1.14,1.14,0,0,1,.51.29,18.74,18.74,0,0,1,2,3.36c.13.29-.37.31-.65.29.2.51.39,1,.6,1.52.38.91-1.55.71-1.82.08-.06-.16-.13-.32-.19-.49a3.68,3.68,0,0,1-.06.58c-.13.59-1.28.3-1.57.07a5.7,5.7,0,0,1-.64-.56c-.28.37-1.18.13-1.49-.06-.83-.51-1.66-1.39-2.59-1.85,0,.17,0,.34,0,.5.08.58-.78.49-1.11.43l-.62-.13C48.63,241.83,48.67,241.1,49.36,241Z" transform="translate(0 -82.41)"/><path class="cls-32" d="M2.26,253.81c.51.78,1.07,1.51,1.64,2.23l1.26,1.6a1.76,1.76,0,0,0,1,.37l.62.9a2.24,2.24,0,0,0,1.6.38c.11,0,.17-.11.11-.23l-.16-.32,0,0q-.53-1-1.14-1.95c.55.18,1.23.29,1.09-.13a20.33,20.33,0,0,0-.92-2.27c.72,1.13,1.38,2.32,2,3.51.25.45,2,.74,1.78.27,0-.1-.09-.19-.13-.28.44.18,1.07.31,1.25.13.17.28.34.55.53.81s1.83.78,1.71.14c0-.16-.07-.33-.11-.5a2.81,2.81,0,0,0,1.11.37,10.87,10.87,0,0,0,.58,1.59h2.77v0a.59.59,0,0,0,.16-.07l.08.1h1.57A8.08,8.08,0,0,0,22.08,256c0-.38-.42-.65-.82-.73a.71.71,0,0,0-.2,0,.89.89,0,0,0-.41.06A3.91,3.91,0,0,0,18.87,257c0-1.35,0-2.7-.16-4a.46.46,0,0,0-.08-.24c.58,0,1.08-.35.62-.92a5.54,5.54,0,0,1-.57-.8,1.1,1.1,0,0,0-1.21-.36.54.54,0,0,0-.2.1.46.46,0,0,0-.17.14l0,0c0-.65.08-1.28.11-1.93,0,0,0,0,0-.06.27-1.86.57-3.71.69-5.51,0-.24-.32-.46-.7-.59,0,0,0-.07,0-.1-.13-.31-.26-.62-.4-.92s-.16-.41-.25-.6a1.12,1.12,0,0,0,.24.08c0-.21,0-.4,0-.6.37,0,.66-.19.56-.57-.05-.22-.13-.43-.19-.65a2,2,0,0,0,.41.13c-.25-.89-.52-1.77-.82-2.64-.12-.36-.25-.73-.38-1.09q-1-2.94-2.38-5.78c-.46-1-1.52-1.87-2-2.82-.37-.69-1.61-.75-1.14.14.74,1.39,1.44,2.81,2.07,4.25.27.6.52,1.2.76,1.81.11.25.21.5.31.75H13.6a16.4,16.4,0,0,1-1.12-2.67,6.25,6.25,0,0,1-.16-.62c-.11-.44-1.86-.71-1.78-.32a18.71,18.71,0,0,0,1.72,4.16,2.53,2.53,0,0,1,.12.23l-.07-.07c-.2-.2-.41-.39-.63-.58a1.6,1.6,0,0,0-.19-.11,2.45,2.45,0,0,0-1.1-.13h0a3.1,3.1,0,0,0-.72-.21c-.47-.1-1-.14-.85.07s.09.18.15.26c.18.33.39.66.6,1a5.07,5.07,0,0,0,.36.54c.45.67.9,1.32,1.31,2-.38-.36-.75-.73-1.16-1.07l0,0c-.3-.26-2-.5-1.62-.13l.08.09A9.64,9.64,0,0,1,11.44,241h0s0,.05,0,.07a.59.59,0,0,0,.34.28v.25c-.19-.2-.38-.4-.55-.61-.47-.52-.91-1-1.33-1.6A2,2,0,0,0,8.56,239c-.28,0-.44.13-.27.34a29.9,29.9,0,0,0,3.56,3.9c.05.78.13,1.56.22,2.34a15,15,0,0,0-2.14-4.12c-.16-.23-1.7-.8-1.71-.25A18.24,18.24,0,0,0,9,246.86c-.24-.42-.49-.83-.77-1.24-.17-.24-1.74-.78-1.73-.26a11.64,11.64,0,0,0,.24,1.88c0,.24.1.49.16.72h0c.13.51.29,1,.46,1.52-.21-.29-.41-.59-.64-.86s-1.88-.8-1.71-.15a15.12,15.12,0,0,0,.61,1.87c-.31-.2-1.7-.6-1.54,0,0,.16.09.34.14.51a.6.6,0,0,1,0,.16h0c.17.52.37,1,.59,1.51a7.67,7.67,0,0,0-1.06-1c-.17-.14-1.86-.57-1.58,0,.37.7.79,1.39,1.22,2.06C3,253.41,1.9,253.27,2.26,253.81Zm12-9.57a18,18,0,0,0-.65-3,1.09,1.09,0,0,1-.05-.17c0-.14-.29-.29-.58-.41-.07-.2-.17-.39-.26-.59.51.16,1.28.33,1.18,0a11.54,11.54,0,0,0-1.47-2.86c.11.09.23.16.34.26a21.24,21.24,0,0,1,1.33,2.26c.31.57.59,1.17.85,1.76a2.56,2.56,0,0,0,.11.24.25.25,0,0,0,0,.27l.35.58a1.14,1.14,0,0,0,.63.34,38.74,38.74,0,0,0-.75,6c-.12.82-.23,1.66-.31,2.48-.06-.46-.12-.92-.17-1.39C14.67,248.08,14.59,246.15,14.3,244.24Zm-3.44,3.35a20.43,20.43,0,0,1-.58-2.43c.28.78.52,1.58.74,2.4s.33,1.39.49,2.09C11.28,249,11.05,248.28,10.86,247.59Z" transform="translate(0 -82.41)"/><path class="cls-33" d="M33.17,259.66a5,5,0,0,1-.67.16,2.39,2.39,0,0,1-.13.28H30.9a1.83,1.83,0,0,1-.28-.14h-.2a1.94,1.94,0,0,1-1.29-.48c-.31-.34.27-.4.48-.4a10.49,10.49,0,0,0,1.12-.05l.12-.12c.43-.32,1.17-.11,1.63,0C32.65,258.94,33.81,259.47,33.17,259.66Z" transform="translate(0 -82.41)"/><path class="cls-33" d="M28.71,257.46c-.31-.14-.8-.64-.46-1a28.44,28.44,0,0,0,2-3c.53-.73,2.37,0,1.77.85a26.51,26.51,0,0,1-2,3A1.11,1.11,0,0,1,28.71,257.46Z" transform="translate(0 -82.41)"/><path class="cls-33" d="M7.27,256.87a2.23,2.23,0,0,1,.17.73,1.21,1.21,0,0,1,0,.19c-.29-.05-.57,0-.67.13a.44.44,0,0,0-.07.5l0,0c-.28.3.2.64.44.75.5.22,1.4.4,1.79-.15a.73.73,0,0,0,0-.09.93.93,0,0,0,.68.46c.17.22.34.44.49.67h1.55c-.26-.36-.53-.71-.81-1.06,0-.07-.1-.13-.15-.2s.07-.24.09-.35l0,0a1.76,1.76,0,0,0,.14.23,1.27,1.27,0,0,0,1.4.24,1.36,1.36,0,0,0,1.31.41,4.54,4.54,0,0,0,1,.71h1.59a1.49,1.49,0,0,0,.09-.3,1.78,1.78,0,0,0,1.15.12,1,1,0,0,0,.22.18h3.2v0a.52.52,0,0,0,.15-.07l.08.09h1.68a8.2,8.2,0,0,0,.5-.87,1.77,1.77,0,0,0,.9.25c.39.28,1.27.52,1.47.29s.13-.19.19-.28a3.68,3.68,0,0,0,.64.61h2.29a1.65,1.65,0,0,0-.39-.09,1.56,1.56,0,0,1-1.15-.85l0,0V258c.26.05.62.09.66-.09s-.64-.46-.79-.49a2.78,2.78,0,0,0-.64-.12c-.46-.11-.95-.11-.95,0v.11a1.44,1.44,0,0,0-.41.3,4.16,4.16,0,0,0-.5.61,1.69,1.69,0,0,1,.68-1.35c.31-.24-.32-.6-.47-.66l-.25-.08c.05-.1.09-.2.14-.31.4.15.88.21,1,0a27.59,27.59,0,0,1,2-2.78c.26-.24-.6-.67-1.19-.71a2.16,2.16,0,0,0-.39-.26,1.25,1.25,0,0,0-1.13,0c-.11.08-.23.14-.33.22-.32.24.32.6.46.66a2.45,2.45,0,0,0,.41.11c-.35.46-.62,1-.94,1.45-.46-.22-1.16-.27-1.33.1-.05.13-.11.25-.16.38-.16.34-.3.69-.44,1,.07-.35.15-.71.25-1.06.53-2,1.42-4.07,2-6,.17-.59-1.33-1-1.66-.56a11.32,11.32,0,0,0-1.4,2.3c.23-2.37.4-4.73.4-7.11v-.51a.48.48,0,0,1,0-.12c0-.53-1.58-.92-1.73-.34-.57,2.45-.65,5.26-1,7.95,0,.39-.1.78-.18,1.17,0-.36,0-.71,0-1.08,0-.58,0-1.16-.07-1.75-.1-2.27-.3-4.55-.39-6.82,0-.17,0-.33,0-.5s0-.38,0-.57c.35,0,.63-.18.54-.55-.05-.21-.13-.4-.19-.62a1.88,1.88,0,0,0,.4.13h.29a.69.69,0,0,0,.29-.07.93.93,0,0,0,.35,0,.25.25,0,0,0,0,.07c.13.44,1.37.68,1.65.43.13.45.23.91.38,1.36a.53.53,0,0,0,.11.21.9.9,0,0,0,.46.28,1,1,0,0,1,.92-.55h.18a1.1,1.1,0,0,0,0-.18s0-.09,0-.14a.68.68,0,0,0,.72-.34h.16a1.52,1.52,0,0,0,.78.24H26l.09.08a1.28,1.28,0,0,0,0,.19v.16h1.74v0l.07,0h5.23a.48.48,0,0,0,.12-.16c.09-.2.16-.42.25-.62a1.47,1.47,0,0,0,0,.55.58.58,0,0,0,.09.23h2.69l.59-.26a.41.41,0,0,0,0,.08c-.11.39,1.6.85,1.71.47a2.76,2.76,0,0,1,.62-1.17c.26-.27-1.32-.89-1.62-.58-.09.1-.15.22-.23.32a1.16,1.16,0,0,0-1.23-.4l-.24.12a2.8,2.8,0,0,1,.66-1.46c.25-.27-1.34-.88-1.63-.57a3,3,0,0,0-.66,1.25.54.54,0,0,0-.31.2c.38-1.13.71-2.29,1.2-3.38.29-.65-1.05-1.11-1.57-.64a.49.49,0,0,0-.15.19c-.05.11-.09.24-.14.36a1.46,1.46,0,0,0-1-.28.84.84,0,0,0-.46-.47h0a1.26,1.26,0,0,0-.5-.15,13.05,13.05,0,0,0-.92-4.69h0a2.77,2.77,0,0,0-.1-.26c-.14-.35-1.25-.52-1.6-.42-.07,0-.1,0-.09.1s.08.2.12.29h0a12.87,12.87,0,0,1,.85,3.69c-.26,0-.48,0-.58.17a1.51,1.51,0,0,0-.18.26h0a5.29,5.29,0,0,0-.51,1h0a1.54,1.54,0,0,0-.53-.26v-3.41c0-.28-.38-.5-.78-.61s-.93-.09-.93.15v2.84l-.16,0c0-.11,0-.2,0-.3,0-.43-.89-.72-1.39-.59a1.18,1.18,0,0,0,0-.27h0c-.11-1.09-.25-2.2-.46-3.28-.16-.78-1.9-1-1.74-.13a4.21,4.21,0,0,1,.09.49,43.33,43.33,0,0,1,.56,4.95h0c0,.42.05.83.07,1.25-.32-1.45-.63-2.88-1-4.31a.85.85,0,0,0-.72-.54c-.52-.08-1.1.16-.94.78.54,2,.95,4,1.4,5.94-.23-.79-.46-1.59-.71-2.39-.12-.38-1.11-.62-1.52-.5a35.39,35.39,0,0,0-1.64-4.1.87.87,0,0,0-.45-.35c-.42-.16-1-.17-1.15.06a.31.31,0,0,0,0,.37,30.47,30.47,0,0,1,1.46,3.67c-.42-.1-.85-.06-.85.16v.23a.56.56,0,0,0,0,.12,1.24,1.24,0,0,0-.69-.16c0-.14-.07-.29-.11-.43s-.1-.48-.16-.72c-.09-.45-.18-.9-.24-1.35,0-.17-.23-.3-.48-.38a1.64,1.64,0,0,0-.38-.1c-.44-.08-.88-.07-.87,0a24.13,24.13,0,0,0,.66,3.06.88.88,0,0,0,0,.15c.09.4.22.8.33,1.2a4,4,0,0,0-1-1.32,5.07,5.07,0,0,0-.09-.54,11.21,11.21,0,0,0-.31-1.42c-.15-.53-1.86-.79-1.71-.25a10.07,10.07,0,0,1,.27,1.35c0,.07,0,.15,0,.23a3.68,3.68,0,0,0-.64.07h-.07c-.31.09-.34.4-.1.63A1.37,1.37,0,0,0,12,236l.27,0c0,.16.05.32.07.49s.09.6.14.89a8.71,8.71,0,0,0,.6,2,5.79,5.79,0,0,0-2.1-2.07l-.2-.11c-.16-.08-1.36-.32-1.18.2A8,8,0,0,0,11,239.58l.18.23a1.34,1.34,0,0,0,.89.44c.17.26.35.53.55.79a1.51,1.51,0,0,0,1,.44h.19c.24,0,.68-.12.43-.45s-.29-.39-.42-.6a2.34,2.34,0,0,0,.4.37,1.35,1.35,0,0,0,.54.18c0,.06,0,.13.05.17a1.49,1.49,0,0,0,1.1.6c.35.05.64,0,.62-.4a5.21,5.21,0,0,0-.15-1.05,3.39,3.39,0,0,0,.77.15c0,.51,0,1,0,1.54,0,.93.09,1.87.15,2.8a2.8,2.8,0,0,0-.81-.18c-.27,0-.48,0-.49.08-.18,2.59.47,5.22.51,7.81a39.46,39.46,0,0,1-.79-4.18c-.07-.62-1.34-.89-1.65-.45a1.51,1.51,0,0,0-.72-.09.37.37,0,0,0-.15,0,.43.43,0,0,0-.32.45c.05.7.13,1.4.24,2.08-.1-.22-.19-.44-.29-.67s-.86-.54-1.33-.52a9.93,9.93,0,0,0-.86-1.32,2,2,0,0,0-1.42-.36c-.19,0-.26.12-.14.28s.2.27.3.41h0a14.86,14.86,0,0,1,1.62,3.3.38.38,0,0,0-.23.47c.1.46.23.91.35,1.37-.11-.21-.21-.42-.33-.63a1.48,1.48,0,0,0-1.43-.46,10.47,10.47,0,0,0-.94-1.06c-.26-.27-1.5-.43-1.6-.23,0,0,0,.09,0,.15v0a12.17,12.17,0,0,1,1.81,2.29,1.18,1.18,0,0,0-.92.11c-.54.3-.14.77.4,1h0c.37.14.77.93,1,1.41,0,.43,0,.86,0,1.29L8.92,257a1.82,1.82,0,0,0-2.21-1.09.59.59,0,0,0-.14.06.34.34,0,0,0,0,.6,1.34,1.34,0,0,0,.73.34Zm11.08.88a.4.4,0,0,0,.13-.24c.05-.32.08-.64.12-1h.12a7.31,7.31,0,0,0,0,1.48.32.32,0,0,0-.14.51.93.93,0,0,0,.28.28h0a8.34,8.34,0,0,1-.16.87h-.12C18.54,259.05,18.43,258.4,18.35,257.75Zm-.76-23.1a14.07,14.07,0,0,0-1.17-1.79,2.33,2.33,0,0,0,1,.27v0a.88.88,0,0,0,.51.47,2.16,2.16,0,0,0,.66.18,1.34,1.34,0,0,0,.55-.05c.24.78.47,1.55.7,2.33l-.12,0a3.49,3.49,0,0,0-.39.19,1,1,0,0,0,0-.1c-.12-.31-.21-.62-.32-.93a.31.31,0,0,0-.1-.15h0a1.07,1.07,0,0,0-.52-.31A2.21,2.21,0,0,0,17.59,234.65Z" transform="translate(0 -82.41)"/><path class="cls-34" d="M28.69,238l-.12,0a.55.55,0,0,1,0,.18A.71.71,0,0,1,28.69,238Z" transform="translate(0 -82.41)"/><path class="cls-34" d="M28.65,238.4l-.06-.05v0h.06Z" transform="translate(0 -82.41)"/><path class="cls-34" d="M16.83,237.39c-.08-.26-.15-.51-.24-.75Z" transform="translate(0 -82.41)"/><path class="cls-33" d="M2.88,256.82a1.1,1.1,0,0,1,1.32-.18c.33.16.78.68.44,1.06a2.59,2.59,0,0,0-.54,1.19c-.24,1-2.17.44-1.93-.51A3.43,3.43,0,0,1,2.88,256.82Z" transform="translate(0 -82.41)"/><path class="cls-35" d="M53.91,242.86c.15.19.31.38.48.56a1.13,1.13,0,0,0,1.17.3.49.49,0,0,0,.22-.82c-.13-.13-.24-.26-.36-.39h0l.33-.06a1.1,1.1,0,0,0,.26.15.84.84,0,0,0,.2.18,2.44,2.44,0,0,0,.5.21,1.32,1.32,0,0,0,.58.79.94.94,0,0,0,.22.12h1c.24-.15.17-.38,0-.56a.53.53,0,0,0-.15-.15h0a1.67,1.67,0,0,0,.38,0l.32.1a5.08,5.08,0,0,1,1.19.59h2.17a.19.19,0,0,0,.07-.17l0-.15c.47.18,1.1.33,1.1,0a5.63,5.63,0,0,0,0-.58,1.8,1.8,0,0,0,0-.22,2.81,2.81,0,0,0,.62.05.59.59,0,0,1,0,.13.43.43,0,0,0,0,.12h0a1.38,1.38,0,0,0,1.37.43,1,1,0,0,0,.47.37H67a1.1,1.1,0,0,0,.14-.09.18.18,0,0,0,0,.09H70.3q0-.51-.12-1a.92.92,0,0,0,.65-.09.85.85,0,0,0,.42,0,.42.42,0,0,0,.37-.36,25.25,25.25,0,0,0-.2-6.67c-.11-.74-1.79-1-1.68-.14a.06.06,0,0,0,0,0h0c.09.62.15,1.22.21,1.83a1.58,1.58,0,0,0-.7-.24,17.4,17.4,0,0,0-2-4.72,1.36,1.36,0,0,0-1.12-.41c-.38,0-.64.17-.44.51a16.34,16.34,0,0,1,1.88,4.54c-.3,0-.51.17-.44.47s.22.83.35,1.25c.17.61.35,1.21.51,1.81a.7.7,0,0,0-.25.17,2,2,0,0,0-.4.71,14.93,14.93,0,0,0-.75-4.49h0s0,0,0,0c-.1-.46-.2-.91-.26-1.35,0-.19-.35-.36-.71-.44s-1-.09-.92.17a20,20,0,0,0,.51,2.34v0c.13.51.26,1,.35,1.55a.9.9,0,0,0-.37-.25h0a1.81,1.81,0,0,0-.31-.09,22.34,22.34,0,0,0-1.65-4.8,1.59,1.59,0,0,0-.15-.29.46.46,0,0,0-.16-.18,0,0,0,0,0,0,0c-.51-.38-1.74-.38-1.39.29a22.74,22.74,0,0,1,1.93,5.8,17.15,17.15,0,0,0-.86-2.19,1.39,1.39,0,0,0-.68-.39h0a2,2,0,0,0-.66-.14c-.17,0-.29.05-.3.18a4.85,4.85,0,0,0,0,.66,12.11,12.11,0,0,0-.83-1.91,2.09,2.09,0,0,0-1.44-.5c-.14,0-.23.1-.2.23.22.9.53,1.77.84,2.65.4,1.05.81,2.1,1.11,3.17,0-.1-.13-.17-.28-.24a10.16,10.16,0,0,1-.66-2.27c-.09-.67-1.77-.93-1.66-.16a7.16,7.16,0,0,0,.34,1.4,1.62,1.62,0,0,0-.58-.18h-.29a.75.75,0,0,0-.34.1.21.21,0,0,0-.09.26.19.19,0,0,1,0,.07,1.55,1.55,0,0,0-.23-.06,7.48,7.48,0,0,0-.42-1,1,1,0,0,0-1.06-.52.66.66,0,0,0-.56.42h0a.47.47,0,0,0,0,.3,8,8,0,0,1,.34.8h0c0,.09.06.16.09.26-.32,0-.58,0-.57.1a1.93,1.93,0,0,1,0,.48h0a1,1,0,0,0-.61-.23h0a1,1,0,0,0-.58.12,2.24,2.24,0,0,0-.61.45,1,1,0,0,0-.15.2C52.21,242.58,53.33,243.14,53.91,242.86Zm11.75-.58a1.18,1.18,0,0,0,.36.24,1.72,1.72,0,0,1-.23.32C65.74,242.65,65.7,242.47,65.66,242.28Zm0-2s0,0,0,0v0A4.88,4.88,0,0,1,65.6,242l-.3-1.35A.52.52,0,0,0,65.71,240.24Zm-5.2,1.41c.11.39.2.78.28,1.18l-.31-.15A1.42,1.42,0,0,0,60.51,241.65Z" transform="translate(0 -82.41)"/><path class="cls-33" d="M8.6,239.14c-.25.57-2.14,0-1.93-.52,0,0,.12-.21.08-.26-.28-.35.24-.45.49-.44a1.81,1.81,0,0,1,1.28.49A.6.6,0,0,1,8.6,239.14Z" transform="translate(0 -82.41)"/></g></g></svg>