<?xml version="1.0" encoding="utf-8"?>
<!-- Generator: Adobe Illustrator 23.0.1, SVG Export Plug-In . SVG Version: 6.00 Build 0)  -->
<svg version="1.1" id="Layer_1" xmlns="http://www.w3.org/2000/svg" xmlns:xlink="http://www.w3.org/1999/xlink" x="0px" y="0px"
	 viewBox="0 0 191.9 214.1" style="enable-background:new 0 0 191.9 214.1;" xml:space="preserve">
<style type="text/css">
	.st0{opacity:0.92;fill:url(#SVGID_1_);enable-background:new    ;}
	.st1{opacity:0.92;fill:url(#SVGID_2_);enable-background:new    ;}
	.st2{opacity:0.92;fill:url(#SVGID_3_);enable-background:new    ;}
	.st3{opacity:0.92;fill:url(#SVGID_4_);enable-background:new    ;}
	.st4{fill:#BF9E4F;}
</style>
<title>left_clouds</title>
<g>
	<g>
		
			<linearGradient id="SVGID_1_" gradientUnits="userSpaceOnUse" x1="-79.85" y1="135.07" x2="112" y2="135.07" gradientTransform="matrix(-1 0 0 -1 112 170.03)">
			<stop  offset="1.000000e-02" style="stop-color:#FFFFFF"/>
			<stop  offset="0.9" style="stop-color:#F6E8D9"/>
			<stop  offset="0.96" style="stop-color:#F5E6D6"/>
		</linearGradient>
		<polygon class="st0" points="0,10.8 0,58.7 7.8,56 10.9,57.1 16.7,53.4 31.1,61.4 35,65.5 44.7,65.5 56.4,69.4 57.9,69.9 
			82.6,69.9 89.4,63.5 91.2,63.5 97.6,63.2 104.7,61.4 108.2,63.2 133.5,52.1 137,52.1 145.1,47.4 151.8,48.6 158.3,45.7 
			157.7,41.2 158.2,39.8 163.2,40.2 183.7,39.2 189.6,36.6 189.7,33.3 191.9,32.6 189.1,28.6 184.8,24.4 168.5,22.5 162.3,18.3 
			152.2,23.5 141.6,23.9 130.8,13.6 114.8,15.5 108.6,11.3 99.7,11.7 97.6,4.2 85.6,0 79.8,6.6 69.3,6.6 59.9,18.8 47.5,16.9 
			41.2,11.7 33.5,14.6 19.9,11.3 16.3,6.6 8.2,6.6 		"/>
		
			<linearGradient id="SVGID_2_" gradientUnits="userSpaceOnUse" x1="-77.71" y1="125.215" x2="112" y2="125.215" gradientTransform="matrix(-1 0 0 -1 112 170.03)">
			<stop  offset="0" style="stop-color:#CFF5E5"/>
			<stop  offset="0.56" style="stop-color:#D4EBF7"/>
			<stop  offset="1" style="stop-color:#D6E6FF"/>
		</linearGradient>
		<polygon class="st1" points="0,19.7 0,58.7 7.8,56 10.9,57.1 16.7,53.4 31.1,61.4 35,65.5 44.7,65.5 56.4,69.4 59.7,66.3 
			66.9,66.3 71.6,64.9 76.7,69.9 82.6,69.9 89.4,63.5 91.2,63.5 97.6,63.2 104.7,61.4 108.2,63.2 133.5,52.1 137,52.1 145.1,47.4 
			151.8,48.6 158.3,45.7 157.7,41.2 158.2,39.8 163.2,40.2 183.7,39.2 189.6,36.6 189.7,33.3 183.3,36.4 181.3,34.9 178.2,36.4 
			170.1,31.5 159,28.7 156.6,32.5 153.7,31.2 145.5,36.4 142.8,36.4 139.7,38.3 130.9,32.2 124.3,33.5 118.9,31.2 95.9,26.1 
			92.4,28 101.8,32.2 104.9,35 104.1,37.1 98.8,38.3 93.8,38.3 90.3,41.3 76.9,36.1 74.5,33.7 69.5,33.7 64.4,30.5 59,35 47.8,36.7 
			40.6,33.3 30.2,41.3 24.7,36.4 21.6,37.1 16.3,35 5.4,28.4 4.5,21.4 		"/>
		
			<linearGradient id="SVGID_3_" gradientUnits="userSpaceOnUse" x1="25.95" y1="164.615" x2="42.68" y2="164.615" gradientTransform="matrix(-1 0 0 -1 112 170.03)">
			<stop  offset="0" style="stop-color:#CFF5E5"/>
			<stop  offset="0.56" style="stop-color:#C3EBF7"/>
			<stop  offset="1" style="stop-color:#BDE6FF"/>
		</linearGradient>
		<polygon class="st2" points="69.3,6.6 79.6,10.8 86.1,0.2 85.6,0 79.8,6.6 		"/>
		
			<linearGradient id="SVGID_4_" gradientUnits="userSpaceOnUse" x1="-62.3" y1="116.995" x2="112" y2="116.995" gradientTransform="matrix(-1 0 0 -1 112 170.03)">
			<stop  offset="0" style="stop-color:#CFF5E5"/>
			<stop  offset="0.56" style="stop-color:#D7F0F7"/>
			<stop  offset="1" style="stop-color:#DBEDFF"/>
		</linearGradient>
		<path class="st3" d="M0,43.9V58c0.1,0.2,0.1,0.4,0.2,0.6l5.5-1.9L7.8,56l3.1,1l5.8-3.7l0,0l14.4,8l3.9,4.1h9.7l13.2,4.4h24.8
			l6.8-6.4l0,0l1.8-0.1l6.3-0.2l7.1-1.8l3.5,1.8l25.3-11.1h3.5l5.7-3.3l2.4-1.4l6.6,1.2l1.9-0.8l4.6-2l-0.1-0.5l-0.6-4l0.3-1
			l0.2-0.5l3.8,0.3l1.2,0.1l2.6-0.1l8.4-0.4l0.1-0.1l-5.6-1.3l-7.4-0.8l-6-1.4l-1.3,1.7l-5,1.1l1.2,4l-3,0.8l-4.7-0.7l-6.5,2.8
			l-6.1-1.7l0.9-3.1l-3-1.6L114.3,43H109l-18,8.1l-4.4,5.8L80.5,53L76.1,54l-6.8-5l-16.1,1.7l-2.3-2.8h-4.4l-6-1.4l-10.1,4.1
			L19,43.9H0z"/>
		<path class="st4" d="M28.7,192h-0.1c0,0.1,0,0.1,0,0.2C28.6,192.1,28.6,192.1,28.7,192z"/>
		<path class="st4" d="M28.6,192.4L28.6,192.4L28.6,192.4L28.6,192.4L28.6,192.4z"/>
		<path class="st4" d="M16.8,191.4c-0.1-0.3-0.1-0.5-0.2-0.8L16.8,191.4z"/>
	</g>
</g>
</svg>
